<?xml version="1.0" encoding="utf-8"?>
<!-- Generator: Adobe Illustrator 17.0.0, SVG Export Plug-In . SVG Version: 6.00 Build 0)  -->
<!DOCTYPE svg PUBLIC "-//W3C//DTD SVG 1.1//EN" "http://www.w3.org/Graphics/SVG/1.1/DTD/svg11.dtd">
<svg version="1.1" id="Layer_1" xmlns="http://www.w3.org/2000/svg" xmlns:xlink="http://www.w3.org/1999/xlink" x="0px" y="0px"
	 width="512px" height="512px" viewBox="0 0 512 512" enable-background="new 0 0 512 512" xml:space="preserve">
<g>
	<path fill="#FFFFFF" d="M256,112.121c46.86,0,52.41,0.179,70.917,1.023c17.11,0.781,26.404,3.641,32.588,6.044
		c8.192,3.184,14.039,6.987,20.179,13.128c6.142,6.142,9.945,11.987,13.128,20.179c2.403,6.184,5.263,15.477,6.043,32.588
		c0.844,18.507,1.023,24.057,1.023,70.917c0,46.862-0.179,52.412-1.023,70.917c-0.781,17.112-3.641,26.405-6.043,32.589
		c-3.182,8.191-6.986,14.037-13.128,20.179c-6.141,6.141-11.987,9.944-20.179,13.128c-6.184,2.403-15.477,5.263-32.588,6.042
		c-18.504,0.845-24.052,1.023-70.917,1.023c-46.865,0-52.413-0.178-70.917-1.023c-17.11-0.78-26.404-3.639-32.588-6.042
		c-8.192-3.184-14.039-6.987-20.179-13.128c-6.141-6.142-9.944-11.989-13.128-20.179c-2.403-6.184-5.263-15.477-6.044-32.589
		c-0.844-18.505-1.023-24.055-1.023-70.917c0-46.86,0.179-52.41,1.023-70.917c0.781-17.11,3.641-26.403,6.044-32.588
		c3.184-8.192,6.987-14.037,13.128-20.179c6.141-6.141,11.987-9.944,20.179-13.128c6.184-2.403,15.477-5.263,32.588-6.044
		C203.59,112.3,209.14,112.121,256,112.121 M256,80.5c-47.663,0-53.64,0.201-72.359,1.056c-18.68,0.853-31.438,3.82-42.6,8.158
		c-11.541,4.484-21.328,10.486-31.085,20.242c-9.757,9.757-15.758,19.545-20.242,31.085c-4.339,11.164-7.306,23.921-8.158,42.602
		c-0.855,18.719-1.056,24.694-1.056,72.357c0,47.665,0.201,53.64,1.056,72.359c0.852,18.681,3.818,31.438,8.158,42.602
		c4.484,11.54,10.486,21.328,20.242,31.085c9.757,9.757,19.543,15.758,31.085,20.242c11.163,4.338,23.92,7.305,42.6,8.158
		c18.719,0.853,24.695,1.056,72.359,1.056c47.663,0,53.64-0.202,72.358-1.056c18.681-0.853,31.438-3.82,42.6-8.158
		c11.541-4.484,21.328-10.486,31.085-20.242c9.757-9.757,15.758-19.545,20.242-31.085c4.339-11.164,7.306-23.921,8.158-42.602
		c0.855-18.719,1.056-24.694,1.056-72.359c0-47.663-0.201-53.638-1.056-72.357c-0.852-18.68-3.818-31.438-8.158-42.602
		c-4.485-11.54-10.486-21.328-20.242-31.085c-9.757-9.757-19.543-15.758-31.085-20.242c-11.163-4.338-23.92-7.305-42.6-8.158
		C309.64,80.701,303.663,80.5,256,80.5"/>
	<path fill="#FFFFFF" d="M256,165.878c-49.772,0-90.121,40.349-90.121,90.121c0,49.774,40.349,90.121,90.121,90.121
		c49.772,0,90.121-40.348,90.121-90.121C346.121,206.227,305.772,165.878,256,165.878 M256,314.5c-32.309,0-58.5-26.191-58.5-58.5
		c0-32.309,26.191-58.5,58.5-58.5c32.309,0,58.5,26.191,58.5,58.5C314.5,288.309,288.309,314.5,256,314.5"/>
	<path fill="#FFFFFF" d="M370.743,162.318c0,11.63-9.428,21.06-21.06,21.06c-11.63,0-21.06-9.43-21.06-21.06
		c0-11.632,9.43-21.06,21.06-21.06C361.314,141.257,370.743,150.686,370.743,162.318"/>
</g>
</svg>
