<?xml version="1.0" encoding="utf-8"?>
<!-- Generator: Adobe Illustrator 17.0.0, SVG Export Plug-In . SVG Version: 6.00 Build 0)  -->
<!DOCTYPE svg PUBLIC "-//W3C//DTD SVG 1.1//EN" "http://www.w3.org/Graphics/SVG/1.1/DTD/svg11.dtd">
<svg version="1.1"
	 id="Layer_1" xmlns:svg="http://www.w3.org/2000/svg" xmlns:dc="http://purl.org/dc/elements/1.1/" xmlns:sodipodi="http://sodipodi.sourceforge.net/DTD/sodipodi-0.dtd" xmlns:inkscape="http://www.inkscape.org/namespaces/inkscape" xmlns:rdf="http://www.w3.org/1999/02/22-rdf-syntax-ns#" xmlns:cc="http://creativecommons.org/ns#"
	 xmlns="http://www.w3.org/2000/svg" xmlns:xlink="http://www.w3.org/1999/xlink" x="0px" y="0px" width="512px" height="512px"
	 viewBox="0 0 512 512" enable-background="new 0 0 512 512" xml:space="preserve">
<path id="Kik" fill="#FFFFFF" d="M128.668,377.493V134.5c0-17.293,12.322-31.3,27.548-31.3c15.212,0,27.541,14.006,27.541,31.3
	v136.737l68.858-74.134c7.973-8.652,14.495-14.006,24.274-14.006c14.859,0,24.281,13.592,24.281,28.01
	c0,10.709-5.069,18.95-12.679,27.181l-43.486,42.423l51.829,79.485c4.713,7.416,6.886,13.181,6.886,20.179
	c0,16.886-11.966,28.417-25.738,28.417c-10.869,0-17.392-4.119-23.918-14.414l-48.203-75.363l-22.105,22.655v35.826
	c0,17.303-12.329,31.303-27.541,31.303C140.991,408.796,128.668,394.797,128.668,377.493z M350.232,340.516
	c18.281,0,33.099-14.903,33.099-33.283s-14.818-33.286-33.099-33.286c-18.285,0-33.103,14.906-33.103,33.286
	S331.947,340.516,350.232,340.516z"/>
</svg>
