<?xml version="1.0" encoding="utf-8"?>
<!-- Generator: Adobe Illustrator 17.0.0, SVG Export Plug-In . SVG Version: 6.00 Build 0)  -->
<!DOCTYPE svg PUBLIC "-//W3C//DTD SVG 1.1//EN" "http://www.w3.org/Graphics/SVG/1.1/DTD/svg11.dtd">
<svg version="1.1" id="Layer_1" xmlns="http://www.w3.org/2000/svg" xmlns:xlink="http://www.w3.org/1999/xlink" x="0px" y="0px"
	 width="512px" height="512px" viewBox="0 0 512 512" enable-background="new 0 0 512 512" xml:space="preserve">
<path fill="#FFFFFF" d="M379.309,346.171v-147.97c0-13.566-11.099-24.663-24.662-24.663H206.675
	c-13.566,0-24.665,11.099-24.665,24.662v147.971c0,13.566,11.1,24.663,24.665,24.663h147.97c13.558,0,24.659-11.096,24.659-24.662
	h0.006L379.309,346.171z M243.668,296.848l25.033,33.417l36.623-45.748l49.324,61.656H206.675l36.992-49.324H243.668z
	 M132.691,222.864v172.633c0,13.565,11.096,24.662,24.661,24.662h172.633v-24.662H157.351V222.864H132.691z M281.413,155.5
	l59.087-48.027h-35.452V62.842h-47.269v44.632h-35.452L281.413,155.5z"/>
</svg>
