<?xml version="1.0" encoding="utf-8"?>
<!-- Generator: Adobe Illustrator 17.0.0, SVG Export Plug-In . SVG Version: 6.00 Build 0)  -->
<!DOCTYPE svg PUBLIC "-//W3C//DTD SVG 1.1//EN" "http://www.w3.org/Graphics/SVG/1.1/DTD/svg11.dtd">
<svg version="1.1" id="Layer_1" xmlns="http://www.w3.org/2000/svg" xmlns:xlink="http://www.w3.org/1999/xlink" x="0px" y="0px"
	 width="512px" height="512px" viewBox="0 0 512 512" enable-background="new 0 0 512 512" xml:space="preserve">
<g>
	<path fill="none" d="M294.259,406.956c0.742,0,1.481-0.006,2.234-0.019c19.945-0.337,40.755-7.58,50.895-17.329
		c0.383-0.368,0.502-0.925,0.332-1.43l-13.466-39.918c-0.246-0.729-1.04-1.095-1.759-0.82c-7.695,2.939-16.123,4.651-23.481,4.651
		c-18.261,0-27.678-9.864-27.99-29.322l-0.002-86.418c0-0.75,0.608-1.358,1.358-1.358h52.938c0.75,0,1.358-0.608,1.358-1.358V185.54
		c0-0.75-0.608-1.358-1.358-1.358h-52.71c-0.75,0-1.358-0.608-1.358-1.358v-72.803c0-0.75-0.608-1.358-1.358-1.358h-42.345
		c-0.02,0-1.878,0.062-2.156,2.315c-4.98,40.563-23.914,66.789-57.819,79.987c-0.516,0.201-0.863,0.695-0.863,1.249v41.423
		c0,0.75,0.608,1.358,1.358,1.358h31.722c0.75,0,1.358,0.608,1.358,1.358v90.931c0,29.591,17.503,79.669,83.106,79.672H294.259z"/>
	<path opacity="0.25" fill="#070606" enable-background="new    " d="M295.908,170.886h27.92v-40.243H294.55v38.885
		C294.55,170.278,295.158,170.886,295.908,170.886z"/>
	<path opacity="0.25" fill="#070606" enable-background="new    " d="M348.618,248.295H295.68c-0.75,0-1.358,0.608-1.358,1.358
		v73.012c0.048,3.007,0.361,5.441,0.885,7.432c0.155,0.589,0.706,0.977,1.315,0.977h27.079v-60.802h55.655v-64.109h-29.28v40.774
		C349.976,247.687,349.368,248.295,348.618,248.295z"/>
	<path opacity="0.25" fill="#070606" enable-background="new    " d="M373.645,366.351c-4.985,2.768-11.028,5.002-17.112,6.343
		l6.41,19l-2.133,2.808c-10.65,14.015-42.844,25.583-75.336,25.583c-6.658,0-13.058-0.207-19.208-0.613
		c13.875,13.323,34.377,22.76,63.917,22.761c0,0,0.003,0,0.005,0c0.778,0,1.554-0.006,2.343-0.019
		c23.27-0.396,48.695-9.659,58.913-23.107L373.645,366.351z"/>
	<path fill="#FFFFFF" d="M360.81,394.502l2.133-2.808l-6.41-19l-13.73-40.696c-0.186-0.552-0.704-0.924-1.287-0.924h-3.8h-1.724
		h-12.391h-27.079c-0.609,0-1.16-0.388-1.315-0.977c-0.524-1.991-0.837-4.425-0.885-7.432v-73.012c0-0.75,0.608-1.358,1.358-1.358
		h52.938c0.75,0,1.358-0.608,1.358-1.358v-40.774v-33.919c0-0.75-0.608-1.358-1.358-1.358h-24.79h-27.92
		c-0.75,0-1.358-0.608-1.358-1.358v-38.885V96.722c0-0.75-0.608-1.358-1.358-1.358h-41.231h-14.412H200.75
		c-6.611,0-14.239,4.903-15.354,13.99c-4.615,37.581-21.851,60.127-54.24,70.952l-3.614,1.206c-0.554,0.185-0.928,0.704-0.928,1.289
		v64.134c0,0.75,0.608,1.358,1.358,1.358h25.162h7.918h35.597c0.662,0,1.199,0.537,1.199,1.199v20.054h-36.796
		c0,19.156,0,46.051,0,57.738c0,57.857,36.774,87.665,105.214,92.188c6.15,0.406,12.55,0.613,19.208,0.613
		C317.966,420.085,350.16,408.517,360.81,394.502z M211.147,327.284v-90.931c0-0.75-0.608-1.358-1.358-1.358h-31.722
		c-0.75,0-1.358-0.608-1.358-1.358v-41.423c0-0.554,0.347-1.048,0.863-1.249c33.905-13.198,52.839-39.424,57.819-79.987
		c0.278-2.253,2.136-2.315,2.156-2.315h42.345c0.75,0,1.358,0.608,1.358,1.358v72.803c0,0.75,0.608,1.358,1.358,1.358h52.71
		c0.75,0,1.358,0.608,1.358,1.358v48.095c0,0.75-0.608,1.358-1.358,1.358H282.38c-0.75,0-1.358,0.608-1.358,1.358l0.002,86.418
		c0.312,19.458,9.729,29.322,27.99,29.322c7.358,0,15.786-1.712,23.481-4.651c0.719-0.275,1.513,0.091,1.759,0.82l13.466,39.918
		c0.17,0.505,0.051,1.062-0.332,1.43c-10.14,9.749-30.95,16.992-50.895,17.329c-0.753,0.013-1.492,0.019-2.234,0.019h-0.006
		C228.65,406.953,211.147,356.875,211.147,327.284z"/>
	<path fill="#FFFFFF" d="M197.848,249.492c0-0.662-0.537-1.199-1.199-1.199h-35.597c0,0,0,9.059,0,21.253h36.796V249.492z"/>
	<path opacity="0.5" fill="#242541" enable-background="new    " d="M197.848,249.492c0-0.662-0.537-1.199-1.199-1.199h-35.597
		c0,0,0,9.059,0,21.253h36.796V249.492z"/>
</g>
</svg>
