<?xml version="1.0" encoding="utf-8"?>
<!-- Generator: Adobe Illustrator 17.0.0, SVG Export Plug-In . SVG Version: 6.00 Build 0)  -->
<!DOCTYPE svg PUBLIC "-//W3C//DTD SVG 1.1//EN" "http://www.w3.org/Graphics/SVG/1.1/DTD/svg11.dtd">
<svg version="1.1" id="Layer_1" xmlns="http://www.w3.org/2000/svg" xmlns:xlink="http://www.w3.org/1999/xlink" x="0px" y="0px"
	 width="512px" height="512px" viewBox="0 0 512 512" enable-background="new 0 0 512 512" xml:space="preserve">
<path fill="#FFFFFF" d="M420.143,154.168c-12.074,5.358-25.044,8.98-38.68,10.61c13.916-8.335,24.578-21.54,29.612-37.258
	c-12.996,7.72-27.408,13.324-42.77,16.342c-12.28-13.087-29.788-21.258-49.158-21.258c-37.182,0-67.336,30.142-67.336,67.345
	c0,5.27,0.597,10.41,1.738,15.35c-55.972-2.815-105.595-29.627-138.81-70.365c-5.797,9.953-9.118,21.523-9.118,33.867
	c0,23.36,11.89,43.973,29.96,56.047c-11.04-0.343-21.424-3.373-30.51-8.42v0.853c0,32.632,23.21,59.84,54.02,66.03
	c-5.66,1.55-11.6,2.36-17.745,2.36c-4.346,0-8.56-0.41-12.678-1.184c8.57,26.746,33.44,46.215,62.9,46.766
	c-23.05,18.068-52.09,28.838-83.632,28.838c-5.433,0-10.805-0.323-16.073-0.96c29.808,19.116,65.2,30.273,103.232,30.273
	c123.867,0,191.61-102.617,191.61-191.613c0-2.92-0.063-5.82-0.204-8.71c13.196-9.542,24.622-21.4,33.646-34.91v-0.007
	L420.143,154.168z"/>
</svg>
