<?xml version="1.0" encoding="utf-8"?>
<!-- Generator: Adobe Illustrator 17.0.0, SVG Export Plug-In . SVG Version: 6.00 Build 0)  -->
<!DOCTYPE svg PUBLIC "-//W3C//DTD SVG 1.1//EN" "http://www.w3.org/Graphics/SVG/1.1/DTD/svg11.dtd">
<svg version="1.1" id="Layer_1" xmlns="http://www.w3.org/2000/svg" xmlns:xlink="http://www.w3.org/1999/xlink" x="0px" y="0px"
	 width="512px" height="512px" viewBox="0 0 512 512" enable-background="new 0 0 512 512" xml:space="preserve">
<path fill="#FFFFFF" d="M332.5,285c0,0-26.325-12.515-29-14s-6.812-0.635-8,1s-11.108,14.663-12,16s-2.75,2.3-5,2
	c-5.55-0.825-19.346-9.033-34-21c-9.613-7.85-18.904-23.052-20-25s-2.506-3.77,1-7c0.646-0.37,5.616-4.97,7-7s4.66-9.663,3-14
	c-3.414-6.644-10.878-29.995-16-32c-5.157-2.02-13.85-1.665-16,0c-2.69,2.083-12.33,12.22-13,13c-8.597,9.824-3.783,35.354-2,42
	s23.765,37.95,38,51s44.664,33.763,71,34s33-13,33-13s3.405-3.88,4-7s2-11.177,2-14S332.5,285,332.5,285z M258.5,99
	c-84.5,0-153,68.5-153,153c0,28.943,8.04,56.01,22.004,79.088L100.5,413l85.762-26.102C207.778,398.444,232.372,405,258.5,405
	c84.5,0,153-68.5,153-153S343,99,258.5,99z M258.5,380c-26.056,0-50.288-7.793-70.508-21.164L139.5,375l16.142-46.81
	C139.847,306.902,130.5,280.544,130.5,252c0-70.692,57.308-128,128-128s128,57.308,128,128S329.192,380,258.5,380z"/>
</svg>
