<?xml version="1.0" encoding="utf-8"?>
<!-- Generator: Adobe Illustrator 17.0.0, SVG Export Plug-In . SVG Version: 6.00 Build 0)  -->
<!DOCTYPE svg PUBLIC "-//W3C//DTD SVG 1.1//EN" "http://www.w3.org/Graphics/SVG/1.1/DTD/svg11.dtd">
<svg version="1.1" id="Layer_1" xmlns="http://www.w3.org/2000/svg" xmlns:xlink="http://www.w3.org/1999/xlink" x="0px" y="0px"
	 width="480px" height="640px" viewBox="0 0 480 640" enable-background="new 0 0 480 640" xml:space="preserve">
<g>
	<g>
		<line fill="none" stroke="#FFFFFF" stroke-miterlimit="10" x1="90.23" y1="320" x2="0" y2="320"/>
	</g>
	<g>
		<line fill="none" stroke="#FFFFFF" stroke-miterlimit="10" x1="174.317" y1="320" x2="163.984" y2="320"/>
		<line fill="none" stroke="#FFFFFF" stroke-miterlimit="10" x1="157.812" y1="320" x2="147.479" y2="320"/>
		<line fill="none" stroke="#FFFFFF" stroke-miterlimit="10" x1="141.307" y1="320" x2="130.974" y2="320"/>
	</g>
	<g>
		<line fill="none" stroke="#FFFFFF" stroke-miterlimit="10" x1="124.525" y1="320" x2="114.192" y2="320"/>
		<line fill="none" stroke="#FFFFFF" stroke-miterlimit="10" x1="108.02" y1="320" x2="97.687" y2="320"/>
	</g>
	<g>
		<line fill="none" stroke="#FFFFFF" stroke-miterlimit="10" x1="389.77" y1="320" x2="480" y2="320"/>
	</g>
	<g>
		<line fill="none" stroke="#FFFFFF" stroke-miterlimit="10" x1="305.683" y1="320" x2="316.016" y2="320"/>
		<line fill="none" stroke="#FFFFFF" stroke-miterlimit="10" x1="322.188" y1="320" x2="332.521" y2="320"/>
		<line fill="none" stroke="#FFFFFF" stroke-miterlimit="10" x1="338.693" y1="320" x2="349.026" y2="320"/>
	</g>
	<g>
		<line fill="none" stroke="#FFFFFF" stroke-miterlimit="10" x1="355.475" y1="320" x2="365.808" y2="320"/>
		<line fill="none" stroke="#FFFFFF" stroke-miterlimit="10" x1="371.98" y1="320" x2="382.313" y2="320"/>
	</g>
</g>
<g>
	<g>
		<g>
			<line fill="none" stroke="#FFFFFF" stroke-miterlimit="10" x1="260" y1="120.182" x2="480" y2="120.182"/>
		</g>
	</g>
	<g>
		<g>
			<line fill="none" stroke="#FFFFFF" stroke-miterlimit="10" x1="229" y1="120.182" x2="0" y2="120.182"/>
		</g>
	</g>
</g>
<g opacity="0.6">
	<g>
		<g>
			<line fill="none" stroke="#FFFFFF" stroke-miterlimit="10" x1="108.882" y1="221.5" x2="371.118" y2="221.5"/>
		</g>
	</g>
	<g>
		<g>
			<line fill="none" stroke="#FFFFFF" stroke-miterlimit="10" x1="108.882" y1="418.5" x2="371.118" y2="418.5"/>
		</g>
	</g>
</g>
<g>
	<g>
		<g>
			<line fill="none" stroke="#FFFFFF" stroke-miterlimit="10" x1="260" y1="531.385" x2="480" y2="531.385"/>
		</g>
	</g>
	<g>
		<g>
			<line fill="none" stroke="#FFFFFF" stroke-miterlimit="10" x1="229" y1="531.385" x2="0" y2="531.385"/>
		</g>
	</g>
</g>
</svg>
