<?xml version="1.0" encoding="utf-8"?>
<!-- Generator: Adobe Illustrator 17.0.0, SVG Export Plug-In . SVG Version: 6.00 Build 0)  -->
<!DOCTYPE svg PUBLIC "-//W3C//DTD SVG 1.1//EN" "http://www.w3.org/Graphics/SVG/1.1/DTD/svg11.dtd">
<svg version="1.1" id="Layer_1" xmlns="http://www.w3.org/2000/svg" xmlns:xlink="http://www.w3.org/1999/xlink" x="0px" y="0px"
	 width="480px" height="640px" viewBox="0 0 480 640" enable-background="new 0 0 480 640" xml:space="preserve">
<g>
	<g>
		<g>
			<g>
				<path fill="none" stroke="#FFFFFF" stroke-miterlimit="10" d="M42.873,324.847v16.305c0,6.306,5.108,11.414,11.414,11.414
					h10.869c6.303,0,11.414-5.108,11.414-11.414v-16.305"/>
				<path fill="none" stroke="#FFFFFF" stroke-miterlimit="10" d="M76.57,316.152v-16.305c0-6.306-5.111-11.414-11.414-11.414
					H54.286c-6.306,0-11.414,5.108-11.414,11.414v16.305"/>
			</g>
			<g>
				<path fill="none" stroke="#FFFFFF" stroke-miterlimit="10" d="M436.183,316.152v-16.305c0-6.306-5.111-11.414-11.414-11.414
					h-10.87c-6.306,0-11.414,5.108-11.414,11.414v16.305"/>
				<path fill="none" stroke="#FFFFFF" stroke-miterlimit="10" d="M402.486,324.847v16.305c0,6.306,5.108,11.414,11.414,11.414
					h10.87c6.303,0,11.414-5.108,11.414-11.414v-16.305"/>
			</g>
		</g>
		<path fill="none" stroke="#FFFFFF" stroke-miterlimit="10" d="M365.107,286.68c-14.879-55.165-65.24-95.776-125.107-95.776
			c-59.869,0-110.229,40.611-125.107,95.776"/>
		<path fill="none" stroke="#FFFFFF" stroke-miterlimit="10" d="M114.893,354.319c14.879,55.165,65.238,95.773,125.107,95.773
			c59.867,0,110.228-40.608,125.107-95.773"/>
		<path fill="none" stroke="#FFFFFF" stroke-miterlimit="10" d="M177.892,92.076C76.582,119.401,2,211.889,2,321.835
			c0,109.95,74.583,202.437,175.893,229.759"/>
		<path fill="none" stroke="#FFFFFF" stroke-miterlimit="10" d="M302.113,551.595C403.423,524.27,478,431.786,478,321.836
			c0-109.947-74.577-202.434-175.887-229.759"/>
	</g>
	<g>
		<g>
			<path fill="none" stroke="#FFFFFF" stroke-miterlimit="10" d="M234.096,75.227H217.79c-6.306,0-11.414,5.109-11.414,11.414v10.87
				c0,6.304,5.108,11.414,11.414,11.414h16.305"/>
			<path fill="none" stroke="#FFFFFF" stroke-miterlimit="10" d="M242.79,108.926h16.305c6.306,0,11.414-5.109,11.414-11.414V86.64
				c0-6.304-5.108-11.414-11.414-11.414H242.79"/>
		</g>
		<g>
			<path fill="none" stroke="#FFFFFF" stroke-miterlimit="10" d="M235.05,534.745h-16.305c-6.306,0-11.414,5.11-11.414,11.414v10.87
				c0,6.304,5.108,11.414,11.414,11.414h16.305"/>
			<path fill="none" stroke="#FFFFFF" stroke-miterlimit="10" d="M243.744,568.444h16.305c6.306,0,11.414-5.109,11.414-11.414
				v-10.87c0-6.304-5.108-11.414-11.414-11.414h-16.305"/>
		</g>
	</g>
</g>
</svg>
