<?xml version="1.0" encoding="utf-8"?>
<!-- Generator: Adobe Illustrator 17.0.0, SVG Export Plug-In . SVG Version: 6.00 Build 0)  -->
<!DOCTYPE svg PUBLIC "-//W3C//DTD SVG 1.1//EN" "http://www.w3.org/Graphics/SVG/1.1/DTD/svg11.dtd">
<svg version="1.1" id="Layer_1" xmlns="http://www.w3.org/2000/svg" xmlns:xlink="http://www.w3.org/1999/xlink" x="0px" y="0px"
	 width="480px" height="640px" viewBox="0 0 480 640" enable-background="new 0 0 480 640" xml:space="preserve">
<g>
	<path fill="#FFFFFF" d="M281.222,257.307c6.753,4.365,12.724,9.754,17.766,16.034l0.8-0.629
		c-5.113-6.37-11.17-11.836-18.022-16.265L281.222,257.307z"/>
	<path fill="#FFFFFF" d="M200.304,257.242l-0.543-0.861c-6.904,4.447-13.003,9.944-18.147,16.359l0.801,0.629
		C187.486,267.046,193.498,261.626,200.304,257.242z"/>
	<path fill="#FFFFFF" d="M182.493,366.891l-0.8,0.63c5.184,6.442,11.33,11.955,18.288,16.402l0.54-0.863
		C193.663,378.676,187.603,373.241,182.493,366.891z"/>
	<path fill="#FFFFFF" d="M281.15,382.901l0.543,0.861c6.881-4.436,12.962-9.918,18.094-16.311l-0.8-0.629
		C293.928,373.123,287.933,378.527,281.15,382.901z"/>
</g>
<g opacity="0.6">
	<g>
		<path fill="none" stroke="#FFFFFF" stroke-miterlimit="10" d="M373.127,333.328c-6.218,61.532-55.14,110.454-116.672,116.674"/>
		<path fill="none" stroke="#FFFFFF" stroke-miterlimit="10" d="M256.454,190.069c61.511,6.217,110.42,55.107,116.666,116.609"/>
		<path fill="none" stroke="#FFFFFF" stroke-miterlimit="10" d="M113.195,306.743c6.218-61.532,55.14-110.454,116.672-116.674"/>
		<path fill="none" stroke="#FFFFFF" stroke-miterlimit="10" d="M229.868,450.001c-61.511-6.217-110.42-55.107-116.666-116.609"/>
	</g>
	<g>
		<path fill="none" stroke="#FFFFFF" stroke-miterlimit="10" d="M478.179,344.36c-11.396,112.766-101.05,202.422-213.816,213.819"/>
		<path fill="none" stroke="#FFFFFF" stroke-miterlimit="10" d="M264.363,81.821c112.727,11.393,202.358,100.99,213.805,213.701"/>
		<path fill="none" stroke="#FFFFFF" stroke-miterlimit="10" d="M1.821,295.64C13.217,182.874,102.871,93.219,215.637,81.821"/>
		<path fill="none" stroke="#FFFFFF" stroke-miterlimit="10" d="M215.639,558.179C102.912,546.786,13.279,457.189,1.833,344.478"/>
	</g>
</g>
<g opacity="0.45">
	<g>
		<path fill="none" stroke="#FFFFFF" stroke-miterlimit="10" d="M559.679,352.695C544.384,504.047,424.052,624.381,272.7,639.679"/>
		<path fill="none" stroke="#FFFFFF" stroke-miterlimit="10" d="M272.699,0.321C423.998,15.613,544.3,135.868,559.663,287.147"/>
		<path fill="none" stroke="#FFFFFF" stroke-miterlimit="10" d="M-79.679,287.305C-64.384,135.953,55.948,15.619,207.3,0.321"/>
		<path fill="none" stroke="#FFFFFF" stroke-miterlimit="10" d="M207.303,639.679C56.003,624.388-64.3,504.132-79.663,352.853"/>
	</g>
</g>
</svg>
