<?xml version="1.0" encoding="utf-8"?>
<!-- Generator: Adobe Illustrator 17.0.0, SVG Export Plug-In . SVG Version: 6.00 Build 0)  -->
<!DOCTYPE svg PUBLIC "-//W3C//DTD SVG 1.1//EN" "http://www.w3.org/Graphics/SVG/1.1/DTD/svg11.dtd">
<svg version="1.1" id="Layer_1" xmlns="http://www.w3.org/2000/svg" xmlns:xlink="http://www.w3.org/1999/xlink" x="0px" y="0px"
	 width="41.333px" height="43.25px" viewBox="0 0 41.333 43.25" enable-background="new 0 0 41.333 43.25" xml:space="preserve">
<path fill="#FFFFFF" d="M32,39.25H4v-28h16.917l4-4H4c-2.22,0-4,1.8-4,4v28c0,2.2,1.78,4,4,4h28c2.2,0,4-1.8,4-4V13.625l-4,4V39.25z
	"/>
<path fill="#FFFFFF" d="M20.578,16.432v4.323H24.9l12.753-12.75L33.33,3.681L20.578,16.434V16.432z M40.996,4.662
	c0.45-0.45,0.45-1.177,0-1.627l-2.698-2.698c-0.45-0.45-1.176-0.45-1.626,0l-2.11,2.11l4.323,4.323l2.11-2.11L40.996,4.662
	L40.996,4.662z M13.036,28.272l3.557,4.747l5.2-6.5l7.007,8.76H7.783"/>
</svg>
