<?xml version="1.0" encoding="utf-8"?>
<!-- Generator: Adobe Illustrator 17.0.0, SVG Export Plug-In . SVG Version: 6.00 Build 0)  -->
<!DOCTYPE svg PUBLIC "-//W3C//DTD SVG 1.1//EN" "http://www.w3.org/Graphics/SVG/1.1/DTD/svg11.dtd">
<svg version="1.1" id="Layer_1" xmlns="http://www.w3.org/2000/svg" xmlns:xlink="http://www.w3.org/1999/xlink" x="0px" y="0px"
	 width="44px" height="44px" viewBox="0 0 44 44" enable-background="new 0 0 44 44" xml:space="preserve">
<path fill="#FFFFFF" d="M42,34v-4h-8V14c0-2.2-1.8-4-4-4H14V6h4l-6-6L6,6h4v4H2v4h8v16c0,2.2,1.8,4,4,4h16v4h-4l6,6l6-6h-4v-4H42z
	 M22,29.669c-3.583,0-6.485-2.902-6.485-6.485h1.621c0,2.683,2.18,4.864,4.864,4.864s4.864-2.18,4.864-4.864S24.683,18.32,22,18.32
	v3.242l-4.053-4.053L22,13.457v3.242c3.583,0,6.485,2.902,6.485,6.485S25.583,29.669,22,29.669z"/>
</svg>
