<svg xmlns="http://www.w3.org/2000/svg" width="400" height="400" viewBox="0 0 400 400"><g fill="#FFF"><path d="M190.33 244.044c-4.514 0-8.196 3.635-8.196 8.173s3.705 8.196 8.197 8.196c2.2 0 4.284-.857 5.79-2.408 1.573-1.55 2.407-3.612 2.407-5.788 0-4.538-3.705-8.197-8.196-8.197v.024z"/><circle cx="189.382" cy="287.666" r="5.951"/><path d="M217.537 275.533c-5.742 0-10.42 4.63-10.42 10.373 0 5.742 4.7 10.42 10.42 10.42 2.778 0 5.418-1.112 7.41-3.08 1.944-1.968 3.01-4.584 3.01-7.34 0-5.72-4.678-10.42-10.42-10.42v.047zm-27.206-66.915c-4.514 0-8.196 3.705-8.196 8.22 0 4.515 3.705 8.196 8.197 8.196 2.2 0 4.284-.926 5.836-2.547 1.55-1.62 2.385-3.705 2.362-5.788 0-4.632-3.705-8.336-8.196-8.336v.254z"/><circle cx="218.185" cy="315.288" r="5.881"/><circle cx="217.537" cy="251.754" r="11.646"/><circle cx="217.537" cy="216.398" r="11.646"/><path d="M323.65 275.533c-5.74 0-10.418 4.63-10.418 10.373 0 5.742 4.677 10.42 10.42 10.42 2.778 0 5.394-1.112 7.362-3.08s3.01-4.584 3.01-7.34c0-5.72-4.63-10.42-10.373-10.42v.047zm0-35.425c-6.413 0-11.622 5.233-11.622 11.67 0 6.414 5.21 11.623 11.623 11.623 6.415 0 11.624-5.21 11.647-11.622 0-3.103-1.158-6.02-3.38-8.22-2.223-2.315-5.14-3.473-8.266-3.473v.023z"/><circle cx="323.929" cy="315.288" r="5.927"/><circle cx="288.295" cy="216.398" r="16.069"/><circle cx="350.163" cy="286.369" r="5.951"/><path d="M349.167 224.826c4.515 0 8.173-3.705 8.173-8.197s-3.705-8.197-8.197-8.197c-2.084 0-4.168.857-5.788 2.408-1.39 1.552-2.315 3.613-2.315 5.79 0 4.514 3.705 8.196 8.335 8.196h-.208z"/><circle cx="349.19" cy="250.967" r="8.196"/><path d="M323.65 204.752c-6.413 0-11.622 5.21-11.622 11.646 0 6.414 5.21 11.646 11.623 11.646 6.415 0 11.624-5.325 11.647-11.81 0-3.24-1.158-6.02-3.38-8.334-2.223-2.315-5.14-3.473-8.266-3.473v.325z"/><circle cx="252.916" cy="287.133" r="11.646"/><circle cx="252.916" cy="251.777" r="16.069"/><path d="M254.352 306.096c-4.515 0-8.196 3.705-8.196 8.22 0 4.515 3.705 8.196 8.196 8.196 2.2 0 4.26-.926 5.788-2.547 1.574-1.62 2.408-3.705 2.408-5.788 0-4.63-3.473-8.335-8.104-8.335l-.092.254z"/><circle cx="288.295" cy="287.133" r="11.646"/><circle cx="288.295" cy="251.777" r="16.069"/><circle cx="252.916" cy="216.398" r="16.069"/><path d="M288.226 306.096c-4.538 0-8.22 3.705-8.22 8.22 0 4.515 3.658 8.196 8.197 8.196 2.084 0 4.168-.926 5.788-2.547s2.316-3.705 2.316-5.788c0-4.63-3.705-8.335-8.335-8.335l.256.254z"/><circle cx="216.379" cy="108.246" r="10.396"/><path d="M189.174 171.48c-4.515 0-8.197 3.657-8.197 8.195s3.705 8.197 8.197 8.197c2.2 0 4.283-.857 5.788-2.408 1.574-1.55 2.408-3.612 2.408-5.788 0-4.515-3.705-8.197-8.196-8.197z"/><circle cx="188.201" cy="109.381" r="5.881"/><path d="M189.174 136.146c-4.515 0-8.197 3.658-8.197 8.173 0 4.514 3.705 8.195 8.197 8.195 2.2 0 4.283-.857 5.835-2.408 1.55-1.55 2.384-3.612 2.36-5.788 0-4.54-3.704-8.197-8.195-8.197v.023z"/><circle cx="251.735" cy="108.501" r="11.646"/><path d="M322.494 119.892c5.72 0 10.373-4.677 10.373-10.42 0-5.718-4.63-10.372-10.42-10.372-2.778 0-5.37 1.088-7.34 3.056-1.85 1.945-3.01 4.56-3.01 7.317 0 5.742 4.863 10.42 10.42 10.42h-.023z"/><circle cx="286.073" cy="82.939" r="8.196"/><circle cx="348.982" cy="108.084" r="5.881"/><circle cx="216.379" cy="179.236" r="11.646"/><path d="M216.055 87.87c3.242 0 5.88-2.64 5.88-5.903 0-3.242-2.64-5.88-5.88-5.88-1.574 0-3.056.624-4.168 1.736-1.11 1.158-1.713 2.778-1.713 4.168 0 3.243 2.547 6.02 5.788 6.02l.093-.14z"/><circle cx="252.198" cy="82.939" r="8.196"/><circle cx="287.115" cy="108.501" r="11.646"/><circle cx="321.799" cy="81.966" r="5.951"/><circle cx="216.379" cy="143.857" r="11.646"/><path d="M322.494 167.59c-6.437 0-11.646 5.21-11.646 11.645s5.21 11.81 11.623 11.81c6.253 0 11.578-5.095 11.578-11.578 0-3.01-1.158-6.02-3.473-8.104-2.315-2.084-5.094-3.473-8.335-3.473l.254-.3z"/><circle cx="287.115" cy="143.88" r="16.069"/><path d="M348.01 152.285c4.514 0 8.172-3.705 8.172-8.196 0-4.516-3.705-8.197-8.196-8.197-2.084 0-4.168.695-5.788 2.315-1.39 1.39-2.315 3.473-2.315 5.788 0 4.4 3.705 8.104 8.335 8.104l-.21.185z"/><circle cx="348.033" cy="178.426" r="8.196"/><path d="M322.494 132.21c-6.437 0-11.646 5.233-11.646 11.67s5.21 11.646 11.623 11.646c6.253 0 11.578-5.21 11.578-11.623 0-3.103-1.158-6.02-3.473-8.22-2.315-2.246-5.094-3.473-8.335-3.473h.254z"/><circle cx="251.735" cy="179.259" r="16.069"/><circle cx="287.115" cy="179.259" r="16.069"/><circle cx="251.735" cy="143.88" r="16.069"/><g><circle cx="268.971" cy="370.259" r="14.325"/><path d="M373.25 91.255h-.632V32.27c0-17.453-14.148-31.6-31.602-31.6H197.348c-17.454 0-31.602 14.146-31.602 31.6V54.6h-.633c-.35 0-.63.285-.63.635V71.24c0 .35.28.634.63.634h.633v19.38h-.633c-.35 0-.63.284-.63.632v30.337c0 .35.28.63.63.63h.633v7.164h-.633c-.35 0-.63.283-.63.63v30.338c0 .35.28.63.63.63h.633V367.73c0 17.452 14.148 31.6 31.602 31.6h143.668c17.454 0 31.602-14.147 31.602-31.6V122.855h.633c.35 0 .632-.283.632-.63V91.886c0-.35-.28-.632-.63-.632zm-103.857-79.21c1.163 0 2.107.944 2.107 2.108s-.943 2.107-2.107 2.107c-1.163 0-2.107-.943-2.107-2.107s.943-2.107 2.107-2.107zm-15.17 13.904h30.34c.93 0 1.682.754 1.682 1.684 0 .93-.754 1.685-1.683 1.685h-30.34c-.932 0-1.683-.756-1.683-1.686 0-.928.753-1.685 1.682-1.685zm-18.115-1.686c1.862 0 3.37 1.51 3.37 3.37s-1.508 3.372-3.37 3.372-3.37-1.51-3.37-3.37 1.508-3.372 3.37-3.372zM268.97 386.27c-8.84 0-16.01-7.17-16.01-16.01s7.17-16.01 16.01-16.01 16.01 7.167 16.01 16.01-7.166 16.01-16.01 16.01zm91.008-39.606H178.386V52.494H359.98v294.17z"/></g><g><path d="M166.117 295.64c-13.11 6.552-27.903 10.257-43.598 10.257-54.09 0-97.854-43.765-97.854-97.764 0-8.44 1.122-16.63 2.918-24.42h9.202c0 16.834 25.787 30.524 42.643 30.524 16.854 0 33.597-13.69 33.597-30.523h18.336c0 16.833 16.72 30.523 33.598 30.523.38 0 .77-.015 1.158-.03V159.25H37.57c16.85-29.19 48.48-48.87 84.668-48.88 15.763.004 30.676 3.756 43.88 10.404v-26.71c-13.63-5.25-28.434-8.137-43.913-8.137C54.717 85.93 0 140.647 0 208.134S54.717 330.34 122.205 330.34c15.48 0 30.283-2.887 43.912-8.138v-26.56z"/><path d="M166.117 242.777l-10.202-10.202c-5.61 8.753-18.628 15.037-33.89 15.037s-28.28-6.284-33.665-15.037l-17.326 17.35c10.997 13.218 29.782 22.128 51.17 22.128l-.18-.202c17.274 0 32.924-5.746 44.093-14.968v-14.105z"/></g></g></svg>