<?xml version="1.0" encoding="utf-8"?>
<!-- Generator: Adobe Illustrator 17.0.0, SVG Export Plug-In . SVG Version: 6.00 Build 0)  -->
<!DOCTYPE svg PUBLIC "-//W3C//DTD SVG 1.1//EN" "http://www.w3.org/Graphics/SVG/1.1/DTD/svg11.dtd">
<svg version="1.1" id="Layer_1" xmlns="http://www.w3.org/2000/svg" xmlns:xlink="http://www.w3.org/1999/xlink" x="0px" y="0px"
	 width="24px" height="24px" viewBox="0 0 24 24" enable-background="new 0 0 24 24" xml:space="preserve">
<path fill="#FFFFFF" d="M18.87,10.304c1.264,0,2.29,1.025,2.29,2.29v9.16c0,1.264-1.026,2.29-2.29,2.29H5.13
	c-1.264,0-2.29-1.026-2.29-2.29v-9.16c0-1.27,1.03-2.29,2.29-2.29h1.146v-4.58C6.276,2.564,8.84,0,12,0s5.724,2.563,5.724,5.724
	v4.58h1.145 M12,2.29c-1.897,0-3.435,1.538-3.435,3.435v4.58h6.87v-4.58C15.435,3.827,13.897,2.29,12,2.29z"/>
</svg>
