<?xml version="1.0" encoding="utf-8"?>
<!-- Generator: Adobe Illustrator 17.0.0, SVG Export Plug-In . SVG Version: 6.00 Build 0)  -->
<!DOCTYPE svg PUBLIC "-//W3C//DTD SVG 1.1//EN" "http://www.w3.org/Graphics/SVG/1.1/DTD/svg11.dtd">
<svg version="1.1" id="Layer_1" xmlns="http://www.w3.org/2000/svg" xmlns:xlink="http://www.w3.org/1999/xlink" x="0px" y="0px"
	 width="24px" height="24px" viewBox="0 0 24 24" enable-background="new 0 0 24 24" xml:space="preserve">
<g>
	<path fill="#FFFFFF" d="M18.254,5.829H7.9c-1.149,0-2.071,0.922-2.071,2.071v10.354H7.9V7.9h10.354V5.829z"/>
	<path fill="#FFFFFF" d="M14.113,1.688H3.758c-1.149,0-2.071,0.922-2.071,2.071v10.354h2.071V3.758h10.354V1.688z"/>
	<path fill="#FFFFFF" d="M20.325,9.971h-8.283c-1.149,0-2.071,0.921-2.071,2.071v8.283c0,1.149,0.921,2.071,2.071,2.071h8.283
		c1.149,0,2.071-0.922,2.071-2.071v-8.283C22.396,10.892,21.474,9.971,20.325,9.971z M14.15,19.893v-7.49l4.681,3.745L14.15,19.893z
		"/>
</g>
</svg>
