<?xml version="1.0" encoding="utf-8"?>
<!-- Generator: Adobe Illustrator 17.0.0, SVG Export Plug-In . SVG Version: 6.00 Build 0)  -->
<!DOCTYPE svg PUBLIC "-//W3C//DTD SVG 1.1//EN" "http://www.w3.org/Graphics/SVG/1.1/DTD/svg11.dtd">
<svg version="1.1" id="Layer_1" xmlns="http://www.w3.org/2000/svg" xmlns:xlink="http://www.w3.org/1999/xlink" x="0px" y="0px"
	 width="45.16px" height="45.16px" viewBox="0 0 45.16 45.16" enable-background="new 0 0 45.16 45.16" xml:space="preserve">
<path fill="#FFFFFF" d="M22.58,11.27c-6.237,0-11.31,5.074-11.31,11.31s5.073,11.313,11.31,11.313c6.236,0,11.31-5.074,11.31-11.312
	s-5.074-11.31-11.31-11.31L22.58,11.27z M22.58,7.944c-1.22,0-2.207-0.988-2.207-2.206v-3.53C20.373,0.988,21.36,0,22.58,0
	s2.207,0.988,2.207,2.207v3.53C24.787,6.957,23.797,7.944,22.58,7.944z M22.58,37.214c-1.22,0-2.207,0.99-2.207,2.208v3.53
	c0,1.22,0.988,2.208,2.207,2.208c1.22,0,2.207-0.988,2.207-2.208v-3.53C24.787,38.202,23.797,37.215,22.58,37.214L22.58,37.214z
	 M32.928,12.23c-0.86-0.86-0.86-2.258,0-3.12l2.497-2.497c0.86-0.86,2.26-0.86,3.12,0c0.863,0.862,0.863,2.26,0,3.12L36.05,12.23
	c-0.863,0.864-2.26,0.864-3.123,0H32.928z M12.23,32.93c-0.86-0.863-2.258-0.863-3.12,0l-2.497,2.496c-0.86,0.86-0.862,2.26,0,3.12
	c0.862,0.862,2.26,0.862,3.12,0l2.498-2.497c0.87-0.87,0.87-2.26,0-3.12L12.23,32.93z M37.215,22.58c0-1.22,0.988-2.207,2.207-2.207
	h3.53c1.22,0,2.208,0.988,2.208,2.207c0,1.22-0.988,2.206-2.207,2.206h-3.53C38.203,24.786,37.215,23.799,37.215,22.58z
	 M7.945,22.58c0-1.22-0.99-2.207-2.208-2.207h-3.53C0.987,20.373,0,21.36,0,22.58s0.988,2.206,2.207,2.206h3.53
	C6.957,24.786,7.944,23.799,7.945,22.58L7.945,22.58z M32.928,32.93c0.862-0.86,2.26-0.86,3.12,0l2.498,2.497
	c0.862,0.86,0.862,2.26,0,3.12s-2.26,0.86-3.12,0l-2.498-2.497C32.066,35.188,32.066,33.79,32.928,32.93z M12.23,12.23
	c0.863-0.86,0.863-2.258,0-3.12L9.735,6.614c-0.862-0.862-2.26-0.862-3.12,0c-0.863,0.86-0.863,2.26,0,3.12L9.11,12.23
	C9.972,13.094,11.37,13.094,12.23,12.23z"/>
</svg>
