<svg xmlns="http://www.w3.org/2000/svg" width="40" height="40" viewBox="0 0 40 40"><g fill="#FFF"><circle cx="14.139" cy="27.492" r="2.442"/><circle cx="25.861" cy="27.492" r="2.442"/><path d="M20 0C8.97 0 0 8.97 0 20s8.97 20 20 20 20-8.97 20-20S31.03 0 20 0zm-8.7 36.904c-3.59-2.685-5.923-6.99-5.923-11.842 0-5.39 2.91-10.058 7.186-12.635 1.366 2.972 4.157 6 8.02 8.24 5.03 2.926 10.374 3.652 13.844 2.255.102.707.207 1.41.207 2.145 0 4.837-2.32 9.126-5.888 11.815-2.62 1.36-5.59 2.14-8.745 2.14-3.138 0-6.09-.772-8.7-2.118z"/></g></svg>