<?xml version="1.0" encoding="utf-8"?>
<!-- Generator: Adobe Illustrator 17.0.0, SVG Export Plug-In . SVG Version: 6.00 Build 0)  -->
<!DOCTYPE svg PUBLIC "-//W3C//DTD SVG 1.1//EN" "http://www.w3.org/Graphics/SVG/1.1/DTD/svg11.dtd">
<svg version="1.1" id="Layer_1" xmlns="http://www.w3.org/2000/svg" xmlns:xlink="http://www.w3.org/1999/xlink" x="0px" y="0px"
	 width="400px" height="400px" viewBox="0 0 400 400" enable-background="new 0 0 400 400" xml:space="preserve">
<path fill="#FFFFFF" d="M301.567,226.641c37.872-10.249,62.233-26.25,62.233-44.229c0-30.935-72.121-56.013-161.086-56.013
	S41.629,151.477,41.629,182.412s77.767,56.107,166.733,56.107V216.88l79.523,39.021l-78.806,38.312l-0.008-19.129l0,0
	c-3.007,0.057-6.031,0.086-9.07,0.086c-110.457,0-200-37.917-200-84.691s89.543-84.691,200-84.691s200,37.917,200,84.691
	c0,22.524-20.764,42.994-54.629,58.165L301.567,226.641L301.567,226.641z"/>
</svg>
