<?xml version="1.0" encoding="utf-8"?>
<!-- Generator: Adobe Illustrator 17.0.0, SVG Export Plug-In . SVG Version: 6.00 Build 0)  -->
<!DOCTYPE svg PUBLIC "-//W3C//DTD SVG 1.1//EN" "http://www.w3.org/Graphics/SVG/1.1/DTD/svg11.dtd">
<svg version="1.1" id="Layer_1" xmlns="http://www.w3.org/2000/svg" xmlns:xlink="http://www.w3.org/1999/xlink" x="0px" y="0px"
	 width="48px" height="48px" viewBox="0 0 48 48" enable-background="new 0 0 48 48" xml:space="preserve">
<path fill="#FFFFFF" d="M40.067,0h-4.333l-6.933,19.5h4.116l1.517-4.333h6.932l1.517,4.333H47L40.067,0z M35.408,12.241L37.9,4.333
	l2.492,7.908H35.408z M6.229,24.356L26.001,0.491c0.133-0.133,0.291-0.208,0.474-0.225s0.341,0.033,0.474,0.15
	c0.216,0.183,0.283,0.408,0.2,0.674l-5.317,17.575l13.231,5.292L15.391,47.772c-0.116,0.133-0.27,0.208-0.462,0.225
	s-0.354-0.033-0.487-0.15c-0.216-0.2-0.283-0.424-0.2-0.674l5.317-17.6L6.229,24.356z"/>
</svg>
