<?xml version="1.0" encoding="utf-8"?>
<!-- Generator: Adobe Illustrator 17.0.0, SVG Export Plug-In . SVG Version: 6.00 Build 0)  -->
<!DOCTYPE svg PUBLIC "-//W3C//DTD SVG 1.1//EN" "http://www.w3.org/Graphics/SVG/1.1/DTD/svg11.dtd">
<svg version="1.1" id="Layer_1" xmlns="http://www.w3.org/2000/svg" xmlns:xlink="http://www.w3.org/1999/xlink" x="0px" y="0px"
	 width="24px" height="24px" viewBox="0 0 24 24" enable-background="new 0 0 24 24" xml:space="preserve">
<path d="M3,13.5c0,4.971,4.029,9,9,9C12,17.5,7.97,13.5,3,13.5 M12,6c1.381,0,2.5,1.119,2.5,2.5S13.381,11,12,11S9.5,9.881,9.5,8.5
	S10.619,6,12,6 M5.6,10.75c0,1.381,1.119,2.5,2.5,2.5l0,0c0.53,0,1.02-0.17,1.4-0.44c0,0.06,0,0.12,0,0.19
	c0,1.381,1.119,2.5,2.5,2.5s2.5-1.119,2.5-2.5c0-0.07,0-0.13,0-0.19c0.38,0.27,0.87,0.44,1.4,0.44c1.38,0,2.5-1.12,2.5-2.5
	c0-1-0.59-1.85-1.43-2.25c0.84-0.4,1.43-1.26,1.43-2.25c0-1.38-1.12-2.5-2.5-2.5c-0.53,0-1.02,0.16-1.4,0.44c0-0.06,0-0.13,0-0.19
	c0-1.381-1.119-2.5-2.5-2.5S9.5,2.619,9.5,4c0,0.06,0,0.13,0,0.19C9.12,3.91,8.63,3.75,8.1,3.75c-1.381,0-2.5,1.119-2.5,2.5l0,0
	c0,0.99,0.59,1.85,1.43,2.25C6.19,8.9,5.6,9.75,5.6,10.75 M12,22.5c4.971,0,9-4.029,9-9C16,13.5,12,17.5,12,22.5z"/>
</svg>
