<?xml version="1.0" encoding="utf-8"?>
<!-- Generator: Adobe Illustrator 17.0.0, SVG Export Plug-In . SVG Version: 6.00 Build 0)  -->
<!DOCTYPE svg PUBLIC "-//W3C//DTD SVG 1.1//EN" "http://www.w3.org/Graphics/SVG/1.1/DTD/svg11.dtd">
<svg version="1.1" id="Layer_1" xmlns="http://www.w3.org/2000/svg" xmlns:xlink="http://www.w3.org/1999/xlink" x="0px" y="0px"
	 width="408.483px" height="408.483px" viewBox="0 0 408.483 408.483" enable-background="new 0 0 408.483 408.483"
	 xml:space="preserve">
<g>
	<path fill="#FFFFFF" d="M204.671,318.236c-17.948,0-32.55,14.602-32.55,32.554c0,17.952,14.602,32.554,32.55,32.554
		c17.95,0,32.554-14.606,32.554-32.558C237.226,332.838,222.622,318.236,204.671,318.236z"/>
	<path fill="#FFFFFF" d="M204.671,171.723c-17.948,0-32.55,14.606-32.55,32.563c0,17.948,14.602,32.55,32.55,32.55
		c17.95,0,32.554-14.606,32.554-32.558S222.622,171.723,204.671,171.723z"/>
	<path fill="#FFFFFF" d="M204.671,25.218c-17.948,0-32.55,14.602-32.55,32.554s14.602,32.554,32.55,32.554
		c17.95,0,32.554-14.606,32.554-32.558C237.226,39.82,222.622,25.218,204.671,25.218z"/>
	<path fill="#FFFFFF" d="M58.162,171.727c-17.948,0-32.55,14.602-32.55,32.554c0,17.948,14.604,32.55,32.554,32.55
		c17.948,0,32.55-14.602,32.55-32.55C90.717,186.329,76.112,171.727,58.162,171.727z"/>
	<path fill="#FFFFFF" d="M351.18,171.727c-17.95,0-32.554,14.602-32.554,32.554c0,17.948,14.606,32.55,32.558,32.55
		c17.948,0,32.55-14.602,32.55-32.55C383.735,186.329,369.131,171.727,351.18,171.727z"/>
</g>
</svg>
