<?xml version="1.0" encoding="utf-8"?>
<!-- Generator: Adobe Illustrator 17.0.0, SVG Export Plug-In . SVG Version: 6.00 Build 0)  -->
<!DOCTYPE svg PUBLIC "-//W3C//DTD SVG 1.1//EN" "http://www.w3.org/Graphics/SVG/1.1/DTD/svg11.dtd">
<svg version="1.1" id="Layer_1" xmlns="http://www.w3.org/2000/svg" xmlns:xlink="http://www.w3.org/1999/xlink" x="0px" y="0px"
	 width="24px" height="24px" viewBox="0 0 24 24" enable-background="new 0 0 24 24" xml:space="preserve">
<path fill="#FFFFFF" d="M12.12,19.65L12,19.77l-0.132-0.12C6.168,14.478,2.4,11.058,2.4,7.59c0-2.4,1.8-4.2,4.2-4.2
	c1.848,0,3.648,1.2,4.284,2.832h2.232C13.752,4.59,15.552,3.39,17.4,3.39c2.4,0,4.2,1.8,4.2,4.2
	C21.6,11.058,17.832,14.478,12.12,19.65 M17.4,0.99c-2.088,0-4.092,0.972-5.4,2.496C10.692,1.962,8.688,0.99,6.6,0.99
	C2.904,0.99,0,3.882,0,7.59c0,4.524,4.08,8.232,10.26,13.836L12,23.01l1.74-1.584C19.92,15.822,24,12.114,24,7.59
	C24,3.882,21.096,0.99,17.4,0.99z"/>
</svg>
