<?xml version="1.0" encoding="utf-8"?>
<!-- Generator: Adobe Illustrator 17.0.0, SVG Export Plug-In . SVG Version: 6.00 Build 0)  -->
<!DOCTYPE svg PUBLIC "-//W3C//DTD SVG 1.1//EN" "http://www.w3.org/Graphics/SVG/1.1/DTD/svg11.dtd">
<svg version="1.1" id="Layer_1" xmlns="http://www.w3.org/2000/svg" xmlns:xlink="http://www.w3.org/1999/xlink" x="0px" y="0px"
	 width="20px" height="20px" viewBox="0 0 20 20" enable-background="new 0 0 20 20" xml:space="preserve">
<path fill="#FFFFFF" d="M13.143,11.442C13.2,10.966,13.244,10.49,13.244,10S13.2,9.034,13.143,8.558h2.436
	C15.695,9.02,15.767,9.503,15.767,10s-0.072,0.98-0.187,1.442 M11.867,15.45c0.432-0.8,0.764-1.665,0.995-2.566h2.126
	C14.296,14.073,13.193,14.995,11.867,15.45 M11.687,11.442H8.313C8.241,10.966,8.198,10.49,8.198,10s0.043-0.973,0.115-1.442h3.374
	C11.752,9.027,11.802,9.51,11.802,10S11.752,10.966,11.687,11.442 M10,15.738c-0.598-0.865-1.081-1.824-1.377-2.855h2.754
	C11.081,13.914,10.598,14.873,10,15.738 M7.117,7.117H5.012C5.697,5.92,6.807,4.997,8.126,4.55C7.693,5.351,7.369,6.216,7.117,7.117
	 M5.012,12.883h2.105c0.252,0.901,0.577,1.766,1.009,2.566C6.807,14.995,5.697,14.073,5.012,12.883 M4.421,11.442
	C4.305,10.98,4.233,10.497,4.233,10s0.072-0.98,0.187-1.442h2.436C6.799,9.034,6.756,9.51,6.756,10s0.043,0.966,0.101,1.442
	 M10,4.255c0.598,0.865,1.081,1.831,1.377,2.862H8.623C8.919,6.086,9.402,5.12,10,4.255 M14.988,7.117h-2.126
	c-0.231-0.901-0.562-1.766-0.995-2.566C13.193,5.005,14.296,5.92,14.988,7.117 M10,2.792c-3.986,0-7.208,3.244-7.208,7.208
	c0,3.981,3.227,7.208,7.208,7.208s7.208-3.227,7.208-7.208S13.981,2.792,10,2.792z"/>
</svg>
