<?xml version="1.0" encoding="utf-8"?>
<!-- Generator: Adobe Illustrator 17.0.0, SVG Export Plug-In . SVG Version: 6.00 Build 0)  -->
<!DOCTYPE svg PUBLIC "-//W3C//DTD SVG 1.1//EN" "http://www.w3.org/Graphics/SVG/1.1/DTD/svg11.dtd">
<svg version="1.1" id="Layer_1" xmlns="http://www.w3.org/2000/svg" xmlns:xlink="http://www.w3.org/1999/xlink" x="0px" y="0px"
	 width="24px" height="24px" viewBox="0 0 24 24" enable-background="new 0 0 24 24" xml:space="preserve">
<path fill="#FFFFFF" d="M21.656-0.062H2.406C1.077-0.062,0,1.015,0,2.344V24l4.812-4.812h16.844c1.329,0,2.406-1.077,2.406-2.406
	V2.344C24.062,1.015,22.985-0.062,21.656-0.062 M21.656,16.781H4.812l-2.406,2.406V2.344h19.25"/>
<path fill="#FFFFFF" d="M10.387,10.642c-1.29,0-3.87,0.645-3.87,1.935v1.29h7.741v-1.29C14.258,11.287,11.677,10.642,10.387,10.642
	 M14.658,10.745c0.535,0.464,0.89,1.071,0.89,1.832v1.29h1.935v-1.29C17.483,11.584,15.954,10.965,14.658,10.745 M10.387,9.352
	c1.069,0,1.935-0.866,1.935-1.935s-0.866-1.935-1.935-1.935S8.452,6.348,8.452,7.417S9.319,9.352,10.387,9.352 M13.613,9.352
	c1.069,0,1.935-0.866,1.935-1.935s-0.866-1.935-1.935-1.935c-0.206,0-0.406,0.032-0.593,0.09c0.368,0.522,0.593,1.161,0.593,1.845
	c0,0.684-0.226,1.316-0.593,1.838C13.206,9.32,13.406,9.352,13.613,9.352"/>
</svg>
