<?xml version="1.0" encoding="utf-8"?>
<!-- Generator: Adobe Illustrator 17.0.0, SVG Export Plug-In . SVG Version: 6.00 Build 0)  -->
<!DOCTYPE svg PUBLIC "-//W3C//DTD SVG 1.1//EN" "http://www.w3.org/Graphics/SVG/1.1/DTD/svg11.dtd">
<svg version="1.1" id="Layer_1" xmlns="http://www.w3.org/2000/svg" xmlns:xlink="http://www.w3.org/1999/xlink" x="0px" y="0px"
	 width="408.483px" height="408.483px" viewBox="0 0 408.483 408.483" enable-background="new 0 0 408.483 408.483"
	 xml:space="preserve">
<g>
	<path fill="#FFFFFF" d="M204.293,21.585c-100.92,0-183.023,82.106-183.023,183.026s82.103,183.023,183.023,183.023
		c100.921,0,183.026-82.103,183.026-183.023S305.214,21.585,204.293,21.585z M354.531,204.611
		c0,82.841-67.396,150.235-150.239,150.235c-82.839,0-150.235-67.394-150.235-150.235S121.453,54.372,204.293,54.372
		C287.135,54.372,354.531,121.77,354.531,204.611z"/>
	<path fill="#FFFFFF" d="M204.293,113.472c-50.252,0-91.135,40.883-91.135,91.138c0,50.252,40.883,91.135,91.135,91.135
		c50.254,0,91.138-40.883,91.138-91.135C295.431,154.355,254.547,113.472,204.293,113.472z M266.125,204.61
		c0,34.093-27.738,61.829-61.832,61.829c-34.093,0-61.829-27.736-61.829-61.829c0-34.096,27.736-61.832,61.829-61.832
		C238.387,142.778,266.125,170.514,266.125,204.61z"/>
</g>
</svg>
