<?xml version="1.0" encoding="utf-8"?>
<!-- Generator: Adobe Illustrator 17.0.0, SVG Export Plug-In . SVG Version: 6.00 Build 0)  -->
<!DOCTYPE svg PUBLIC "-//W3C//DTD SVG 1.1//EN" "http://www.w3.org/Graphics/SVG/1.1/DTD/svg11.dtd">
<svg version="1.1" id="Layer_1" xmlns="http://www.w3.org/2000/svg" xmlns:xlink="http://www.w3.org/1999/xlink" x="0px" y="0px"
	 width="48px" height="48px" viewBox="0 0 48 48" enable-background="new 0 0 48 48" xml:space="preserve">
<rect fill="#FFFFFF" width="48" height="48"/>
<g>
	<polygon points="0,0 0,3.005 3.005,0 	"/>
	<polygon points="5.73,0 0,5.73 0,8.816 8.816,0 	"/>
	<polygon points="11.554,0 0,11.554 0,14.639 14.639,0 	"/>
	<polygon points="17.377,0 0,17.377 0,20.463 20.463,0 	"/>
	<polygon points="40.658,0 0,40.659 0,43.745 43.744,0 	"/>
	<polygon points="34.848,0 0,34.848 0,37.934 37.934,0 	"/>
	<polygon points="48,0 46.469,0 0,46.469 0,48 1.555,48 48,1.555 	"/>
	<polygon points="23.201,0 0,23.201 0,26.287 26.286,0 	"/>
	<polygon points="29.011,0 0,29.011 0,32.097 32.097,0 	"/>
	<polygon points="48,33.359 33.358,48 36.444,48 48,36.445 	"/>
	<polygon points="48,27.549 27.548,48 30.634,48 48,30.634 	"/>
	<polygon points="39.195,48 42.281,48 48,42.281 48,39.195 	"/>
	<polygon points="48,4.267 4.267,48 7.353,48 48,7.353 	"/>
	<polygon points="48,48 48,45.006 45.005,48 	"/>
	<polygon points="48,10.091 10.09,48 13.176,48 48,13.177 	"/>
	<polygon points="48,21.725 21.724,48 24.81,48 48,24.81 	"/>
	<polygon points="48,15.901 15.901,48 18.986,48 48,18.987 	"/>
</g>
</svg>
