<?xml version="1.0" encoding="utf-8"?>
<!-- Generator: Adobe Illustrator 17.0.0, SVG Export Plug-In . SVG Version: 6.00 Build 0)  -->
<!DOCTYPE svg PUBLIC "-//W3C//DTD SVG 1.1//EN" "http://www.w3.org/Graphics/SVG/1.1/DTD/svg11.dtd">
<svg version="1.1" id="Layer_1" xmlns="http://www.w3.org/2000/svg" xmlns:xlink="http://www.w3.org/1999/xlink" x="0px" y="0px"
	 width="48px" height="48px" viewBox="0 0 48 48" enable-background="new 0 0 48 48" xml:space="preserve">
<rect fill="#FFFFFF" width="48" height="48"/>
<path d="M40.364,13.234l-0.386-0.703l-0.385,0.703l-0.705,0.385l0.705,0.385l0.385,0.704l0.386-0.704l0.705-0.385L40.364,13.234z
	 M38.782,14.616l-0.386-0.703l-0.386,0.703L37.306,15l0.705,0.385l0.386,0.704l0.386-0.704L39.487,15L38.782,14.616z M41.981,14.616
	l-0.386-0.703l-0.386,0.703L40.505,15l0.705,0.385l0.386,0.704l0.386-0.704L42.686,15L41.981,14.616z M36.78,12.53l-0.386,0.703
	l-0.705,0.385l0.705,0.385l0.386,0.704l0.385-0.704l0.705-0.385l-0.705-0.385L36.78,12.53z M33.58,12.53l-0.386,0.703l-0.705,0.385
	l0.705,0.385l0.386,0.704l0.386-0.704l0.705-0.385l-0.705-0.385L33.58,12.53z M35.197,13.912l-0.386,0.703L34.107,15l0.705,0.385
	l0.386,0.704l0.386-0.704L36.288,15l-0.705-0.385L35.197,13.912z M41.981,29.61l-0.386-0.703L41.21,29.61l-0.705,0.385l0.705,0.385
	l0.386,0.704l0.386-0.704l0.705-0.385L41.981,29.61z M43.563,13.234l-0.385-0.703l-0.386,0.703l-0.705,0.385l0.705,0.385
	l0.386,0.704l0.385-0.704l0.705-0.385L43.563,13.234z M45.181,29.61l-0.386-0.703L44.41,29.61l-0.705,0.385l0.705,0.385l0.386,0.704
	l0.386-0.704l0.705-0.385L45.181,29.61z M46.763,31.227l-0.386-0.703l-0.386,0.703l-0.705,0.385l0.705,0.385l0.386,0.704
	l0.386-0.704l0.705-0.385L46.763,31.227z M43.563,31.227l-0.385-0.703l-0.386,0.703l-0.705,0.385l0.705,0.385l0.386,0.704
	l0.385-0.704l0.705-0.385L43.563,31.227z M45.181,14.616l-0.386-0.703l-0.386,0.703L43.705,15l0.705,0.385l0.386,0.704l0.386-0.704
	L45.886,15L45.181,14.616z M46.763,13.234l-0.386-0.703l-0.386,0.703l-0.705,0.385l0.705,0.385l0.386,0.704l0.386-0.704l0.705-0.385
	L46.763,13.234z M47.609,14.616L46.904,15l0.705,0.385l0.385,0.704L48,16.078v-2.155l-0.006-0.01L47.609,14.616z M47.609,29.61
	l-0.705,0.385l0.705,0.385l0.385,0.704L48,31.073v-2.156l-0.006-0.01L47.609,29.61z M31.998,13.912l-0.386,0.703L30.908,15
	l0.705,0.385l0.386,0.704l0.385-0.704L33.089,15l-0.705-0.385L31.998,13.912z M14.385,12.53l-0.386,0.703l-0.705,0.385l0.705,0.385
	l0.386,0.704l0.385-0.704l0.705-0.385l-0.705-0.385L14.385,12.53z M17.584,12.53l-0.386,0.703l-0.705,0.385l0.705,0.385l0.386,0.704
	l0.386-0.704l0.705-0.385l-0.705-0.385L17.584,12.53z M12.803,13.912l-0.386,0.703L11.712,15l0.705,0.385l0.386,0.704l0.385-0.704
	L13.893,15l-0.705-0.385L12.803,13.912z M16.002,13.912l-0.386,0.703L14.911,15l0.705,0.385l0.386,0.704l0.385-0.704L17.092,15
	l-0.705-0.385L16.002,13.912z M7.986,12.53l-0.385,0.703l-0.705,0.385l0.705,0.385l0.385,0.704l0.385-0.704l0.705-0.385
	l-0.705-0.385L7.986,12.53z M9.604,13.912l-0.386,0.703L8.513,15l0.705,0.385l0.386,0.704l0.385-0.704L10.694,15l-0.705-0.385
	L9.604,13.912z M11.186,12.53L10.8,13.234l-0.705,0.385l0.705,0.385l0.386,0.704l0.386-0.704l0.705-0.385l-0.705-0.385L11.186,12.53
	z M23.983,12.53l-0.386,0.703l-0.705,0.385l0.705,0.385l0.386,0.704l0.385-0.704l0.705-0.385l-0.705-0.385L23.983,12.53z
	 M27.182,12.53l-0.386,0.703l-0.705,0.385l0.705,0.385l0.386,0.704l0.385-0.704l0.705-0.385l-0.705-0.385L27.182,12.53z
	 M28.799,13.912l-0.386,0.703L27.708,15l0.705,0.385l0.386,0.704l0.385-0.704L29.889,15l-0.705-0.385L28.799,13.912z M25.6,13.912
	l-0.385,0.703L24.509,15l0.705,0.385l0.385,0.704l0.385-0.704L26.69,15l-0.705-0.385L25.6,13.912z M30.381,12.53l-0.386,0.703
	l-0.705,0.385l0.705,0.385l0.386,0.704l0.386-0.704l0.705-0.385l-0.705-0.385L30.381,12.53z M20.783,12.53l-0.385,0.703
	l-0.705,0.385l0.705,0.385l0.385,0.704l0.386-0.704l0.705-0.385l-0.705-0.385L20.783,12.53z M22.4,13.912l-0.386,0.703L21.31,15
	l0.705,0.385l0.386,0.704l0.386-0.704L23.491,15l-0.705-0.385L22.4,13.912z M19.201,13.912l-0.385,0.703L18.111,15l0.705,0.385
	l0.385,0.704l0.386-0.704L20.292,15l-0.705-0.385L19.201,13.912z M20.783,32.7l0.386-0.704l0.705-0.385l-0.705-0.385l-0.386-0.703
	l-0.385,0.703l-0.705,0.385l0.705,0.385L20.783,32.7z M39.979,32.7l0.386-0.704l0.705-0.385l-0.705-0.385l-0.386-0.703l-0.385,0.703
	l-0.705,0.385l0.705,0.385L39.979,32.7z M6.019,30.38l0.386,0.704L6.79,30.38l0.705-0.385L6.79,29.61l-0.386-0.703L6.019,29.61
	l-0.705,0.385L6.019,30.38z M4.402,31.997L4.787,32.7l0.386-0.704l0.705-0.385l-0.705-0.385l-0.386-0.703l-0.385,0.703l-0.705,0.385
	L4.402,31.997z M12.803,31.083l0.385-0.704l0.705-0.385l-0.705-0.385l-0.385-0.703l-0.386,0.703l-0.705,0.385l0.705,0.385
	L12.803,31.083z M2.82,30.38l0.386,0.704l0.385-0.704l0.705-0.385L3.591,29.61l-0.385-0.703L2.82,29.61l-0.705,0.385L2.82,30.38z
	 M9.218,30.38l0.386,0.704l0.385-0.704l0.705-0.385L9.989,29.61l-0.385-0.703L9.218,29.61l-0.705,0.385L9.218,30.38z M11.186,32.7
	l0.386-0.704l0.705-0.385l-0.705-0.385l-0.386-0.703L10.8,31.227l-0.705,0.385l0.705,0.385L11.186,32.7z M1.202,25.999l0.385,0.703
	l0.386-0.703l0.705-0.385L1.973,25.23l-0.386-0.703L1.202,25.23l-0.705,0.385L1.202,25.999z M1.202,20.001l0.385,0.704l0.386-0.704
	l0.705-0.385l-0.705-0.385l-0.386-0.703l-0.385,0.703l-0.705,0.385L1.202,20.001z M1.202,17.002l0.385,0.703l0.386-0.703
	l0.705-0.385l-0.705-0.385L1.588,15.53l-0.385,0.703l-0.705,0.385L1.202,17.002z M2.82,18.384l0.386,0.703l0.385-0.703l0.705-0.385
	l-0.705-0.385l-0.385-0.704L2.82,17.614l-0.705,0.385L2.82,18.384z M1.202,23l0.385,0.703L1.973,23l0.705-0.385l-0.705-0.385
	l-0.386-0.703l-0.385,0.703l-0.705,0.385L1.202,23z M1.202,28.998l0.385,0.704l0.386-0.704l0.705-0.385l-0.705-0.385l-0.386-0.703
	l-0.385,0.703l-0.705,0.385L1.202,28.998z M1.202,31.997L1.588,32.7l0.386-0.704l0.705-0.385l-0.705-0.385l-0.386-0.703
	l-0.385,0.703l-0.705,0.385L1.202,31.997z M14.385,32.7l0.385-0.704l0.705-0.385l-0.705-0.385l-0.385-0.703l-0.386,0.703
	l-0.705,0.385l0.705,0.385L14.385,32.7z M7.601,31.997L7.986,32.7l0.385-0.704l0.705-0.385l-0.705-0.385l-0.385-0.703l-0.385,0.703
	l-0.705,0.385L7.601,31.997z M33.58,32.7l0.386-0.704l0.705-0.385l-0.705-0.385l-0.386-0.703l-0.386,0.703l-0.705,0.385l0.705,0.385
	L33.58,32.7z M28.799,31.083l0.385-0.704l0.705-0.385l-0.705-0.385l-0.385-0.703l-0.386,0.703l-0.705,0.385l0.705,0.385
	L28.799,31.083z M30.381,32.7l0.386-0.704l0.705-0.385l-0.705-0.385l-0.386-0.703l-0.386,0.703l-0.705,0.385l0.705,0.385
	L30.381,32.7z M31.998,31.083l0.385-0.704l0.705-0.385l-0.705-0.385l-0.385-0.703l-0.386,0.703l-0.705,0.385l0.705,0.385
	L31.998,31.083z M38.397,31.083l0.386-0.704l0.705-0.385l-0.705-0.385l-0.386-0.703l-0.386,0.703l-0.705,0.385l0.705,0.385
	L38.397,31.083z M35.197,31.083l0.386-0.704l0.705-0.385l-0.705-0.385l-0.386-0.703l-0.386,0.703l-0.705,0.385l0.705,0.385
	L35.197,31.083z M36.78,32.7l0.385-0.704l0.705-0.385l-0.705-0.385l-0.385-0.703l-0.386,0.703l-0.705,0.385l0.705,0.385L36.78,32.7z
	 M17.584,32.7l0.386-0.704l0.705-0.385l-0.705-0.385l-0.386-0.703l-0.386,0.703l-0.705,0.385l0.705,0.385L17.584,32.7z M27.182,32.7
	l0.385-0.704l0.705-0.385l-0.705-0.385l-0.385-0.703l-0.386,0.703l-0.705,0.385l0.705,0.385L27.182,32.7z M16.002,31.083
	l0.385-0.704l0.705-0.385l-0.705-0.385l-0.385-0.703l-0.386,0.703l-0.705,0.385l0.705,0.385L16.002,31.083z M6.019,15.385
	l0.386,0.704l0.386-0.704L7.495,15L6.79,14.616l-0.386-0.703l-0.386,0.703L5.314,15L6.019,15.385z M19.201,31.083l0.386-0.704
	l0.705-0.385l-0.705-0.385l-0.386-0.703l-0.385,0.703l-0.705,0.385l0.705,0.385L19.201,31.083z M25.6,31.083l0.385-0.704
	l0.705-0.385l-0.705-0.385L25.6,28.907l-0.385,0.703l-0.705,0.385l0.705,0.385L25.6,31.083z M22.4,31.083l0.386-0.704l0.705-0.385
	l-0.705-0.385L22.4,28.907l-0.386,0.703l-0.705,0.385l0.705,0.385L22.4,31.083z M23.983,32.7l0.385-0.704l0.705-0.385l-0.705-0.385
	l-0.385-0.703l-0.386,0.703l-0.705,0.385l0.705,0.385L23.983,32.7z M45.181,32.609l-0.386-0.704l-0.386,0.704l-0.705,0.385
	l0.705,0.385l0.386,0.703l0.386-0.703l0.705-0.385L45.181,32.609z M36.78,9.532l-0.386,0.703l-0.705,0.385l0.705,0.385l0.386,0.704
	l0.385-0.704l0.705-0.385l-0.705-0.385L36.78,9.532z M43.563,10.235l-0.385-0.703l-0.386,0.703l-0.705,0.385l0.705,0.385
	l0.386,0.704l0.385-0.704l0.705-0.385L43.563,10.235z M46.763,10.235l-0.386-0.703l-0.386,0.703l-0.705,0.385l0.705,0.385
	l0.386,0.704l0.386-0.704l0.705-0.385L46.763,10.235z M39.979,9.532l-0.385,0.703l-0.705,0.385l0.705,0.385l0.385,0.704l0.386-0.704
	l0.705-0.385l-0.705-0.385L39.979,9.532z M38.397,10.913l-0.386,0.704l-0.705,0.385l0.705,0.385l0.386,0.703l0.386-0.703
	l0.705-0.385l-0.705-0.385L38.397,10.913z M41.981,11.617l-0.386-0.704l-0.386,0.704l-0.705,0.385l0.705,0.385l0.386,0.703
	l0.386-0.703l0.705-0.385L41.981,11.617z M47.609,11.617l-0.705,0.385l0.705,0.385l0.385,0.703L48,13.079v-2.155l-0.006-0.01
	L47.609,11.617z M45.181,11.617l-0.386-0.704l-0.386,0.704l-0.705,0.385l0.705,0.385l0.386,0.703l0.386-0.703l0.705-0.385
	L45.181,11.617z M39.979,35.699l0.386-0.704l0.705-0.385l-0.705-0.385l-0.386-0.703l-0.385,0.703l-0.705,0.385l0.705,0.385
	L39.979,35.699z M38.397,34.082l0.386-0.703l0.705-0.385l-0.705-0.385l-0.386-0.704l-0.386,0.704l-0.705,0.385l0.705,0.385
	L38.397,34.082z M47.609,32.609l-0.705,0.385l0.705,0.385l0.385,0.703L48,34.072v-2.155l-0.006-0.01L47.609,32.609z M41.981,32.609
	l-0.386-0.704l-0.386,0.704l-0.705,0.385l0.705,0.385l0.386,0.703l0.386-0.703l0.705-0.385L41.981,32.609z M46.763,34.226
	l-0.386-0.703l-0.386,0.703l-0.705,0.385l0.705,0.385l0.386,0.704l0.386-0.704l0.705-0.385L46.763,34.226z M4.402,17.002
	l0.385,0.703l0.386-0.703l0.705-0.385l-0.705-0.385L4.787,15.53l-0.385,0.703l-0.705,0.385L4.402,17.002z M43.563,34.226
	l-0.385-0.703l-0.386,0.703l-0.705,0.385l0.705,0.385l0.386,0.704l0.385-0.704l0.705-0.385L43.563,34.226z M23.983,9.532
	l-0.386,0.703l-0.705,0.385l0.705,0.385l0.386,0.704l0.385-0.704l0.705-0.385l-0.705-0.385L23.983,9.532z M22.4,10.913l-0.386,0.704
	l-0.705,0.385l0.705,0.385L22.4,13.09l0.386-0.703l0.705-0.385l-0.705-0.385L22.4,10.913z M20.783,9.532l-0.385,0.703l-0.705,0.385
	l0.705,0.385l0.385,0.704l0.386-0.704l0.705-0.385l-0.705-0.385L20.783,9.532z M17.584,9.532l-0.386,0.703l-0.705,0.385l0.705,0.385
	l0.386,0.704l0.386-0.704l0.705-0.385l-0.705-0.385L17.584,9.532z M19.201,10.913l-0.385,0.704l-0.705,0.385l0.705,0.385
	l0.385,0.703l0.386-0.703l0.705-0.385l-0.705-0.385L19.201,10.913z M16.002,10.913l-0.386,0.704l-0.705,0.385l0.705,0.385
	l0.386,0.703l0.385-0.703l0.705-0.385l-0.705-0.385L16.002,10.913z M12.803,10.913l-0.386,0.704l-0.705,0.385l0.705,0.385
	l0.386,0.703l0.385-0.703l0.705-0.385l-0.705-0.385L12.803,10.913z M14.385,9.532l-0.386,0.703l-0.705,0.385l0.705,0.385
	l0.386,0.704l0.385-0.704l0.705-0.385l-0.705-0.385L14.385,9.532z M4.402,14.003l0.385,0.704l0.386-0.704l0.705-0.385l-0.705-0.385
	L4.787,12.53l-0.385,0.703l-0.705,0.385L4.402,14.003z M36.78,35.699l0.385-0.704l0.705-0.385l-0.705-0.385l-0.385-0.703
	l-0.386,0.703l-0.705,0.385l0.705,0.385L36.78,35.699z M33.58,9.532l-0.386,0.703L32.49,10.62l0.705,0.385l0.386,0.704l0.386-0.704
	l0.705-0.385l-0.705-0.385L33.58,9.532z M35.197,10.913l-0.386,0.704l-0.705,0.385l0.705,0.385l0.386,0.703l0.386-0.703l0.705-0.385
	l-0.705-0.385L35.197,10.913z M31.998,10.913l-0.386,0.704l-0.705,0.385l0.705,0.385l0.386,0.703l0.385-0.703l0.705-0.385
	l-0.705-0.385L31.998,10.913z M28.799,10.913l-0.386,0.704l-0.705,0.385l0.705,0.385l0.386,0.703l0.385-0.703l0.705-0.385
	l-0.705-0.385L28.799,10.913z M25.6,10.913l-0.385,0.704l-0.705,0.385l0.705,0.385L25.6,13.09l0.385-0.703l0.705-0.385l-0.705-0.385
	L25.6,10.913z M27.182,9.532l-0.386,0.703l-0.705,0.385l0.705,0.385l0.386,0.704l0.385-0.704l0.705-0.385l-0.705-0.385L27.182,9.532
	z M30.381,9.532l-0.386,0.703l-0.705,0.385l0.705,0.385l0.386,0.704l0.386-0.704l0.705-0.385l-0.705-0.385L30.381,9.532z
	 M1.202,34.996l0.385,0.704l0.386-0.704l0.705-0.385l-0.705-0.385l-0.386-0.703l-0.385,0.703l-0.705,0.385L1.202,34.996z
	 M2.82,33.379l0.386,0.703l0.385-0.703l0.705-0.385l-0.705-0.385l-0.385-0.704L2.82,32.609l-0.705,0.385L2.82,33.379z M0.391,30.38
	l0.705-0.385L0.391,29.61l-0.386-0.703L0,28.917v2.155l0.006,0.011L0.391,30.38z M0.391,33.379l0.705-0.385l-0.705-0.385
	l-0.386-0.704L0,31.916v2.155l0.006,0.011L0.391,33.379z M7.986,35.699l0.385-0.704l0.705-0.385l-0.705-0.385l-0.385-0.703
	l-0.385,0.703l-0.705,0.385l0.705,0.385L7.986,35.699z M4.402,34.996l0.385,0.704l0.386-0.704l0.705-0.385l-0.705-0.385
	l-0.386-0.703l-0.385,0.703l-0.705,0.385L4.402,34.996z M6.019,33.379l0.386,0.703l0.386-0.703l0.705-0.385L6.79,32.609
	l-0.386-0.704l-0.386,0.704l-0.705,0.385L6.019,33.379z M0.391,18.384l0.705-0.385l-0.705-0.385l-0.386-0.704L0,16.922v2.155
	l0.006,0.01L0.391,18.384z M0.391,27.381l0.705-0.385l-0.705-0.385l-0.386-0.704L0,25.919v2.155l0.006,0.01L0.391,27.381z
	 M2.82,15.385l0.386,0.704l0.385-0.704L4.296,15l-0.705-0.385l-0.385-0.703L2.82,14.616L2.115,15L2.82,15.385z M0.391,15.385
	L1.096,15l-0.705-0.385l-0.386-0.703L0,13.923v2.155l0.006,0.011L0.391,15.385z M1.202,14.003l0.385,0.704l0.386-0.704l0.705-0.385
	l-0.705-0.385L1.588,12.53l-0.385,0.703l-0.705,0.385L1.202,14.003z M0.391,24.382l0.705-0.385l-0.705-0.385l-0.386-0.703L0,22.92
	v2.155l0.006,0.011L0.391,24.382z M9.604,34.082l0.385-0.703l0.705-0.385l-0.705-0.385l-0.385-0.704l-0.386,0.704l-0.705,0.385
	l0.705,0.385L9.604,34.082z M0.391,21.383l0.705-0.385l-0.705-0.385L0.006,19.91L0,19.921v2.155l0.006,0.011L0.391,21.383z
	 M19.201,34.082l0.386-0.703l0.705-0.385l-0.705-0.385l-0.386-0.704l-0.385,0.704l-0.705,0.385l0.705,0.385L19.201,34.082z
	 M27.182,35.699l0.385-0.704l0.705-0.385l-0.705-0.385l-0.385-0.703l-0.386,0.703l-0.705,0.385l0.705,0.385L27.182,35.699z
	 M28.799,34.082l0.385-0.703l0.705-0.385l-0.705-0.385l-0.385-0.704l-0.386,0.704l-0.705,0.385l0.705,0.385L28.799,34.082z
	 M25.6,34.082l0.385-0.703l0.705-0.385l-0.705-0.385L25.6,31.906l-0.385,0.704l-0.705,0.385l0.705,0.385L25.6,34.082z
	 M30.381,35.699l0.386-0.704l0.705-0.385l-0.705-0.385l-0.386-0.703l-0.386,0.703l-0.705,0.385l0.705,0.385L30.381,35.699z
	 M33.58,35.699l0.386-0.704l0.705-0.385l-0.705-0.385l-0.386-0.703l-0.386,0.703l-0.705,0.385l0.705,0.385L33.58,35.699z
	 M31.998,34.082l0.385-0.703l0.705-0.385l-0.705-0.385l-0.385-0.704l-0.386,0.704l-0.705,0.385l0.705,0.385L31.998,34.082z
	 M23.983,35.699l0.385-0.704l0.705-0.385l-0.705-0.385l-0.385-0.703l-0.386,0.703l-0.705,0.385l0.705,0.385L23.983,35.699z
	 M14.385,35.699l0.385-0.704l0.705-0.385l-0.705-0.385l-0.385-0.703l-0.386,0.703l-0.705,0.385l0.705,0.385L14.385,35.699z
	 M11.186,35.699l0.386-0.704l0.705-0.385l-0.705-0.385l-0.386-0.703L10.8,34.226l-0.705,0.385l0.705,0.385L11.186,35.699z
	 M16.002,34.082l0.385-0.703l0.705-0.385l-0.705-0.385l-0.385-0.704l-0.386,0.704l-0.705,0.385l0.705,0.385L16.002,34.082z
	 M12.803,34.082l0.385-0.703l0.705-0.385l-0.705-0.385l-0.385-0.704l-0.386,0.704l-0.705,0.385l0.705,0.385L12.803,34.082z
	 M35.197,34.082l0.386-0.703l0.705-0.385l-0.705-0.385l-0.386-0.704l-0.386,0.704l-0.705,0.385l0.705,0.385L35.197,34.082z
	 M20.783,35.699l0.386-0.704l0.705-0.385l-0.705-0.385l-0.386-0.703l-0.385,0.703l-0.705,0.385l0.705,0.385L20.783,35.699z
	 M22.4,34.082l0.386-0.703l0.705-0.385l-0.705-0.385L22.4,31.906l-0.386,0.704l-0.705,0.385l0.705,0.385L22.4,34.082z
	 M17.584,35.699l0.386-0.704l0.705-0.385l-0.705-0.385l-0.386-0.703l-0.386,0.703l-0.705,0.385l0.705,0.385L17.584,35.699z
	 M19.201,19.91l-0.385,0.703l-0.705,0.385l0.705,0.385l0.385,0.703l0.386-0.703l0.705-0.385l-0.705-0.385L19.201,19.91z
	 M47.609,23.612l-0.705,0.385l0.705,0.385l0.385,0.704L48,25.075V22.92l-0.006-0.01L47.609,23.612z M47.609,20.613l-0.705,0.385
	l0.705,0.385l0.385,0.703L48,22.076v-2.155l-0.006-0.01L47.609,20.613z M46.763,25.23l-0.386-0.703l-0.386,0.703l-0.705,0.385
	l0.705,0.385l0.386,0.703l0.386-0.703l0.705-0.385L46.763,25.23z M45.181,20.613l-0.386-0.703l-0.386,0.703l-0.705,0.385
	l0.705,0.385l0.386,0.703l0.386-0.703l0.705-0.385L45.181,20.613z M43.563,19.232l-0.385-0.703l-0.386,0.703l-0.705,0.385
	l0.705,0.385l0.386,0.704l0.385-0.704l0.705-0.385L43.563,19.232z M46.763,19.232l-0.386-0.703l-0.386,0.703l-0.705,0.385
	l0.705,0.385l0.386,0.704l0.386-0.704l0.705-0.385L46.763,19.232z M46.763,22.231l-0.386-0.703l-0.386,0.703l-0.705,0.385L45.992,23
	l0.386,0.703L46.763,23l0.705-0.385L46.763,22.231z M41.981,23.612l-0.386-0.703l-0.386,0.703l-0.705,0.385l0.705,0.385l0.386,0.704
	l0.386-0.704l0.705-0.385L41.981,23.612z M40.364,22.231l-0.386-0.703l-0.385,0.703l-0.705,0.385L39.593,23l0.385,0.703L40.364,23
	l0.705-0.385L40.364,22.231z M40.364,25.23l-0.386-0.703l-0.385,0.703l-0.705,0.385l0.705,0.385l0.385,0.703l0.386-0.703
	l0.705-0.385L40.364,25.23z M38.782,23.612l-0.386-0.703l-0.386,0.703l-0.705,0.385l0.705,0.385l0.386,0.704l0.386-0.704
	l0.705-0.385L38.782,23.612z M45.181,23.612l-0.386-0.703l-0.386,0.703l-0.705,0.385l0.705,0.385l0.386,0.704l0.386-0.704
	l0.705-0.385L45.181,23.612z M43.563,25.23l-0.385-0.703l-0.386,0.703l-0.705,0.385l0.705,0.385l0.386,0.703l0.385-0.703
	l0.705-0.385L43.563,25.23z M43.563,22.231l-0.385-0.703l-0.386,0.703l-0.705,0.385L42.792,23l0.386,0.703L43.563,23l0.705-0.385
	L43.563,22.231z M41.981,20.613l-0.386-0.703l-0.386,0.703l-0.705,0.385l0.705,0.385l0.386,0.703l0.386-0.703l0.705-0.385
	L41.981,20.613z M27.182,18.528l-0.386,0.703l-0.705,0.385l0.705,0.385l0.386,0.704l0.385-0.704l0.705-0.385l-0.705-0.385
	L27.182,18.528z M23.983,18.528l-0.386,0.703l-0.705,0.385l0.705,0.385l0.386,0.704l0.385-0.704l0.705-0.385l-0.705-0.385
	L23.983,18.528z M25.6,19.91l-0.385,0.703l-0.705,0.385l0.705,0.385l0.385,0.703l0.385-0.703l0.705-0.385l-0.705-0.385L25.6,19.91z
	 M22.4,19.91l-0.386,0.703l-0.705,0.385l0.705,0.385l0.386,0.703l0.386-0.703l0.705-0.385l-0.705-0.385L22.4,19.91z M36.78,26.703
	l0.385-0.703l0.705-0.385l-0.705-0.385l-0.385-0.703l-0.386,0.703l-0.705,0.385l0.705,0.385L36.78,26.703z M17.584,18.528
	l-0.386,0.703l-0.705,0.385l0.705,0.385l0.386,0.704l0.386-0.704l0.705-0.385l-0.705-0.385L17.584,18.528z M20.783,18.528
	l-0.385,0.703l-0.705,0.385l0.705,0.385l0.385,0.704l0.386-0.704l0.705-0.385l-0.705-0.385L20.783,18.528z M11.186,9.532
	L10.8,10.235l-0.705,0.385l0.705,0.385l0.386,0.704l0.386-0.704l0.705-0.385l-0.705-0.385L11.186,9.532z M16.002,19.91l-0.386,0.703
	l-0.705,0.385l0.705,0.385l0.386,0.703l0.385-0.703l0.705-0.385l-0.705-0.385L16.002,19.91z M35.583,20.613l-0.386-0.703
	l-0.386,0.703l-0.705,0.385l0.705,0.385l0.386,0.703l0.386-0.703l0.705-0.385L35.583,20.613z M28.799,19.91l-0.386,0.703
	l-0.705,0.385l0.705,0.385l0.386,0.703l0.385-0.703l0.705-0.385l-0.705-0.385L28.799,19.91z M38.782,20.613l-0.386-0.703
	l-0.386,0.703l-0.705,0.385l0.705,0.385l0.386,0.703l0.386-0.703l0.705-0.385L38.782,20.613z M37.165,19.232l-0.385-0.703
	l-0.386,0.703l-0.705,0.385l0.705,0.385l0.386,0.704l0.385-0.704l0.705-0.385L37.165,19.232z M30.381,18.528l-0.386,0.703
	l-0.705,0.385l0.705,0.385l0.386,0.704l0.386-0.704l0.705-0.385l-0.705-0.385L30.381,18.528z M6.019,18.384l0.386,0.703l0.386-0.703
	l0.705-0.385L6.79,17.614l-0.386-0.704l-0.386,0.704l-0.705,0.385L6.019,18.384z M40.364,19.232l-0.386-0.703l-0.385,0.703
	l-0.705,0.385l0.705,0.385l0.385,0.704l0.386-0.704l0.705-0.385L40.364,19.232z M33.58,18.528l-0.386,0.703l-0.705,0.385
	l0.705,0.385l0.386,0.704l0.386-0.704l0.705-0.385l-0.705-0.385L33.58,18.528z M14.385,26.703l0.385-0.703l0.705-0.385L14.77,25.23
	l-0.385-0.703l-0.386,0.703l-0.705,0.385l0.705,0.385L14.385,26.703z M14.385,21.527l-0.386,0.703l-0.705,0.385L13.999,23
	l0.386,0.703L14.77,23l0.705-0.385l-0.705-0.385L14.385,21.527z M12.803,22.909l-0.386,0.703l-0.705,0.385l0.705,0.385l0.386,0.704
	l0.385-0.704l0.705-0.385l-0.705-0.385L12.803,22.909z M16.002,22.909l-0.386,0.703l-0.705,0.385l0.705,0.385l0.386,0.704
	l0.385-0.704l0.705-0.385l-0.705-0.385L16.002,22.909z M17.584,26.703l0.386-0.703l0.705-0.385L17.97,25.23l-0.386-0.703
	l-0.386,0.703l-0.705,0.385l0.705,0.385L17.584,26.703z M10.8,25.999l0.386,0.703l0.386-0.703l0.705-0.385l-0.705-0.385
	l-0.386-0.703L10.8,25.23l-0.705,0.385L10.8,25.999z M17.584,21.527l-0.386,0.703l-0.705,0.385L17.199,23l0.386,0.703L17.97,23
	l0.705-0.385l-0.705-0.385L17.584,21.527z M4.402,23l0.385,0.703L5.173,23l0.705-0.385l-0.705-0.385l-0.386-0.703l-0.385,0.703
	l-0.705,0.385L4.402,23z M19.201,22.909l-0.385,0.703l-0.705,0.385l0.705,0.385l0.385,0.704l0.386-0.704l0.705-0.385l-0.705-0.385
	L19.201,22.909z M11.186,21.527L10.8,22.231l-0.705,0.385L10.8,23l0.386,0.703L11.571,23l0.705-0.385l-0.705-0.385L11.186,21.527z
	 M6.019,24.382l0.386,0.704l0.386-0.704l0.705-0.385L6.79,23.612l-0.386-0.703l-0.386,0.703l-0.705,0.385L6.019,24.382z
	 M4.402,25.999l0.385,0.703l0.386-0.703l0.705-0.385L5.173,25.23l-0.386-0.703L4.402,25.23l-0.705,0.385L4.402,25.999z M7.601,23
	l0.385,0.703L8.372,23l0.705-0.385l-0.705-0.385l-0.385-0.703l-0.385,0.703l-0.705,0.385L7.601,23z M9.218,24.382l0.386,0.704
	l0.385-0.704l0.705-0.385l-0.705-0.385l-0.385-0.703l-0.386,0.703l-0.705,0.385L9.218,24.382z M7.601,25.999l0.385,0.703
	l0.385-0.703l0.705-0.385L8.372,25.23l-0.385-0.703L7.601,25.23l-0.705,0.385L7.601,25.999z M27.182,26.703l0.385-0.703l0.705-0.385
	l-0.705-0.385l-0.385-0.703l-0.386,0.703l-0.705,0.385l0.705,0.385L27.182,26.703z M28.799,22.909l-0.386,0.703l-0.705,0.385
	l0.705,0.385l0.386,0.704l0.385-0.704l0.705-0.385l-0.705-0.385L28.799,22.909z M30.381,26.703l0.386-0.703l0.705-0.385
	l-0.705-0.385l-0.386-0.703l-0.386,0.703l-0.705,0.385l0.705,0.385L30.381,26.703z M30.381,21.527l-0.386,0.703l-0.705,0.385
	L29.995,23l0.386,0.703L30.766,23l0.705-0.385l-0.705-0.385L30.381,21.527z M31.998,22.909l-0.386,0.703l-0.705,0.385l0.705,0.385
	l0.386,0.704l0.385-0.704l0.705-0.385l-0.705-0.385L31.998,22.909z M34.812,23.612l-0.705,0.385l0.705,0.385l0.386,0.704
	l0.386-0.704l0.705-0.385l-0.705-0.385l-0.386-0.703L34.812,23.612z M20.783,21.527l-0.385,0.703l-0.705,0.385L20.398,23
	l0.385,0.703L21.169,23l0.705-0.385l-0.705-0.385L20.783,21.527z M33.58,21.527l-0.386,0.703l-0.705,0.385L33.195,23l0.386,0.703
	L33.966,23l0.705-0.385l-0.705-0.385L33.58,21.527z M33.58,26.703l0.386-0.703l0.705-0.385l-0.705-0.385l-0.386-0.703l-0.386,0.703
	l-0.705,0.385l0.705,0.385L33.58,26.703z M22.4,22.909l-0.386,0.703l-0.705,0.385l0.705,0.385l0.386,0.704l0.386-0.704l0.705-0.385
	l-0.705-0.385L22.4,22.909z M23.983,21.527l-0.386,0.703l-0.705,0.385L23.597,23l0.386,0.703L24.368,23l0.705-0.385l-0.705-0.385
	L23.983,21.527z M20.783,26.703l0.386-0.703l0.705-0.385l-0.705-0.385l-0.386-0.703l-0.385,0.703l-0.705,0.385l0.705,0.385
	L20.783,26.703z M23.983,26.703l0.385-0.703l0.705-0.385l-0.705-0.385l-0.385-0.703l-0.386,0.703l-0.705,0.385l0.705,0.385
	L23.983,26.703z M27.182,21.527l-0.386,0.703l-0.705,0.385L26.796,23l0.386,0.703L27.567,23l0.705-0.385l-0.705-0.385L27.182,21.527
	z M25.6,22.909l-0.385,0.703l-0.705,0.385l0.705,0.385l0.385,0.704l0.385-0.704l0.705-0.385l-0.705-0.385L25.6,22.909z
	 M37.165,22.231l-0.385-0.703l-0.386,0.703l-0.705,0.385L36.394,23l0.386,0.703L37.165,23l0.705-0.385L37.165,22.231z M31.998,19.91
	l-0.386,0.703l-0.705,0.385l0.705,0.385l0.386,0.703l0.385-0.703l0.705-0.385l-0.705-0.385L31.998,19.91z M41.981,17.614
	l-0.386-0.704l-0.386,0.704l-0.705,0.385l0.705,0.385l0.386,0.703l0.386-0.703l0.705-0.385L41.981,17.614z M43.563,16.233
	l-0.385-0.703l-0.386,0.703l-0.705,0.385l0.705,0.385l0.386,0.703l0.385-0.703l0.705-0.385L43.563,16.233z M45.181,17.614
	l-0.386-0.704l-0.386,0.704l-0.705,0.385l0.705,0.385l0.386,0.703l0.386-0.703l0.705-0.385L45.181,17.614z M40.364,16.233
	l-0.386-0.703l-0.385,0.703l-0.705,0.385l0.705,0.385l0.385,0.703l0.386-0.703l0.705-0.385L40.364,16.233z M38.782,17.614
	l-0.386-0.704l-0.386,0.704l-0.705,0.385l0.705,0.385l0.386,0.703l0.386-0.703l0.705-0.385L38.782,17.614z M35.197,16.911
	l-0.386,0.704l-0.705,0.385l0.705,0.385l0.386,0.703l0.386-0.703l0.705-0.385l-0.705-0.385L35.197,16.911z M36.78,15.53
	l-0.386,0.703l-0.705,0.385l0.705,0.385l0.386,0.703l0.385-0.703l0.705-0.385l-0.705-0.385L36.78,15.53z M47.609,26.611
	l-0.705,0.385l0.705,0.385l0.385,0.703L48,28.074v-2.155l-0.006-0.01L47.609,26.611z M43.563,28.228l-0.385-0.703l-0.386,0.703
	l-0.705,0.385l0.705,0.385l0.386,0.704l0.385-0.704l0.705-0.385L43.563,28.228z M45.181,26.611l-0.386-0.704l-0.386,0.704
	l-0.705,0.385l0.705,0.385l0.386,0.703l0.386-0.703l0.705-0.385L45.181,26.611z M41.981,26.611l-0.386-0.704l-0.386,0.704
	l-0.705,0.385l0.705,0.385l0.386,0.703l0.386-0.703l0.705-0.385L41.981,26.611z M47.609,17.614l-0.705,0.385l0.705,0.385
	l0.385,0.703L48,19.077v-2.155l-0.006-0.011L47.609,17.614z M46.763,16.233l-0.386-0.703l-0.386,0.703l-0.705,0.385l0.705,0.385
	l0.386,0.703l0.386-0.703l0.705-0.385L46.763,16.233z M46.763,28.228l-0.386-0.703l-0.386,0.703l-0.705,0.385l0.705,0.385
	l0.386,0.704l0.386-0.704l0.705-0.385L46.763,28.228z M31.998,16.911l-0.386,0.704l-0.705,0.385l0.705,0.385l0.386,0.703
	l0.385-0.703l0.705-0.385l-0.705-0.385L31.998,16.911z M16.002,16.911l-0.386,0.704l-0.705,0.385l0.705,0.385l0.386,0.703
	l0.385-0.703l0.705-0.385l-0.705-0.385L16.002,16.911z M12.803,16.911l-0.386,0.704l-0.705,0.385l0.705,0.385l0.386,0.703
	l0.385-0.703l0.705-0.385l-0.705-0.385L12.803,16.911z M17.584,15.53l-0.386,0.703l-0.705,0.385l0.705,0.385l0.386,0.703
	l0.386-0.703l0.705-0.385l-0.705-0.385L17.584,15.53z M40.364,28.228l-0.386-0.703l-0.385,0.703l-0.705,0.385l0.705,0.385
	l0.385,0.704l0.386-0.704l0.705-0.385L40.364,28.228z M14.385,15.53l-0.386,0.703l-0.705,0.385l0.705,0.385l0.386,0.703l0.385-0.703
	l0.705-0.385l-0.705-0.385L14.385,15.53z M11.186,15.53L10.8,16.233l-0.705,0.385l0.705,0.385l0.386,0.703l0.386-0.703l0.705-0.385
	l-0.705-0.385L11.186,15.53z M7.986,15.53l-0.385,0.703l-0.705,0.385l0.705,0.385l0.385,0.703l0.385-0.703l0.705-0.385l-0.705-0.385
	L7.986,15.53z M30.381,15.53l-0.386,0.703l-0.705,0.385l0.705,0.385l0.386,0.703l0.386-0.703l0.705-0.385l-0.705-0.385L30.381,15.53
	z M9.604,16.911l-0.386,0.704l-0.705,0.385l0.705,0.385l0.386,0.703l0.385-0.703l0.705-0.385l-0.705-0.385L9.604,16.911z
	 M25.6,16.911l-0.385,0.704l-0.705,0.385l0.705,0.385l0.385,0.703l0.385-0.703l0.705-0.385l-0.705-0.385L25.6,16.911z M27.182,15.53
	l-0.386,0.703l-0.705,0.385l0.705,0.385l0.386,0.703l0.385-0.703l0.705-0.385l-0.705-0.385L27.182,15.53z M28.799,16.911
	l-0.386,0.704l-0.705,0.385l0.705,0.385l0.386,0.703l0.385-0.703l0.705-0.385l-0.705-0.385L28.799,16.911z M19.201,16.911
	l-0.385,0.704l-0.705,0.385l0.705,0.385l0.385,0.703l0.386-0.703l0.705-0.385l-0.705-0.385L19.201,16.911z M20.783,15.53
	l-0.385,0.703l-0.705,0.385l0.705,0.385l0.385,0.703l0.386-0.703l0.705-0.385l-0.705-0.385L20.783,15.53z M22.4,16.911l-0.386,0.704
	l-0.705,0.385l0.705,0.385l0.386,0.703l0.386-0.703l0.705-0.385l-0.705-0.385L22.4,16.911z M23.983,15.53l-0.386,0.703l-0.705,0.385
	l0.705,0.385l0.386,0.703l0.385-0.703l0.705-0.385l-0.705-0.385L23.983,15.53z M38.782,26.611l-0.386-0.704l-0.386,0.704
	l-0.705,0.385l0.705,0.385l0.386,0.703l0.386-0.703l0.705-0.385L38.782,26.611z M4.402,28.998l0.385,0.704l0.386-0.704l0.705-0.385
	l-0.705-0.385l-0.386-0.703l-0.385,0.703l-0.705,0.385L4.402,28.998z M2.82,24.382l0.386,0.704l0.385-0.704l0.705-0.385
	l-0.705-0.385l-0.385-0.703L2.82,23.612l-0.705,0.385L2.82,24.382z M2.82,27.381l0.386,0.703l0.385-0.703l0.705-0.385l-0.705-0.385
	l-0.385-0.704L2.82,26.611l-0.705,0.385L2.82,27.381z M6.019,27.381l0.386,0.703l0.386-0.703l0.705-0.385L6.79,26.611l-0.386-0.704
	l-0.386,0.704l-0.705,0.385L6.019,27.381z M7.601,28.998l0.385,0.704l0.385-0.704l0.705-0.385l-0.705-0.385l-0.385-0.703
	l-0.385,0.703l-0.705,0.385L7.601,28.998z M11.186,29.702l0.386-0.704l0.705-0.385l-0.705-0.385l-0.386-0.703L10.8,28.228
	l-0.705,0.385l0.705,0.385L11.186,29.702z M9.218,27.381l0.386,0.703l0.385-0.703l0.705-0.385l-0.705-0.385l-0.385-0.704
	l-0.386,0.704l-0.705,0.385L9.218,27.381z M6.019,21.383l0.386,0.703l0.386-0.703l0.705-0.385L6.79,20.613L6.404,19.91l-0.386,0.703
	l-0.705,0.385L6.019,21.383z M9.218,21.383l0.386,0.703l0.385-0.703l0.705-0.385l-0.705-0.385L9.604,19.91l-0.386,0.703
	l-0.705,0.385L9.218,21.383z M11.186,18.528L10.8,19.232l-0.705,0.385l0.705,0.385l0.386,0.704l0.386-0.704l0.705-0.385
	l-0.705-0.385L11.186,18.528z M12.803,19.91l-0.386,0.703l-0.705,0.385l0.705,0.385l0.386,0.703l0.385-0.703l0.705-0.385
	l-0.705-0.385L12.803,19.91z M4.402,20.001l0.385,0.704l0.386-0.704l0.705-0.385l-0.705-0.385l-0.386-0.703l-0.385,0.703
	l-0.705,0.385L4.402,20.001z M2.82,21.383l0.386,0.703l0.385-0.703l0.705-0.385l-0.705-0.385L3.205,19.91L2.82,20.613l-0.705,0.385
	L2.82,21.383z M7.601,20.001l0.385,0.704l0.385-0.704l0.705-0.385l-0.705-0.385l-0.385-0.703l-0.385,0.703l-0.705,0.385
	L7.601,20.001z M12.803,28.084l0.385-0.703l0.705-0.385l-0.705-0.385l-0.385-0.704l-0.386,0.704l-0.705,0.385l0.705,0.385
	L12.803,28.084z M14.385,18.528l-0.386,0.703l-0.705,0.385l0.705,0.385l0.386,0.704l0.385-0.704l0.705-0.385l-0.705-0.385
	L14.385,18.528z M30.381,29.702l0.386-0.704l0.705-0.385l-0.705-0.385l-0.386-0.703l-0.386,0.703l-0.705,0.385l0.705,0.385
	L30.381,29.702z M28.799,28.084l0.385-0.703l0.705-0.385l-0.705-0.385l-0.385-0.704l-0.386,0.704l-0.705,0.385l0.705,0.385
	L28.799,28.084z M31.998,28.084l0.385-0.703l0.705-0.385l-0.705-0.385l-0.385-0.704l-0.386,0.704l-0.705,0.385l0.705,0.385
	L31.998,28.084z M33.58,29.702l0.386-0.704l0.705-0.385l-0.705-0.385l-0.386-0.703l-0.386,0.703l-0.705,0.385l0.705,0.385
	L33.58,29.702z M36.78,29.702l0.385-0.704l0.705-0.385l-0.705-0.385l-0.385-0.703l-0.386,0.703l-0.705,0.385l0.705,0.385
	L36.78,29.702z M35.197,28.084l0.386-0.703l0.705-0.385l-0.705-0.385l-0.386-0.704l-0.386,0.704l-0.705,0.385l0.705,0.385
	L35.197,28.084z M27.182,29.702l0.385-0.704l0.705-0.385l-0.705-0.385l-0.385-0.703l-0.386,0.703l-0.705,0.385l0.705,0.385
	L27.182,29.702z M22.4,28.084l0.386-0.703l0.705-0.385l-0.705-0.385L22.4,25.908l-0.386,0.704l-0.705,0.385l0.705,0.385L22.4,28.084
	z M19.201,28.084l0.386-0.703l0.705-0.385l-0.705-0.385l-0.386-0.704l-0.385,0.704l-0.705,0.385l0.705,0.385L19.201,28.084z
	 M17.584,29.702l0.386-0.704l0.705-0.385l-0.705-0.385l-0.386-0.703l-0.386,0.703l-0.705,0.385l0.705,0.385L17.584,29.702z
	 M16.002,28.084l0.385-0.703l0.705-0.385l-0.705-0.385l-0.385-0.704l-0.386,0.704l-0.705,0.385l0.705,0.385L16.002,28.084z
	 M23.983,29.702l0.385-0.704l0.705-0.385l-0.705-0.385l-0.385-0.703l-0.386,0.703l-0.705,0.385l0.705,0.385L23.983,29.702z
	 M25.6,28.084l0.385-0.703l0.705-0.385l-0.705-0.385L25.6,25.908l-0.385,0.704l-0.705,0.385l0.705,0.385L25.6,28.084z
	 M14.385,29.702l0.385-0.704l0.705-0.385l-0.705-0.385l-0.385-0.703l-0.386,0.703l-0.705,0.385l0.705,0.385L14.385,29.702z
	 M20.783,29.702l0.386-0.704l0.705-0.385l-0.705-0.385l-0.386-0.703l-0.385,0.703l-0.705,0.385l0.705,0.385L20.783,29.702z
	 M33.58,15.53l-0.386,0.703l-0.705,0.385l0.705,0.385l0.386,0.703l0.386-0.703l0.705-0.385l-0.705-0.385L33.58,15.53z M31.998,1.916
	L31.613,2.62l-0.705,0.385l0.705,0.385l0.386,0.704l0.385-0.704l0.705-0.385L32.383,2.62L31.998,1.916z M25.6,1.916L25.214,2.62
	l-0.705,0.385l0.705,0.385L25.6,4.093l0.385-0.704l0.705-0.385L25.985,2.62L25.6,1.916z M38.397,1.916L38.011,2.62l-0.705,0.385
	l0.705,0.385l0.386,0.704l0.386-0.704l0.705-0.385L38.782,2.62L38.397,1.916z M36.394,2.008l0.386,0.704l0.385-0.704l0.705-0.385
	l-0.705-0.385L36.78,0.535l-0.386,0.703l-0.705,0.385L36.394,2.008z M33.195,2.008l0.386,0.704l0.386-0.704l0.705-0.385
	l-0.705-0.385L33.58,0.535l-0.386,0.703L32.49,1.623L33.195,2.008z M26.796,2.008l0.386,0.704l0.385-0.704l0.705-0.385l-0.705-0.385
	l-0.385-0.703l-0.386,0.703l-0.705,0.385L26.796,2.008z M28.799,1.916L28.413,2.62l-0.705,0.385l0.705,0.385l0.386,0.704
	l0.385-0.704l0.705-0.385L29.184,2.62L28.799,1.916z M29.995,2.008l0.386,0.704l0.386-0.704l0.705-0.385l-0.705-0.385l-0.386-0.703
	l-0.386,0.703l-0.705,0.385L29.995,2.008z M35.197,1.916L34.812,2.62l-0.705,0.385l0.705,0.385l0.386,0.704l0.386-0.704l0.705-0.385
	L35.583,2.62L35.197,1.916z M47.609,2.62l-0.705,0.385l0.705,0.385l0.385,0.704L48,4.082V1.927l-0.006-0.01L47.609,2.62z
	 M45.992,2.008l0.386,0.704l0.386-0.704l0.705-0.385l-0.705-0.385l-0.386-0.703l-0.386,0.703l-0.705,0.385L45.992,2.008z
	 M47.609,41.606l-0.705,0.385l0.705,0.385l0.385,0.703L48,43.068v-2.155l-0.006-0.01L47.609,41.606z M45.181,2.62l-0.386-0.703
	L44.41,2.62l-0.705,0.385l0.705,0.385l0.386,0.704l0.386-0.704l0.705-0.385L45.181,2.62z M39.593,2.008l0.385,0.704l0.386-0.704
	l0.705-0.385l-0.705-0.385l-0.386-0.703l-0.385,0.703l-0.705,0.385L39.593,2.008z M46.377,44.696l0.386-0.703l0.705-0.385
	l-0.705-0.385l-0.386-0.703l-0.386,0.703l-0.705,0.385l0.705,0.385L46.377,44.696z M42.792,2.008l0.386,0.704l0.385-0.704
	l0.705-0.385l-0.705-0.385l-0.385-0.703l-0.386,0.703l-0.705,0.385L42.792,2.008z M41.596,1.916L41.21,2.62l-0.705,0.385
	l0.705,0.385l0.386,0.704l0.386-0.704l0.705-0.385L41.981,2.62L41.596,1.916z M3.205,4.916L2.82,5.619L2.115,6.004L2.82,6.388
	l0.386,0.704l0.385-0.704l0.705-0.385L3.591,5.619L3.205,4.916z M9.604,1.916L9.218,2.62L8.513,3.005l0.705,0.385l0.386,0.704
	l0.385-0.704l0.705-0.385L9.989,2.62L9.604,1.916z M6.404,1.916L6.019,2.62L5.314,3.005l0.705,0.385l0.386,0.704L6.79,3.389
	l0.705-0.385L6.79,2.62L6.404,1.916z M3.205,1.916L2.82,2.62L2.115,3.005L2.82,3.389l0.386,0.704l0.385-0.704l0.705-0.385
	L3.591,2.62L3.205,1.916z M1.202,2.008l0.385,0.704l0.386-0.704l0.705-0.385L1.973,1.238L1.588,0.535L1.202,1.238L0.498,1.623
	L1.202,2.008z M10.8,2.008l0.386,0.704l0.386-0.704l0.705-0.385l-0.705-0.385l-0.386-0.703L10.8,1.238l-0.705,0.385L10.8,2.008z
	 M0.391,3.389l0.705-0.385L0.391,2.62L0.006,1.916L0,1.927v2.155l0.006,0.011L0.391,3.389z M19.201,1.916L18.816,2.62l-0.705,0.385
	l0.705,0.385l0.385,0.704l0.386-0.704l0.705-0.385L19.587,2.62L19.201,1.916z M20.398,2.008l0.385,0.704l0.386-0.704l0.705-0.385
	l-0.705-0.385l-0.386-0.703l-0.385,0.703l-0.705,0.385L20.398,2.008z M23.597,2.008l0.386,0.704l0.385-0.704l0.705-0.385
	l-0.705-0.385l-0.385-0.703l-0.386,0.703l-0.705,0.385L23.597,2.008z M22.4,1.916L22.015,2.62L21.31,3.005l0.705,0.385L22.4,4.093
	l0.386-0.704l0.705-0.385L22.786,2.62L22.4,1.916z M17.199,2.008l0.386,0.704l0.386-0.704l0.705-0.385L17.97,1.238l-0.386-0.703
	l-0.386,0.703l-0.705,0.385L17.199,2.008z M13.999,2.008l0.386,0.704l0.385-0.704l0.705-0.385L14.77,1.238l-0.385-0.703
	l-0.386,0.703l-0.705,0.385L13.999,2.008z M12.803,1.916L12.417,2.62l-0.705,0.385l0.705,0.385l0.386,0.704l0.385-0.704l0.705-0.385
	L13.188,2.62L12.803,1.916z M16.002,1.916L15.616,2.62l-0.705,0.385l0.705,0.385l0.386,0.704l0.385-0.704l0.705-0.385L16.387,2.62
	L16.002,1.916z M4.402,2.008l0.385,0.704l0.386-0.704l0.705-0.385L5.173,1.238L4.787,0.535L4.402,1.238L3.697,1.623L4.402,2.008z
	 M11.186,44.696l0.386-0.703l0.705-0.385l-0.705-0.385l-0.386-0.703L10.8,43.223l-0.705,0.385l0.705,0.385L11.186,44.696z
	 M9.604,43.079l0.385-0.703l0.705-0.385l-0.705-0.385l-0.385-0.703l-0.386,0.703l-0.705,0.385l0.705,0.385L9.604,43.079z
	 M7.986,44.696l0.385-0.703l0.705-0.385l-0.705-0.385L7.986,42.52l-0.385,0.703l-0.705,0.385l0.705,0.385L7.986,44.696z
	 M12.803,43.079l0.385-0.703l0.705-0.385l-0.705-0.385l-0.385-0.703l-0.386,0.703l-0.705,0.385l0.705,0.385L12.803,43.079z
	 M17.584,44.696l0.386-0.703l0.705-0.385l-0.705-0.385l-0.386-0.703l-0.386,0.703l-0.705,0.385l0.705,0.385L17.584,44.696z
	 M14.385,44.696l0.385-0.703l0.705-0.385l-0.705-0.385l-0.385-0.703l-0.386,0.703l-0.705,0.385l0.705,0.385L14.385,44.696z
	 M16.002,43.079l0.385-0.703l0.705-0.385l-0.705-0.385l-0.385-0.703l-0.386,0.703l-0.705,0.385l0.705,0.385L16.002,43.079z
	 M2.82,42.375l0.386,0.703l0.385-0.703l0.705-0.385l-0.705-0.385l-0.385-0.703L2.82,41.606l-0.705,0.385L2.82,42.375z M6.404,43.079
	l0.386-0.703l0.705-0.385L6.79,41.606l-0.386-0.703l-0.386,0.703l-0.705,0.385l0.705,0.385L6.404,43.079z M1.588,3.534L1.202,4.237
	L0.498,4.622l0.705,0.385L1.588,5.71l0.386-0.704l0.705-0.385L1.973,4.237L1.588,3.534z M0.391,42.375l0.705-0.385l-0.705-0.385
	l-0.386-0.703L0,40.913v2.155l0.006,0.01L0.391,42.375z M0.391,6.388l0.705-0.385L0.391,5.619L0.006,4.916L0,4.926v2.155
	l0.006,0.011L0.391,6.388z M4.787,44.696l0.386-0.703l0.705-0.385l-0.705-0.385L4.787,42.52l-0.385,0.703l-0.705,0.385l0.705,0.385
	L4.787,44.696z M19.201,43.079l0.386-0.703l0.705-0.385l-0.705-0.385l-0.386-0.703l-0.385,0.703l-0.705,0.385l0.705,0.385
	L19.201,43.079z M1.202,43.993l0.385,0.703l0.386-0.703l0.705-0.385l-0.705-0.385L1.588,42.52l-0.385,0.703l-0.705,0.385
	L1.202,43.993z M20.783,44.696l0.386-0.703l0.705-0.385l-0.705-0.385l-0.386-0.703l-0.385,0.703l-0.705,0.385l0.705,0.385
	L20.783,44.696z M36.78,44.696l0.385-0.703l0.705-0.385l-0.705-0.385L36.78,42.52l-0.386,0.703l-0.705,0.385l0.705,0.385
	L36.78,44.696z M38.397,43.079l0.386-0.703l0.705-0.385l-0.705-0.385l-0.386-0.703l-0.386,0.703l-0.705,0.385l0.705,0.385
	L38.397,43.079z M35.197,43.079l0.386-0.703l0.705-0.385l-0.705-0.385l-0.386-0.703l-0.386,0.703l-0.705,0.385l0.705,0.385
	L35.197,43.079z M33.58,44.696l0.386-0.703l0.705-0.385l-0.705-0.385L33.58,42.52l-0.386,0.703l-0.705,0.385l0.705,0.385
	L33.58,44.696z M39.979,44.696l0.386-0.703l0.705-0.385l-0.705-0.385l-0.386-0.703l-0.385,0.703l-0.705,0.385l0.705,0.385
	L39.979,44.696z M43.178,44.696l0.385-0.703l0.705-0.385l-0.705-0.385l-0.385-0.703l-0.386,0.703l-0.705,0.385l0.705,0.385
	L43.178,44.696z M41.596,43.079l0.386-0.703l0.705-0.385l-0.705-0.385l-0.386-0.703l-0.386,0.703l-0.705,0.385l0.705,0.385
	L41.596,43.079z M25.6,43.079l0.385-0.703l0.705-0.385l-0.705-0.385L25.6,40.902l-0.385,0.703l-0.705,0.385l0.705,0.385L25.6,43.079
	z M44.795,43.079l0.386-0.703l0.705-0.385l-0.705-0.385l-0.386-0.703l-0.386,0.703l-0.705,0.385l0.705,0.385L44.795,43.079z
	 M23.983,44.696l0.385-0.703l0.705-0.385l-0.705-0.385l-0.385-0.703l-0.386,0.703l-0.705,0.385l0.705,0.385L23.983,44.696z
	 M22.4,43.079l0.386-0.703l0.705-0.385l-0.705-0.385L22.4,40.902l-0.386,0.703l-0.705,0.385l0.705,0.385L22.4,43.079z
	 M30.381,44.696l0.386-0.703l0.705-0.385l-0.705-0.385l-0.386-0.703l-0.386,0.703l-0.705,0.385l0.705,0.385L30.381,44.696z
	 M31.998,43.079l0.385-0.703l0.705-0.385l-0.705-0.385l-0.385-0.703l-0.386,0.703l-0.705,0.385l0.705,0.385L31.998,43.079z
	 M27.182,44.696l0.385-0.703l0.705-0.385l-0.705-0.385l-0.385-0.703l-0.386,0.703l-0.705,0.385l0.705,0.385L27.182,44.696z
	 M28.799,43.079l0.385-0.703l0.705-0.385l-0.705-0.385l-0.385-0.703l-0.386,0.703l-0.705,0.385l0.705,0.385L28.799,43.079z
	 M7.601,2.008l0.385,0.704l0.385-0.704l0.705-0.385L8.372,1.238L7.986,0.535L7.601,1.238L6.896,1.623L7.601,2.008z M9.604,1.094
	L9.989,0.39l0.705-0.385L10.683,0H8.524L8.513,0.006L9.218,0.39L9.604,1.094z M12.803,1.094l0.385-0.704l0.705-0.385L13.882,0
	h-2.159l-0.011,0.006l0.705,0.385L12.803,1.094z M16.002,1.094l0.385-0.704l0.705-0.385L17.082,0h-2.159l-0.011,0.006l0.705,0.385
	L16.002,1.094z M9.604,10.913l-0.386,0.704l-0.705,0.385l0.705,0.385l0.386,0.703l0.385-0.703l0.705-0.385l-0.705-0.385
	L9.604,10.913z M19.201,1.094l0.386-0.704l0.705-0.385L20.281,0h-2.159l-0.011,0.006l0.705,0.385L19.201,1.094z M0.006,46.9
	L0,46.911V48h1.076l0.021-0.011l-0.705-0.385L0.006,46.9z M3.205,1.094L3.591,0.39l0.705-0.385L4.285,0H2.125L2.115,0.006L2.82,0.39
	L3.205,1.094z M6.404,1.094L6.79,0.39l0.705-0.385L7.484,0H5.325L5.314,0.006L6.019,0.39L6.404,1.094z M22.4,1.094l0.386-0.704
	l0.705-0.385L23.48,0h-2.159L21.31,0.006l0.705,0.385L22.4,1.094z M41.596,1.094l0.386-0.704l0.705-0.385L42.675,0h-2.159
	l-0.011,0.006L41.21,0.39L41.596,1.094z M35.197,1.094l0.386-0.704l0.705-0.385L36.277,0h-2.159l-0.011,0.006l0.705,0.385
	L35.197,1.094z M38.397,1.094l0.386-0.704l0.705-0.385L39.476,0h-2.159l-0.011,0.006l0.705,0.385L38.397,1.094z M31.998,1.094
	l0.385-0.704l0.705-0.385L33.078,0h-2.159l-0.011,0.006l0.705,0.385L31.998,1.094z M25.6,1.094l0.385-0.704l0.705-0.385L26.679,0
	H24.52l-0.011,0.006l0.705,0.385L25.6,1.094z M28.799,1.094l0.385-0.704l0.705-0.385L29.879,0h-2.16l-0.011,0.006l0.705,0.385
	L28.799,1.094z M44.795,46.9l-0.386,0.704l-0.705,0.385L43.725,48h2.139l0.021-0.011l-0.705-0.385L44.795,46.9z M38.397,46.9
	l-0.386,0.704l-0.705,0.385L37.327,48h2.14l0.021-0.011l-0.705-0.385L38.397,46.9z M35.197,46.9l-0.386,0.704l-0.705,0.385
	L34.128,48h2.139l0.021-0.011l-0.705-0.385L35.197,46.9z M31.998,46.9l-0.386,0.704l-0.705,0.385L30.928,48h2.14l0.021-0.011
	l-0.705-0.385L31.998,46.9z M47.609,47.604l-0.705,0.385L46.924,48H48v-1.089l-0.006-0.01L47.609,47.604z M41.596,46.9l-0.386,0.704
	l-0.705,0.385L40.526,48h2.14l0.021-0.011l-0.705-0.385L41.596,46.9z M28.799,46.9l-0.386,0.704l-0.705,0.385L27.729,48h2.14
	l0.021-0.011l-0.705-0.385L28.799,46.9z M44.795,1.094l0.386-0.704l0.705-0.385L45.875,0h-2.159l-0.011,0.006L44.41,0.39
	L44.795,1.094z M9.604,46.9l-0.386,0.704l-0.705,0.385L8.534,48h2.14l0.021-0.011l-0.705-0.385L9.604,46.9z M3.205,46.9L2.82,47.604
	l-0.705,0.385L2.135,48h2.139l0.021-0.011l-0.705-0.385L3.205,46.9z M6.404,46.9l-0.386,0.704l-0.705,0.385L5.335,48h2.139
	l0.021-0.011L6.79,47.604L6.404,46.9z M12.803,46.9l-0.386,0.704l-0.705,0.385L11.733,48h2.139l0.021-0.011l-0.705-0.385
	L12.803,46.9z M16.002,46.9l-0.386,0.704l-0.705,0.385L14.932,48h2.139l0.021-0.011l-0.705-0.385L16.002,46.9z M22.4,46.9
	l-0.386,0.704l-0.705,0.385L21.331,48h2.14l0.021-0.011l-0.705-0.385L22.4,46.9z M0.391,45.374l0.705-0.385l-0.705-0.385
	l-0.386-0.703L0,43.912v2.155l0.006,0.01L0.391,45.374z M25.6,46.9l-0.385,0.704l-0.705,0.385L24.53,48h2.139l0.021-0.011
	l-0.705-0.385L25.6,46.9z M19.201,46.9l-0.385,0.704l-0.705,0.385L18.131,48h2.14l0.021-0.011l-0.705-0.385L19.201,46.9z
	 M16.002,46.078l0.385-0.703l0.705-0.385l-0.705-0.385l-0.385-0.703l-0.386,0.703l-0.705,0.385l0.705,0.385L16.002,46.078z
	 M12.803,46.078l0.385-0.703l0.705-0.385l-0.705-0.385l-0.385-0.703l-0.386,0.703l-0.705,0.385l0.705,0.385L12.803,46.078z
	 M17.97,46.222l-0.386-0.703l-0.386,0.703l-0.705,0.385l0.705,0.385l0.386,0.704l0.386-0.704l0.705-0.385L17.97,46.222z
	 M14.77,46.222l-0.385-0.703l-0.386,0.703l-0.705,0.385l0.705,0.385l0.386,0.704l0.385-0.704l0.705-0.385L14.77,46.222z
	 M19.201,46.078l0.386-0.703l0.705-0.385l-0.705-0.385l-0.386-0.703l-0.385,0.703l-0.705,0.385l0.705,0.385L19.201,46.078z
	 M22.4,46.078l0.386-0.703l0.705-0.385l-0.705-0.385L22.4,43.901l-0.386,0.703L21.31,44.99l0.705,0.385L22.4,46.078z M21.169,46.222
	l-0.386-0.703l-0.385,0.703l-0.705,0.385l0.705,0.385l0.385,0.704l0.386-0.704l0.705-0.385L21.169,46.222z M11.571,46.222
	l-0.386-0.703L10.8,46.222l-0.705,0.385l0.705,0.385l0.386,0.704l0.386-0.704l0.705-0.385L11.571,46.222z M5.173,46.222
	l-0.386-0.703l-0.385,0.703l-0.705,0.385l0.705,0.385l0.385,0.704l0.386-0.704l0.705-0.385L5.173,46.222z M3.205,46.078l0.385-0.703
	l0.705-0.385l-0.705-0.385l-0.385-0.703L2.82,44.605L2.115,44.99l0.705,0.385L3.205,46.078z M1.973,46.222l-0.386-0.703
	l-0.385,0.703l-0.705,0.385l0.705,0.385l0.385,0.704l0.386-0.704l0.705-0.385L1.973,46.222z M46.915,0l-0.011,0.006l0.705,0.385
	l0.385,0.704L48,1.084V0H46.915z M24.368,46.222l-0.385-0.703l-0.386,0.703l-0.705,0.385l0.705,0.385l0.386,0.704l0.385-0.704
	l0.705-0.385L24.368,46.222z M8.372,46.222l-0.385-0.703l-0.385,0.703l-0.705,0.385l0.705,0.385l0.385,0.704l0.385-0.704
	l0.705-0.385L8.372,46.222z M6.404,46.078l0.386-0.703l0.705-0.385L6.79,44.605l-0.386-0.703l-0.386,0.703L5.314,44.99l0.705,0.385
	L6.404,46.078z M9.604,46.078l0.385-0.703l0.705-0.385l-0.705-0.385l-0.385-0.703l-0.386,0.703L8.513,44.99l0.705,0.385
	L9.604,46.078z M41.596,46.078l0.386-0.703l0.705-0.385l-0.705-0.385l-0.386-0.703l-0.386,0.703l-0.705,0.385l0.705,0.385
	L41.596,46.078z M38.397,46.078l0.386-0.703l0.705-0.385l-0.705-0.385l-0.386-0.703l-0.386,0.703l-0.705,0.385l0.705,0.385
	L38.397,46.078z M40.364,46.222l-0.386-0.703l-0.385,0.703l-0.705,0.385l0.705,0.385l0.385,0.704l0.386-0.704l0.705-0.385
	L40.364,46.222z M43.563,46.222l-0.385-0.703l-0.386,0.703l-0.705,0.385l0.705,0.385l0.386,0.704l0.385-0.704l0.705-0.385
	L43.563,46.222z M47.609,44.605l-0.705,0.385l0.705,0.385l0.385,0.703L48,46.067v-2.155l-0.006-0.01L47.609,44.605z M44.795,46.078
	l0.386-0.703l0.705-0.385l-0.705-0.385l-0.386-0.703l-0.386,0.703l-0.705,0.385l0.705,0.385L44.795,46.078z M46.763,46.222
	l-0.386-0.703l-0.386,0.703l-0.705,0.385l0.705,0.385l0.386,0.704l0.386-0.704l0.705-0.385L46.763,46.222z M30.766,46.222
	l-0.386-0.703l-0.386,0.703l-0.705,0.385l0.705,0.385l0.386,0.704l0.386-0.704l0.705-0.385L30.766,46.222z M28.799,46.078
	l0.385-0.703l0.705-0.385l-0.705-0.385l-0.385-0.703l-0.386,0.703l-0.705,0.385l0.705,0.385L28.799,46.078z M25.6,46.078
	l0.385-0.703l0.705-0.385l-0.705-0.385L25.6,43.901l-0.385,0.703l-0.705,0.385l0.705,0.385L25.6,46.078z M27.567,46.222
	l-0.385-0.703l-0.386,0.703l-0.705,0.385l0.705,0.385l0.386,0.704l0.385-0.704l0.705-0.385L27.567,46.222z M37.165,46.222
	l-0.385-0.703l-0.386,0.703l-0.705,0.385l0.705,0.385l0.386,0.704l0.385-0.704l0.705-0.385L37.165,46.222z M35.197,46.078
	l0.386-0.703l0.705-0.385l-0.705-0.385l-0.386-0.703l-0.386,0.703l-0.705,0.385l0.705,0.385L35.197,46.078z M33.966,46.222
	l-0.386-0.703l-0.386,0.703l-0.705,0.385l0.705,0.385l0.386,0.704l0.386-0.704l0.705-0.385L33.966,46.222z M31.998,46.078
	l0.385-0.703l0.705-0.385l-0.705-0.385l-0.385-0.703l-0.386,0.703l-0.705,0.385l0.705,0.385L31.998,46.078z M0.391,0.39l0.705-0.385
	L1.086,0H0v1.083l0.006,0.011L0.391,0.39z M41.981,8.618l-0.386-0.704L41.21,8.618l-0.705,0.385l0.705,0.385l0.386,0.704
	l0.386-0.704l0.705-0.385L41.981,8.618z M33.58,6.533l-0.386,0.704L32.49,7.621l0.705,0.385l0.386,0.703l0.386-0.703l0.705-0.385
	l-0.705-0.385L33.58,6.533z M43.563,7.236l-0.385-0.704l-0.386,0.704l-0.705,0.385l0.705,0.385l0.386,0.703l0.385-0.703l0.705-0.385
	L43.563,7.236z M38.397,7.914l-0.386,0.704l-0.705,0.385l0.705,0.385l0.386,0.704l0.386-0.704l0.705-0.385l-0.705-0.385
	L38.397,7.914z M45.181,8.618l-0.386-0.704L44.41,8.618l-0.705,0.385l0.705,0.385l0.386,0.704l0.386-0.704l0.705-0.385L45.181,8.618
	z M35.197,7.914l-0.386,0.704l-0.705,0.385l0.705,0.385l0.386,0.704l0.386-0.704l0.705-0.385l-0.705-0.385L35.197,7.914z
	 M36.78,6.533l-0.386,0.704l-0.705,0.385l0.705,0.385l0.386,0.703l0.385-0.703l0.705-0.385l-0.705-0.385L36.78,6.533z M39.979,6.533
	l-0.385,0.704l-0.705,0.385l0.705,0.385l0.385,0.703l0.386-0.703l0.705-0.385l-0.705-0.385L39.979,6.533z M45.181,35.608
	l-0.386-0.704l-0.386,0.704l-0.705,0.385l0.705,0.385l0.386,0.703l0.386-0.703l0.705-0.385L45.181,35.608z M43.178,38.698
	l0.385-0.704l0.705-0.385l-0.705-0.385l-0.385-0.703l-0.386,0.703l-0.705,0.385l0.705,0.385L43.178,38.698z M41.596,37.081
	l0.386-0.703l0.705-0.385l-0.705-0.385l-0.386-0.704l-0.386,0.704l-0.705,0.385l0.705,0.385L41.596,37.081z M47.609,8.618
	l-0.705,0.385l0.705,0.385l0.385,0.704L48,10.08V7.925l-0.006-0.01L47.609,8.618z M46.763,37.225l-0.386-0.703l-0.386,0.703
	l-0.705,0.385l0.705,0.385l0.386,0.704l0.386-0.704l0.705-0.385L46.763,37.225z M46.763,7.236l-0.386-0.704l-0.386,0.704
	l-0.705,0.385l0.705,0.385l0.386,0.703l0.386-0.703l0.705-0.385L46.763,7.236z M47.609,35.608l-0.705,0.385l0.705,0.385l0.385,0.703
	L48,37.071v-2.155l-0.006-0.01L47.609,35.608z M16.002,7.914l-0.386,0.704l-0.705,0.385l0.705,0.385l0.386,0.704l0.385-0.704
	l0.705-0.385l-0.705-0.385L16.002,7.914z M39.979,38.698l0.386-0.704l0.705-0.385l-0.705-0.385l-0.386-0.703l-0.385,0.703
	l-0.705,0.385l0.705,0.385L39.979,38.698z M19.201,7.914l-0.385,0.704l-0.705,0.385l0.705,0.385l0.385,0.704l0.386-0.704
	l0.705-0.385l-0.705-0.385L19.201,7.914z M17.584,6.533l-0.386,0.704l-0.705,0.385l0.705,0.385l0.386,0.703l0.386-0.703l0.705-0.385
	L17.97,7.236L17.584,6.533z M14.385,6.533l-0.386,0.704l-0.705,0.385l0.705,0.385l0.386,0.703l0.385-0.703l0.705-0.385L14.77,7.236
	L14.385,6.533z M9.604,7.914L9.218,8.618L8.513,9.003l0.705,0.385l0.386,0.704l0.385-0.704l0.705-0.385L9.989,8.618L9.604,7.914z
	 M11.186,6.533L10.8,7.236l-0.705,0.385L10.8,8.006l0.386,0.703l0.386-0.703l0.705-0.385l-0.705-0.385L11.186,6.533z M12.803,7.914
	l-0.386,0.704l-0.705,0.385l0.705,0.385l0.386,0.704l0.385-0.704l0.705-0.385l-0.705-0.385L12.803,7.914z M22.4,7.914l-0.386,0.704
	L21.31,9.003l0.705,0.385l0.386,0.704l0.386-0.704l0.705-0.385l-0.705-0.385L22.4,7.914z M28.799,7.914l-0.386,0.704l-0.705,0.385
	l0.705,0.385l0.386,0.704l0.385-0.704l0.705-0.385l-0.705-0.385L28.799,7.914z M30.381,6.533l-0.386,0.704l-0.705,0.385l0.705,0.385
	l0.386,0.703l0.386-0.703l0.705-0.385l-0.705-0.385L30.381,6.533z M27.182,6.533l-0.386,0.704l-0.705,0.385l0.705,0.385l0.386,0.703
	l0.385-0.703l0.705-0.385l-0.705-0.385L27.182,6.533z M23.983,6.533l-0.386,0.704l-0.705,0.385l0.705,0.385l0.386,0.703l0.385-0.703
	l0.705-0.385l-0.705-0.385L23.983,6.533z M31.998,7.914l-0.386,0.704l-0.705,0.385l0.705,0.385l0.386,0.704l0.385-0.704l0.705-0.385
	l-0.705-0.385L31.998,7.914z M25.6,7.914l-0.385,0.704l-0.705,0.385l0.705,0.385l0.385,0.704l0.385-0.704l0.705-0.385l-0.705-0.385
	L25.6,7.914z M20.783,6.533l-0.385,0.704l-0.705,0.385l0.705,0.385l0.385,0.703l0.386-0.703l0.705-0.385l-0.705-0.385L20.783,6.533z
	 M25.6,37.081l0.385-0.703l0.705-0.385l-0.705-0.385L25.6,34.905l-0.385,0.704l-0.705,0.385l0.705,0.385L25.6,37.081z M4.402,37.995
	l0.385,0.704l0.386-0.704l0.705-0.385l-0.705-0.385l-0.386-0.703l-0.385,0.703L3.697,37.61L4.402,37.995z M6.019,36.378l0.386,0.703
	l0.386-0.703l0.705-0.385L6.79,35.608l-0.386-0.704l-0.386,0.704l-0.705,0.385L6.019,36.378z M2.82,36.378l0.386,0.703l0.385-0.703
	l0.705-0.385l-0.705-0.385l-0.385-0.704L2.82,35.608l-0.705,0.385L2.82,36.378z M11.186,38.698l0.386-0.704l0.705-0.385
	l-0.705-0.385l-0.386-0.703L10.8,37.225l-0.705,0.385l0.705,0.385L11.186,38.698z M1.202,37.995l0.385,0.704l0.386-0.704
	l0.705-0.385l-0.705-0.385l-0.386-0.703l-0.385,0.703L0.498,37.61L1.202,37.995z M9.604,37.081l0.385-0.703l0.705-0.385
	l-0.705-0.385l-0.385-0.704l-0.386,0.704l-0.705,0.385l0.705,0.385L9.604,37.081z M7.986,38.698l0.385-0.704l0.705-0.385
	l-0.705-0.385l-0.385-0.703l-0.385,0.703L6.896,37.61l0.705,0.385L7.986,38.698z M4.787,3.534L4.402,4.237L3.697,4.622l0.705,0.385
	L4.787,5.71l0.386-0.704l0.705-0.385L5.173,4.237L4.787,3.534z M0.391,36.378l0.705-0.385l-0.705-0.385l-0.386-0.704L0,34.915v2.155
	l0.006,0.01L0.391,36.378z M4.787,9.532l-0.385,0.703L3.697,10.62l0.705,0.385l0.385,0.704l0.386-0.704l0.705-0.385l-0.705-0.385
	L4.787,9.532z M12.803,37.081l0.385-0.703l0.705-0.385l-0.705-0.385l-0.385-0.704l-0.386,0.704l-0.705,0.385l0.705,0.385
	L12.803,37.081z M6.404,10.913l-0.386,0.704l-0.705,0.385l0.705,0.385l0.386,0.703l0.386-0.703l0.705-0.385L6.79,11.617
	L6.404,10.913z M0.391,12.386l0.705-0.385l-0.705-0.385l-0.386-0.704L0,10.924v2.155l0.006,0.011L0.391,12.386z M2.82,12.386
	l0.386,0.703l0.385-0.703l0.705-0.385l-0.705-0.385l-0.385-0.704L2.82,11.617l-0.705,0.385L2.82,12.386z M1.202,11.004l0.385,0.704
	l0.386-0.704l0.705-0.385l-0.705-0.385L1.588,9.532l-0.385,0.703L0.498,10.62L1.202,11.004z M20.783,38.698l0.386-0.704l0.705-0.385
	l-0.705-0.385l-0.386-0.703l-0.385,0.703l-0.705,0.385l0.705,0.385L20.783,38.698z M31.998,37.081l0.385-0.703l0.705-0.385
	l-0.705-0.385l-0.385-0.704l-0.386,0.704l-0.705,0.385l0.705,0.385L31.998,37.081z M30.381,38.698l0.386-0.704l0.705-0.385
	l-0.705-0.385l-0.386-0.703l-0.386,0.703l-0.705,0.385l0.705,0.385L30.381,38.698z M28.799,37.081l0.385-0.703l0.705-0.385
	l-0.705-0.385l-0.385-0.704l-0.386,0.704l-0.705,0.385l0.705,0.385L28.799,37.081z M27.182,38.698l0.385-0.704l0.705-0.385
	l-0.705-0.385l-0.385-0.703l-0.386,0.703l-0.705,0.385l0.705,0.385L27.182,38.698z M36.78,38.698l0.385-0.704l0.705-0.385
	l-0.705-0.385l-0.385-0.703l-0.386,0.703l-0.705,0.385l0.705,0.385L36.78,38.698z M35.197,37.081l0.386-0.703l0.705-0.385
	l-0.705-0.385l-0.386-0.704l-0.386,0.704l-0.705,0.385l0.705,0.385L35.197,37.081z M33.58,38.698l0.386-0.704l0.705-0.385
	l-0.705-0.385l-0.386-0.703l-0.386,0.703L32.49,37.61l0.705,0.385L33.58,38.698z M17.584,38.698l0.386-0.704l0.705-0.385
	l-0.705-0.385l-0.386-0.703l-0.386,0.703l-0.705,0.385l0.705,0.385L17.584,38.698z M14.385,38.698l0.385-0.704l0.705-0.385
	l-0.705-0.385l-0.385-0.703l-0.386,0.703l-0.705,0.385l0.705,0.385L14.385,38.698z M7.986,6.533L7.601,7.236L6.896,7.621
	l0.705,0.385l0.385,0.703l0.385-0.703l0.705-0.385L8.372,7.236L7.986,6.533z M19.201,37.081l0.386-0.703l0.705-0.385l-0.705-0.385
	l-0.386-0.704l-0.385,0.704l-0.705,0.385l0.705,0.385L19.201,37.081z M16.002,37.081l0.385-0.703l0.705-0.385l-0.705-0.385
	l-0.385-0.704l-0.386,0.704l-0.705,0.385l0.705,0.385L16.002,37.081z M23.983,38.698l0.385-0.704l0.705-0.385l-0.705-0.385
	l-0.385-0.703l-0.386,0.703l-0.705,0.385l0.705,0.385L23.983,38.698z M22.4,37.081l0.386-0.703l0.705-0.385l-0.705-0.385
	L22.4,34.905l-0.386,0.704l-0.705,0.385l0.705,0.385L22.4,37.081z M38.397,37.081l0.386-0.703l0.705-0.385l-0.705-0.385
	l-0.386-0.704l-0.386,0.704l-0.705,0.385l0.705,0.385L38.397,37.081z M7.986,9.532l-0.385,0.703L6.896,10.62l0.705,0.385
	l0.385,0.704l0.385-0.704l0.705-0.385l-0.705-0.385L7.986,9.532z M30.381,3.534l-0.386,0.703l-0.705,0.385l0.705,0.385l0.386,0.704
	l0.386-0.704l0.705-0.385l-0.705-0.385L30.381,3.534z M36.78,3.534l-0.386,0.703l-0.705,0.385l0.705,0.385L36.78,5.71l0.385-0.704
	l0.705-0.385l-0.705-0.385L36.78,3.534z M39.979,3.534l-0.385,0.703l-0.705,0.385l0.705,0.385l0.385,0.704l0.386-0.704l0.705-0.385
	l-0.705-0.385L39.979,3.534z M41.596,4.916L41.21,5.619l-0.705,0.385l0.705,0.385l0.386,0.704l0.386-0.704l0.705-0.385l-0.705-0.385
	L41.596,4.916z M35.197,4.916l-0.386,0.704l-0.705,0.385l0.705,0.385l0.386,0.704l0.386-0.704l0.705-0.385l-0.705-0.385
	L35.197,4.916z M31.998,4.916l-0.386,0.704l-0.705,0.385l0.705,0.385l0.386,0.704l0.385-0.704l0.705-0.385l-0.705-0.385
	L31.998,4.916z M33.58,3.534l-0.386,0.703L32.49,4.622l0.705,0.385L33.58,5.71l0.386-0.704l0.705-0.385l-0.705-0.385L33.58,3.534z
	 M38.397,4.916l-0.386,0.704l-0.705,0.385l0.705,0.385l0.386,0.704l0.386-0.704l0.705-0.385l-0.705-0.385L38.397,4.916z
	 M43.178,3.534l-0.386,0.703l-0.705,0.385l0.705,0.385l0.386,0.704l0.385-0.704l0.705-0.385l-0.705-0.385L43.178,3.534z
	 M47.609,38.607l-0.705,0.385l0.705,0.385l0.385,0.704L48,40.07v-2.155l-0.006-0.01L47.609,38.607z M45.181,38.607l-0.386-0.704
	l-0.386,0.704l-0.705,0.385l0.705,0.385l0.386,0.704l0.386-0.704l0.705-0.385L45.181,38.607z M46.763,40.224l-0.386-0.703
	l-0.386,0.703l-0.705,0.385l0.705,0.385l0.386,0.704l0.386-0.704l0.705-0.385L46.763,40.224z M45.181,5.619l-0.386-0.704
	L44.41,5.619l-0.705,0.385l0.705,0.385l0.386,0.704l0.386-0.704l0.705-0.385L45.181,5.619z M46.763,4.237l-0.386-0.703l-0.386,0.703
	l-0.705,0.385l0.705,0.385l0.386,0.704l0.386-0.704l0.705-0.385L46.763,4.237z M47.609,5.619l-0.705,0.385l0.705,0.385l0.385,0.704
	L48,7.081V4.926l-0.006-0.01L47.609,5.619z M16.002,4.916l-0.386,0.704l-0.705,0.385l0.705,0.385l0.386,0.704l0.385-0.704
	l0.705-0.385l-0.705-0.385L16.002,4.916z M11.186,3.534L10.8,4.237l-0.705,0.385L10.8,5.007l0.386,0.704l0.386-0.704l0.705-0.385
	l-0.705-0.385L11.186,3.534z M43.178,41.697l0.385-0.704l0.705-0.385l-0.705-0.385l-0.385-0.703l-0.386,0.703l-0.705,0.385
	l0.705,0.385L43.178,41.697z M14.385,3.534l-0.386,0.703l-0.705,0.385l0.705,0.385l0.386,0.704l0.385-0.704l0.705-0.385L14.77,4.237
	L14.385,3.534z M12.803,4.916l-0.386,0.704l-0.705,0.385l0.705,0.385l0.386,0.704l0.385-0.704l0.705-0.385l-0.705-0.385
	L12.803,4.916z M6.404,4.916L6.019,5.619L5.314,6.004l0.705,0.385l0.386,0.704L6.79,6.388l0.705-0.385L6.79,5.619L6.404,4.916z
	 M7.986,3.534L7.601,4.237L6.896,4.622l0.705,0.385L7.986,5.71l0.385-0.704l0.705-0.385L8.372,4.237L7.986,3.534z M9.604,4.916
	L9.218,5.619L8.513,6.004l0.705,0.385l0.386,0.704l0.385-0.704l0.705-0.385L9.989,5.619L9.604,4.916z M28.799,4.916l-0.386,0.704
	l-0.705,0.385l0.705,0.385l0.386,0.704l0.385-0.704l0.705-0.385l-0.705-0.385L28.799,4.916z M25.6,4.916l-0.385,0.704l-0.705,0.385
	l0.705,0.385L25.6,7.092l0.385-0.704l0.705-0.385l-0.705-0.385L25.6,4.916z M23.983,3.534l-0.386,0.703l-0.705,0.385l0.705,0.385
	l0.386,0.704l0.385-0.704l0.705-0.385l-0.705-0.385L23.983,3.534z M27.182,3.534l-0.386,0.703l-0.705,0.385l0.705,0.385l0.386,0.704
	l0.385-0.704l0.705-0.385l-0.705-0.385L27.182,3.534z M22.4,4.916l-0.386,0.704L21.31,6.004l0.705,0.385L22.4,7.092l0.386-0.704
	l0.705-0.385l-0.705-0.385L22.4,4.916z M19.201,4.916l-0.385,0.704l-0.705,0.385l0.705,0.385l0.385,0.704l0.386-0.704l0.705-0.385
	l-0.705-0.385L19.201,4.916z M17.584,3.534l-0.386,0.703l-0.705,0.385l0.705,0.385l0.386,0.704l0.386-0.704l0.705-0.385L17.97,4.237
	L17.584,3.534z M20.783,3.534l-0.385,0.703l-0.705,0.385l0.705,0.385l0.385,0.704l0.386-0.704l0.705-0.385l-0.705-0.385
	L20.783,3.534z M0.391,39.376l0.705-0.385l-0.705-0.385l-0.386-0.704L0,37.914v2.155l0.006,0.011L0.391,39.376z M41.596,40.08
	l0.386-0.704l0.705-0.385l-0.705-0.385l-0.386-0.704l-0.386,0.704l-0.705,0.385l0.705,0.385L41.596,40.08z M7.986,41.697
	l0.385-0.704l0.705-0.385l-0.705-0.385l-0.385-0.703l-0.385,0.703l-0.705,0.385l0.705,0.385L7.986,41.697z M6.404,40.08l0.386-0.704
	l0.705-0.385L6.79,38.607l-0.386-0.704l-0.386,0.704l-0.705,0.385l0.705,0.385L6.404,40.08z M11.186,41.697l0.386-0.704l0.705-0.385
	l-0.705-0.385l-0.386-0.703L10.8,40.224l-0.705,0.385l0.705,0.385L11.186,41.697z M16.002,40.08l0.385-0.704l0.705-0.385
	l-0.705-0.385l-0.385-0.704l-0.386,0.704l-0.705,0.385l0.705,0.385L16.002,40.08z M12.803,40.08l0.385-0.704l0.705-0.385
	l-0.705-0.385l-0.385-0.704l-0.386,0.704l-0.705,0.385l0.705,0.385L12.803,40.08z M4.787,41.697l0.386-0.704l0.705-0.385
	l-0.705-0.385l-0.386-0.703l-0.385,0.703l-0.705,0.385l0.705,0.385L4.787,41.697z M14.385,41.697l0.385-0.704l0.705-0.385
	l-0.705-0.385l-0.385-0.703l-0.386,0.703l-0.705,0.385l0.705,0.385L14.385,41.697z M1.202,8.006l0.385,0.703l0.386-0.703
	l0.705-0.385L1.973,7.236L1.588,6.533L1.202,7.236L0.498,7.621L1.202,8.006z M2.82,9.387l0.386,0.704l0.385-0.704l0.705-0.385
	L3.591,8.618L3.205,7.914L2.82,8.618L2.115,9.003L2.82,9.387z M4.787,6.533L4.402,7.236L3.697,7.621l0.705,0.385l0.385,0.703
	l0.386-0.703l0.705-0.385L5.173,7.236L4.787,6.533z M0.391,9.387l0.705-0.385L0.391,8.618L0.006,7.914L0,7.925v2.155l0.006,0.011
	L0.391,9.387z M1.202,40.994l0.385,0.704l0.386-0.704l0.705-0.385l-0.705-0.385l-0.386-0.703l-0.385,0.703l-0.705,0.385
	L1.202,40.994z M2.82,39.376l0.386,0.704l0.385-0.704l0.705-0.385l-0.705-0.385l-0.385-0.704L2.82,38.607l-0.705,0.385L2.82,39.376z
	 M6.404,7.914L6.019,8.618L5.314,9.003l0.705,0.385l0.386,0.704L6.79,9.387l0.705-0.385L6.79,8.618L6.404,7.914z M9.604,40.08
	l0.385-0.704l0.705-0.385l-0.705-0.385l-0.385-0.704l-0.386,0.704l-0.705,0.385l0.705,0.385L9.604,40.08z M35.197,40.08l0.386-0.704
	l0.705-0.385l-0.705-0.385l-0.386-0.704l-0.386,0.704l-0.705,0.385l0.705,0.385L35.197,40.08z M33.58,41.697l0.386-0.704
	l0.705-0.385l-0.705-0.385l-0.386-0.703l-0.386,0.703l-0.705,0.385l0.705,0.385L33.58,41.697z M31.998,40.08l0.385-0.704
	l0.705-0.385l-0.705-0.385l-0.385-0.704l-0.386,0.704l-0.705,0.385l0.705,0.385L31.998,40.08z M30.381,41.697l0.386-0.704
	l0.705-0.385l-0.705-0.385l-0.386-0.703l-0.386,0.703l-0.705,0.385l0.705,0.385L30.381,41.697z M36.78,41.697l0.385-0.704
	l0.705-0.385l-0.705-0.385l-0.385-0.703l-0.386,0.703l-0.705,0.385l0.705,0.385L36.78,41.697z M39.979,41.697l0.386-0.704
	l0.705-0.385l-0.705-0.385l-0.386-0.703l-0.385,0.703l-0.705,0.385l0.705,0.385L39.979,41.697z M38.397,40.08l0.386-0.704
	l0.705-0.385l-0.705-0.385l-0.386-0.704l-0.386,0.704l-0.705,0.385l0.705,0.385L38.397,40.08z M25.6,40.08l0.385-0.704l0.705-0.385
	l-0.705-0.385L25.6,37.904l-0.385,0.704l-0.705,0.385l0.705,0.385L25.6,40.08z M20.783,41.697l0.386-0.704l0.705-0.385l-0.705-0.385
	l-0.386-0.703l-0.385,0.703l-0.705,0.385l0.705,0.385L20.783,41.697z M28.799,40.08l0.385-0.704l0.705-0.385l-0.705-0.385
	l-0.385-0.704l-0.386,0.704l-0.705,0.385l0.705,0.385L28.799,40.08z M22.4,40.08l0.386-0.704l0.705-0.385l-0.705-0.385L22.4,37.904
	l-0.386,0.704l-0.705,0.385l0.705,0.385L22.4,40.08z M19.201,40.08l0.386-0.704l0.705-0.385l-0.705-0.385l-0.386-0.704l-0.385,0.704
	l-0.705,0.385l0.705,0.385L19.201,40.08z M27.182,41.697l0.385-0.704l0.705-0.385l-0.705-0.385l-0.385-0.703l-0.386,0.703
	l-0.705,0.385l0.705,0.385L27.182,41.697z M23.983,41.697l0.385-0.704l0.705-0.385l-0.705-0.385l-0.385-0.703l-0.386,0.703
	l-0.705,0.385l0.705,0.385L23.983,41.697z M17.584,41.697l0.386-0.704l0.705-0.385l-0.705-0.385l-0.386-0.703l-0.386,0.703
	l-0.705,0.385l0.705,0.385L17.584,41.697z"/>
</svg>
