<svg xmlns="http://www.w3.org/2000/svg" width="48" height="48" viewBox="0 0 48 48"><path fill="#FFF" d="M0 0h48v48H0z"/><path fill="none" d="M48 16.43L16.434 48h1.216L48 17.65zM27.724 0L0 27.725v1.205L28.93 0zM32.967 0L0 32.97v1.212L34.178 0zM30.343 0L0 30.344v1.212L31.553 0zM48 3.315L3.323 48h1.212L48 4.527zM35.592 0L0 35.596v1.21L36.802 0zM48 .7L.71 48h1.2L48 1.9zM46.083 0L0 46.09v1.207L47.287 0zM40.834 0L0 40.84v1.217L42.05 0zM38.216 0L0 38.22v1.205L39.42 0zM14.608 0L0 14.61v1.21L15.82 0zM25.108 0L0 25.11v1.2L26.31 0zM9.364 0L0 9.366v1.21L10.575 0zM11.99 0L0 11.99v1.206L13.194 0zM17.233 0L0 17.236v1.21L18.444 0zM22.477 0L0 22.48v1.216L23.694 0zM19.858 0L0 19.86v1.206L21.063 0zM43.828 48L48 43.827v-1.2L42.63 48zM48 37.39L37.393 48H38.6l9.4-9.404zM48 40.01L40.012 48h1.204L48 41.214zM48 34.76L34.762 48h1.217L48 35.976zM48 32.14L32.143 48h1.205L48 33.345zM48 48v-.133l-.133.133zM6.75 0L0 6.753v1.2L7.95 0zM48 29.515L29.518 48h1.21L48 30.727zM46.453 48L48 46.453V45.24L45.242 48zM48 13.81L13.816 48h1.204L48 15.017zM48 26.89L26.892 48h1.212L48 28.1zM48 11.185L11.19 48h1.212L48 12.397zM48 8.56L8.566 48h1.21L48 9.77zM48 5.94L5.95 48H7.15L48 7.146zM48 19.063L19.064 48h1.206L48 20.27zM48 24.265L24.268 48h1.21L48 25.476zM48 21.683L21.684 48h1.17L48 22.85zM43.465 0L0 43.47v1.207L44.67 0zM0 0v.1L.1 0zM4.134 0L0 4.135V5.34L5.337 0zM1.514 0L0 1.514V2.72L2.72 0z"/><path d="M48 12.397L12.402 48h1.414L48 13.81zM26.31 0L0 26.31v1.415L27.724 0zM48 9.77L9.777 48h1.413L48 11.185zM48 15.017L15.02 48h1.414L48 16.43zM48 17.65L17.65 48h1.414L48 19.063zM48 20.27L20.27 48h1.414L48 21.683zM39.42 0L0 39.425v1.414L40.834 0zM31.553 0L0 31.556v1.414L32.967 0zM48 0h-.713L0 47.297V48h.71L48 .7zM48 4.527L4.535 48H5.95L48 5.94zM48 1.9L1.91 48h1.413L48 3.315zM48 7.146L7.152 48h1.414L48 8.56zM28.93 0L0 28.93v1.414L30.343 0zM44.67 0L0 44.677v1.414L46.083 0zM42.05 0L0 42.057v1.414L43.465 0zM34.178 0L0 34.182v1.414L35.592 0zM36.802 0L0 36.806v1.415L38.216 0zM21.063 0L0 21.066v1.414L22.477 0zM18.444 0L0 18.447v1.414L19.858 0zM2.72 0L0 2.72v1.415L4.134 0zM.1 0L0 .1v1.414L1.514 0zM23.694 0L0 23.696v1.414L25.108 0zM15.82 0L0 15.82v1.416L17.233 0zM5.337 0L0 5.34v1.413L6.75 0zM13.194 0L0 13.196v1.415L14.608 0zM7.95 0L0 7.952v1.414L9.364 0zM10.575 0L0 10.577v1.414L11.99 0zM48 38.596L38.6 48h1.412L48 40.01zM48 28.1L28.104 48h1.414L48 29.515zM48 30.727L30.73 48h1.413L48 32.14zM48 33.345L33.348 48h1.414L48 34.76zM48 35.976L35.98 48h1.413L48 37.39zM48 42.628v-1.414L41.216 48h1.414zM48 22.85L22.854 48h1.414L48 24.265zM48 25.476L25.478 48h1.414L48 26.89zM47.867 48l.133-.133v-1.414L46.453 48zM45.242 48L48 45.24v-1.413L43.828 48z"/></svg>