<?xml version="1.0" encoding="utf-8"?>
<!-- Generator: Adobe Illustrator 17.0.0, SVG Export Plug-In . SVG Version: 6.00 Build 0)  -->
<!DOCTYPE svg PUBLIC "-//W3C//DTD SVG 1.1//EN" "http://www.w3.org/Graphics/SVG/1.1/DTD/svg11.dtd">
<svg version="1.1" id="Layer_1" xmlns="http://www.w3.org/2000/svg" xmlns:xlink="http://www.w3.org/1999/xlink" x="0px" y="0px"
	 width="48px" height="48px" viewBox="0 0 48 48" enable-background="new 0 0 48 48" xml:space="preserve">
<path fill="none" d="M0,0h48v48H0V0z"/>
<g>
	<path fill="none" d="M40.509,8.988c0.87-0.226,1.752-0.402,2.638-0.551c0.491-0.079,0.985-0.134,1.48-0.17
		c-0.495,0.036-0.989,0.091-1.48,0.17C42.261,8.585,41.379,8.761,40.509,8.988c-2.029,0.524-3.994,1.29-5.851,2.259
		c-0.584,0.304-1.156,0.628-1.718,0.972c0.561-0.343,1.134-0.668,1.717-0.972C36.515,10.278,38.48,9.512,40.509,8.988z"/>
	<path fill="none" d="M17.906,30.091c2.745-1.094,5.472-2.233,8.16-3.461c1.094-0.502,2.182-1.018,3.255-1.563
		c0.878-0.449,1.751-0.912,2.591-1.43c0.142-0.089,0.282-0.181,0.422-0.274c-0.14,0.092-0.28,0.185-0.422,0.274
		c-0.841,0.517-1.713,0.98-2.591,1.43c-1.073,0.545-2.161,1.061-3.255,1.563C23.378,27.857,20.651,28.996,17.906,30.091
		c-3.16,1.258-6.345,2.451-9.548,3.596C5.587,34.674,2.799,35.614,0,36.52v0c2.799-0.906,5.587-1.846,8.358-2.833
		C11.561,32.542,14.746,31.349,17.906,30.091z"/>
	<path fill="none" d="M32.353,22.349C32.353,22.349,32.353,22.349,32.353,22.349c0.012,0.007,0.036,0.02,0.049,0.027c0,0,0,0,0,0
		C32.39,22.369,32.365,22.356,32.353,22.349z"/>
	<path fill="none" d="M17.849,0L17.849,0c-0.045,4.011,0.239,8.019,0.704,12C18.088,8.019,17.804,4.011,17.849,0z"/>
	<path fill="none" d="M19.779,12.303c-0.034,1.077-0.056,2.154-0.052,3.231c-0.001,0.786,0,1.572,0.02,2.357c0,0,0,0,0,0
		c-0.02-0.785-0.02-1.571-0.019-2.357C19.723,14.457,19.745,13.38,19.779,12.303c0.13-3.806,0.504-7.612,1.283-11.343
		c0.07-0.321,0.144-0.64,0.219-0.96h0c-0.074,0.32-0.148,0.639-0.219,0.96C20.283,4.691,19.909,8.497,19.779,12.303z"/>
	<path fill="none" d="M19.452,11.146c-0.022,2.223,0.049,4.445,0.152,6.666c0,0,0,0,0,0C19.501,15.592,19.43,13.369,19.452,11.146
		c0.024-3.035,0.202-6.072,0.606-9.081c0.096-0.691,0.208-1.379,0.33-2.065h0c-0.122,0.686-0.234,1.375-0.33,2.065
		C19.653,5.074,19.476,8.111,19.452,11.146z"/>
	<path fill="none" d="M18.819,17.106c-1.255-1.174-2.557-2.295-3.882-3.387C16.262,14.811,17.564,15.932,18.819,17.106z"/>
	<path fill="none" d="M32.81,23.022c0.091-0.069,0.185-0.133,0.272-0.207c0.06-0.055,0.121-0.111,0.177-0.17
		c-0.056,0.06-0.118,0.115-0.177,0.17C32.995,22.889,32.901,22.953,32.81,23.022z"/>
	<path fill="none" d="M34.13,21.392c0.561-0.063,1.137-0.071,1.686,0.074c0.297,0.08,0.588,0.212,0.814,0.425
		c0.176,0.162,0.304,0.374,0.371,0.604c0.085,0.291,0.076,0.594,0.025,0.891c0.051-0.297,0.06-0.6-0.025-0.892
		c-0.066-0.229-0.195-0.441-0.371-0.604c-0.227-0.213-0.517-0.345-0.814-0.425C35.268,21.321,34.691,21.329,34.13,21.392
		c-0.511,0.059-1.015,0.169-1.509,0.311c-0.617,0.18-1.223,0.402-1.806,0.674c0.001,0,0.001,0,0.002,0
		c0.583-0.271,1.188-0.493,1.804-0.673C33.116,21.562,33.62,21.451,34.13,21.392z"/>
	<path fill="none" d="M19.089,17.342L19.089,17.342c-0.049-0.032-0.091-0.074-0.133-0.114C18.999,17.268,19.04,17.31,19.089,17.342z
		"/>
	<path fill="none" d="M33.226,22.195C33.227,22.195,33.227,22.195,33.226,22.195C33.227,22.195,33.227,22.195,33.226,22.195z"/>
	<path fill="none" d="M17.247,7.928c0.042,0.246,0.082,0.492,0.126,0.738C17.329,8.42,17.289,8.174,17.247,7.928z"/>
	<path fill="none" d="M19.783,17.968c-0.009-0.008-0.008-0.02-0.014-0.03C19.776,17.947,19.775,17.96,19.783,17.968z"/>
	<path fill="none" d="M25.748,0.604c-0.207,0.39-0.409,0.782-0.603,1.179C25.339,1.386,25.541,0.994,25.748,0.604z"/>
	<path fill="none" d="M20.724,14.907c-0.168,1.134-0.309,2.271-0.43,3.41c-0.004,0.028-0.011,0.055-0.017,0.082
		c0.046,0.031,0.093,0.061,0.14,0.092c0,0,0,0,0,0c-0.047-0.031-0.094-0.061-0.14-0.092c0.006-0.027,0.014-0.055,0.017-0.082
		C20.414,17.178,20.556,16.041,20.724,14.907c0.54-3.657,1.365-7.281,2.604-10.767c0.504-1.41,1.083-2.793,1.735-4.141l0,0
		c-0.653,1.348-1.231,2.731-1.735,4.141C22.088,7.627,21.264,11.25,20.724,14.907z"/>
	<path fill="none" d="M5.427,42.235c0.53-0.217,1.056-0.447,1.581-0.674c0.549-0.233,1.092-0.478,1.637-0.721
		c0.595-0.26,1.183-0.536,1.774-0.807c0.482-0.219,0.959-0.45,1.437-0.676c0.593-0.277,1.178-0.569,1.768-0.854
		c0.586-0.284,1.164-0.583,1.747-0.873c2.786-1.417,5.532-2.915,8.212-4.525c1.635-0.982,3.245-2.006,4.815-3.089
		c1.507-1.047,2.984-2.144,4.362-3.357c0.668-0.597,1.318-1.218,1.895-1.904c0.29-0.347,0.562-0.711,0.78-1.108
		c0.159-0.298,0.3-0.617,0.318-0.959c0,0,0,0,0-0.001c-0.018,0.342-0.159,0.661-0.318,0.959c-0.219,0.397-0.491,0.761-0.781,1.108
		c-0.577,0.686-1.227,1.308-1.895,1.904c-1.378,1.214-2.855,2.31-4.362,3.357c-1.57,1.083-3.18,2.107-4.815,3.089
		c-2.68,1.609-5.426,3.108-8.212,4.525c-0.583,0.29-1.161,0.589-1.747,0.873c-0.589,0.285-1.174,0.577-1.768,0.854
		c-0.479,0.226-0.956,0.456-1.437,0.676c-0.591,0.27-1.179,0.546-1.774,0.806C8.1,41.082,7.557,41.327,7.008,41.56
		C6.482,41.787,5.957,42.016,5.427,42.235c-0.565,0.236-1.13,0.474-1.7,0.698C2.494,43.432,1.249,43.903,0,44.36v0.001
		c1.249-0.457,2.494-0.928,3.727-1.427C4.297,42.709,4.862,42.471,5.427,42.235z"/>
	<path fill="none" d="M36.269,32.342c-0.227,0.287-0.447,0.58-0.685,0.858c-0.253,0.308-0.506,0.616-0.772,0.914
		c-0.244,0.278-0.484,0.559-0.738,0.828c-0.272,0.297-0.54,0.597-0.824,0.883c-0.305,0.318-0.607,0.639-0.924,0.944
		c-0.24,0.239-0.48,0.478-0.722,0.715c0.242-0.237,0.481-0.477,0.722-0.715c0.317-0.306,0.62-0.626,0.924-0.944
		c0.284-0.285,0.552-0.586,0.824-0.883c0.254-0.268,0.494-0.55,0.738-0.828c0.266-0.298,0.519-0.606,0.772-0.914
		C35.822,32.922,36.042,32.629,36.269,32.342c0.238-0.299,0.458-0.612,0.687-0.918c0.346-0.484,0.678-0.98,0.994-1.485
		c-0.316,0.505-0.648,1.001-0.994,1.485C36.727,31.73,36.507,32.043,36.269,32.342z"/>
	<path fill="none" d="M22.274,11.086c0.729-2.488,1.639-4.925,2.767-7.26C23.913,6.161,23.004,8.597,22.274,11.086z"/>
	<path fill="none" d="M35.184,20.58c0.665-0.051,1.34-0.04,1.996,0.093c0.716,0.142,1.421,0.439,1.95,0.954
		c0.314,0.3,0.553,0.673,0.71,1.077c0.159,0.415,0.235,0.859,0.242,1.303c0.018,0.508-0.051,1.016-0.158,1.512
		c-0.182,0.815-0.48,1.599-0.833,2.354c0,0,0,0,0,0c0.353-0.755,0.651-1.54,0.833-2.354c0.107-0.496,0.176-1.003,0.158-1.512
		c-0.007-0.443-0.084-0.888-0.242-1.303c-0.156-0.404-0.396-0.777-0.71-1.077c-0.529-0.515-1.234-0.812-1.95-0.954
		C36.524,20.54,35.85,20.529,35.184,20.58c-1.002,0.084-1.989,0.318-2.938,0.646c-0.836,0.292-1.652,0.646-2.43,1.071c0,0,0,0,0,0
		c0.777-0.425,1.593-0.778,2.429-1.071C33.196,20.899,34.182,20.665,35.184,20.58z"/>
	<path fill="none" d="M21.198,45.845c0.071-0.047,0.142-0.095,0.213-0.142c0.125-0.087,0.25-0.175,0.375-0.262
		c-0.125,0.088-0.25,0.175-0.376,0.262C21.34,45.75,21.269,45.798,21.198,45.845z"/>
	<path fill="none" d="M12.356,11.679c-0.91-0.708-1.823-1.41-2.75-2.094C10.533,10.269,11.446,10.972,12.356,11.679z"/>
	<path fill="none" d="M20.387,15.388c-0.101,0.942-0.183,1.885-0.257,2.83v0C20.204,17.273,20.286,16.33,20.387,15.388
		c0.394-3.72,1.05-7.422,2.113-11.012c0.242-0.813,0.503-1.621,0.787-2.42c-0.284,0.799-0.545,1.607-0.787,2.42
		C21.437,7.966,20.781,11.667,20.387,15.388z"/>
	<path fill="none" d="M20.17,18.327C20.17,18.327,20.17,18.327,20.17,18.327c-0.667-0.449-1.344-0.881-2.03-1.3
		C18.826,17.447,19.504,17.879,20.17,18.327z"/>
	<path fill="none" d="M7.692,10.422c2.896,1.565,5.741,3.229,8.49,5.041c1.301,0.862,2.581,1.756,3.816,2.712
		c0.027-0.14,0.012-0.284,0.029-0.426c0.203-4.341,0.681-8.682,1.677-12.917C22.088,3.199,22.558,1.584,23.114,0h0
		c-0.556,1.584-1.025,3.199-1.411,4.832c-0.996,4.235-1.475,8.577-1.677,12.917c-0.016,0.141-0.002,0.286-0.029,0.426
		c-1.234-0.956-2.515-1.85-3.816-2.712C13.433,13.651,10.588,11.987,7.692,10.422c-2.5-1.346-5.041-2.616-7.625-3.793
		C0.045,6.619,0.022,6.609,0,6.599v0c0.022,0.01,0.045,0.019,0.068,0.03C2.652,7.806,5.192,9.076,7.692,10.422z"/>
	<path fill="none" d="M24.492,9.351c-1.476,3.063-2.584,6.293-3.431,9.582c0,0,0,0,0,0C21.908,15.643,23.016,12.413,24.492,9.351
		c1.405-2.916,3.135-5.686,5.235-8.154c0.35-0.412,0.722-0.804,1.094-1.197h0c-0.371,0.393-0.743,0.785-1.094,1.197
		C27.627,3.665,25.897,6.434,24.492,9.351z"/>
	<path fill="none" d="M18.55,16.751C18.55,16.751,18.549,16.75,18.55,16.751c-0.174-0.155-0.329-0.329-0.495-0.492
		C18.221,16.422,18.376,16.597,18.55,16.751z"/>
	<path fill="none" d="M13.864,11.769c1.113,1.12,2.201,2.266,3.269,3.429C16.065,14.034,14.978,12.889,13.864,11.769z"/>
	<path fill="none" d="M11.565,13.418c1.519,0.758,3.02,1.552,4.498,2.388c0.699,0.396,1.392,0.802,2.078,1.221
		c-0.686-0.419-1.379-0.825-2.078-1.222C14.585,14.97,13.084,14.176,11.565,13.418c-1.487-0.746-2.991-1.457-4.507-2.141
		C4.737,10.233,2.38,9.271,0,8.37v0c2.38,0.901,4.737,1.863,7.057,2.908C8.574,11.962,10.077,12.673,11.565,13.418z"/>
	<path fill="none" d="M1.551,2.316c1.293,0.938,2.569,1.901,3.831,2.88C6.247,5.87,7.094,6.569,7.946,7.26
		C7.094,6.569,6.247,5.87,5.381,5.196C4.119,4.217,2.844,3.254,1.551,2.316z"/>
	<path fill="none" d="M29.72,14.497c0.87-0.707,1.788-1.354,2.732-1.958C31.508,13.143,30.591,13.79,29.72,14.497z"/>
	<path fill="none" d="M10.712,9.551c0.997,0.846,1.995,1.69,2.969,2.562c1.484,1.334,2.942,2.698,4.344,4.118
		c-1.402-1.42-2.86-2.784-4.344-4.118C12.707,11.241,11.709,10.397,10.712,9.551z"/>
	<path fill="none" d="M13.723,11.624L13.723,11.624c-2.516-2.512-5.113-4.943-7.774-7.3c-0.915-0.81-1.839-1.611-2.772-2.401
		c0.933,0.79,1.856,1.591,2.772,2.401C8.611,6.681,11.207,9.111,13.723,11.624z"/>
	<path fill="none" d="M0,3.089L0,3.089c0.056,0.034,0.111,0.069,0.166,0.103C0.111,3.158,0.056,3.123,0,3.089z"/>
	<path fill="none" d="M24.434,23.877c1.434-0.33,2.867-0.661,4.304-0.979c0.735-0.159,1.469-0.326,2.212-0.442
		c0.146-0.013,0.291-0.054,0.438-0.035c0.149-0.004,0.3,0.003,0.447-0.021c0.491-0.174,0.994-0.324,1.512-0.395
		c0.27-0.033,0.55-0.053,0.816,0.018c0.142,0.038,0.29,0.121,0.34,0.267c0.027,0.085,0.026,0.172,0.008,0.257
		c0.018-0.085,0.02-0.173-0.008-0.258c-0.051-0.147-0.199-0.229-0.34-0.267c-0.266-0.071-0.546-0.051-0.816-0.018
		c-0.518,0.07-1.021,0.221-1.512,0.394c-0.147,0.024-0.298,0.016-0.447,0.021c-0.147-0.02-0.292,0.022-0.438,0.035
		c-0.743,0.116-1.477,0.283-2.212,0.442C27.301,23.215,25.868,23.547,24.434,23.877c-3.7,0.853-7.398,1.709-11.099,2.56
		C8.891,27.461,4.446,28.48,0,29.498v0.001c4.446-1.019,8.891-2.037,13.336-3.062C17.036,25.588,20.735,24.731,24.434,23.877z"/>
	<path fill="none" d="M15.559,14.602c1.237,0.919,2.455,1.866,3.632,2.86c0,0,0,0,0-0.001C18.014,16.467,16.797,15.52,15.559,14.602
		c-2.561-1.895-5.21-3.668-7.912-5.356C5.149,7.69,2.599,6.214,0,4.831v0C2.599,6.214,5.148,7.69,7.648,9.246
		C10.349,10.934,12.998,12.707,15.559,14.602z"/>
	<path fill="none" d="M11.56,20.602c2.179,0.014,4.358,0.062,6.535,0.158c2.018,0.094,4.037,0.223,6.044,0.463
		c0.946,0.118,1.892,0.259,2.82,0.478c1.857-1.523,3.935-2.784,6.168-3.672c1.009-0.402,2.051-0.721,3.11-0.96
		c0.255-0.061,0.513-0.111,0.772-0.156c-0.259,0.044-0.516,0.094-0.772,0.155c-1.059,0.24-2.101,0.558-3.11,0.96
		c-2.233,0.888-4.312,2.149-6.168,3.672c-0.929-0.219-1.874-0.36-2.82-0.478c-2.007-0.24-4.026-0.368-6.044-0.463
		C15.918,20.663,13.739,20.615,11.56,20.602c-1.043-0.012-2.086-0.01-3.129,0C5.619,20.623,2.809,20.709,0,20.83v0.001
		c2.809-0.121,5.62-0.207,8.431-0.227C9.474,20.593,10.517,20.592,11.56,20.602z"/>
	<path fill="none" d="M41.432,22.898c0,0.001,0.001,0.002,0.002,0.003C41.433,22.9,41.432,22.899,41.432,22.898z"/>
	<path fill="none" d="M18.397,15.729c0.14,0.44,0.291,0.877,0.423,1.319c0,0,0,0,0,0C18.688,16.606,18.538,16.168,18.397,15.729
		c-1.105-3.385-2.216-6.768-3.232-10.181C14.617,3.707,14.097,1.858,13.613,0l0,0c0.484,1.858,1.004,3.707,1.553,5.548
		C16.182,8.96,17.292,12.344,18.397,15.729z"/>
	<path fill="none" d="M21.874,23.001c1.843-0.234,3.687-0.462,5.538-0.616c0.762-0.06,1.526-0.11,2.291-0.093
		c-0.001,0-0.001,0-0.002,0c-0.764-0.017-1.528,0.033-2.289,0.093C25.561,22.539,23.717,22.767,21.874,23.001
		c-3.714,0.482-7.419,1.027-11.12,1.597C7.165,25.152,3.58,25.735,0,26.346v0c3.58-0.612,7.165-1.194,10.754-1.748
		C14.455,24.028,18.161,23.484,21.874,23.001z"/>
	<path fill="none" d="M18.152,16.095c0.043,0.064,0.083,0.13,0.131,0.191c0-0.001-0.001-0.002-0.002-0.003
		C18.235,16.223,18.195,16.158,18.152,16.095c-1.722-2.584-3.542-5.1-5.39-7.594C10.632,5.635,8.455,2.805,6.247,0h0
		c2.209,2.805,4.386,5.635,6.516,8.501C14.611,10.995,16.43,13.511,18.152,16.095z"/>
	<path fill="none" d="M36.69,20.084c0.961,0.03,1.934,0.214,2.792,0.663c0.493,0.257,0.94,0.609,1.296,1.037
		c-0.356-0.428-0.803-0.78-1.296-1.037C38.624,20.297,37.651,20.113,36.69,20.084c-1.195-0.032-2.387,0.166-3.534,0.493
		c-1.333,0.39-2.614,0.95-3.815,1.648c0,0,0,0,0,0c1.2-0.698,2.482-1.258,3.814-1.648C34.303,20.25,35.495,20.052,36.69,20.084z"/>
	<path fill="none" d="M16.072,18.476c1.847,0.387,3.685,0.819,5.497,1.348c0.864,0.254,1.722,0.529,2.564,0.85
		c-0.001,0-0.001-0.001-0.002-0.001c-0.841-0.321-1.699-0.595-2.562-0.849C19.757,19.296,17.919,18.863,16.072,18.476
		c-1.862-0.39-3.736-0.728-5.614-1.032C6.988,16.886,3.499,16.447,0,16.121v0c3.499,0.326,6.988,0.765,10.457,1.322
		C12.336,17.749,14.209,18.087,16.072,18.476z"/>
	<path fill="none" d="M29.281,18.69c1.923-1.331,4.031-2.399,6.255-3.128c0.279-0.092,0.563-0.164,0.845-0.244
		c-0.282,0.08-0.567,0.153-0.846,0.244C33.312,16.291,31.203,17.359,29.281,18.69c-1.175,0.813-2.282,1.722-3.317,2.705c0,0,0,0,0,0
		C27,20.412,28.107,19.502,29.281,18.69z"/>
	<path fill="none" d="M16.37,12.798c0.612,1.063,1.219,2.13,1.811,3.205c0.086,0.16,0.18,0.315,0.258,0.48
		c0-0.001-0.001-0.001-0.001-0.002c-0.078-0.164-0.172-0.318-0.258-0.478C17.589,14.927,16.982,13.861,16.37,12.798
		c-1.649-2.856-3.342-5.686-5.038-8.514C10.474,2.856,9.618,1.427,8.759,0h0c0.859,1.427,1.714,2.856,2.572,4.283
		C13.027,7.112,14.72,9.942,16.37,12.798z"/>
	<path fill="none" d="M42.124,16.774c0.203,0.026,0.405,0.057,0.607,0.092C42.529,16.831,42.327,16.8,42.124,16.774z"/>
	<path fill="none" d="M14.956,12.423c1.046,1.192,2.075,2.398,3.071,3.633c0.079,0.097,0.156,0.196,0.237,0.291
		c0,0-0.001-0.001-0.001-0.001c-0.082-0.094-0.157-0.193-0.236-0.29C17.031,14.821,16.002,13.615,14.956,12.423
		C12.534,9.671,10.02,7.001,7.45,4.386C5.985,2.9,4.494,1.44,2.984,0l0,0c1.51,1.44,3.002,2.9,4.466,4.386
		C10.02,7.001,12.534,9.671,14.956,12.423z"/>
	<path fill="none" d="M33.295,17.483c-2.41,0.978-4.637,2.384-6.611,4.073c-0.027,0.018-0.054,0.056-0.09,0.041
		c-0.106-0.031-0.211-0.063-0.313-0.106l0,0c0.101,0.042,0.207,0.075,0.313,0.106c0.036,0.015,0.063-0.023,0.09-0.041
		C28.658,19.867,30.884,18.461,33.295,17.483c0.992-0.403,2.014-0.735,3.055-0.984c0.002,0,0.004-0.001,0.005-0.001
		c-0.002,0-0.004,0.001-0.005,0.001C35.308,16.747,34.286,17.079,33.295,17.483z"/>
	<path fill="none" d="M44.384,19.256c-1.554-0.857-3.328-1.269-5.095-1.328c-1.181-0.043-2.364,0.069-3.523,0.296
		c-0.529,0.098-1.049,0.239-1.565,0.387c-2.327,0.684-4.508,1.821-6.464,3.25c-0.02,0.01-0.04,0.032-0.064,0.024
		c-0.11-0.025-0.218-0.056-0.327-0.085c0,0,0,0-0.001,0c0.109,0.029,0.218,0.06,0.327,0.085c0.024,0.008,0.044-0.014,0.064-0.024
		c1.955-1.428,4.137-2.566,6.464-3.25c0.517-0.148,1.036-0.289,1.565-0.387c1.159-0.227,2.342-0.338,3.523-0.296
		C41.056,17.987,42.83,18.4,44.384,19.256c1.352,0.738,2.515,1.82,3.345,3.118c0.099,0.153,0.181,0.317,0.271,0.475v-0.001
		c-0.09-0.158-0.171-0.321-0.271-0.474C46.9,21.076,45.737,19.994,44.384,19.256z"/>
	<path fill="none" d="M42.561,15.246c-1.062-0.06-2.13-0.03-3.187,0.088C40.431,15.215,41.498,15.186,42.561,15.246z"/>
	<path fill="none" d="M46.184,4.039c-0.52,0.053-1.038,0.125-1.554,0.212c-2.292,0.364-4.532,1.044-6.652,1.986
		c-2.123,0.942-4.131,2.143-5.98,3.549c-2.38,1.807-4.496,3.954-6.307,6.329c-0.974,1.274-1.859,2.614-2.675,3.994
		c-0.068-0.037-0.137-0.072-0.205-0.11c0,0,0,0,0,0c0.068,0.038,0.136,0.073,0.205,0.11c0.816-1.38,1.701-2.72,2.675-3.994
		c1.811-2.375,3.927-4.522,6.307-6.329c1.849-1.406,3.856-2.606,5.98-3.549c2.12-0.943,4.36-1.622,6.652-1.986
		C45.146,4.164,45.664,4.092,46.184,4.039c0.559-0.045,1.119-0.064,1.68-0.068C47.909,3.97,47.955,3.973,48,3.973v0
		c-0.045,0-0.091-0.003-0.136-0.003C47.303,3.974,46.743,3.993,46.184,4.039z"/>
	<path fill="none" d="M38.049,16.166c-0.002,0-0.003,0.001-0.005,0.001C38.046,16.167,38.047,16.167,38.049,16.166
		c1.971-0.294,3.995-0.287,5.953,0.098c1.392,0.272,2.743,0.751,3.998,1.414v0c-1.255-0.663-2.605-1.142-3.998-1.414
		C42.044,15.878,40.02,15.873,38.049,16.166z"/>
	<path fill="none" d="M30.967,16.573c0.008-0.005,0.015-0.011,0.023-0.016C30.982,16.562,30.975,16.568,30.967,16.573z"/>
	<path fill="none" d="M32.05,11.355c-0.813,0.576-1.607,1.18-2.359,1.832c-0.129,0.112-0.247,0.236-0.375,0.35
		c0.127-0.114,0.245-0.238,0.375-0.35C30.443,12.535,31.237,11.932,32.05,11.355z"/>
	<path fill="none" d="M42.977,20.808c-0.565-0.472-1.21-0.844-1.893-1.115c-0.866-0.345-1.79-0.532-2.718-0.598
		c-1.167-0.084-2.341,0.024-3.485,0.256c-1.063,0.215-2.1,0.55-3.1,0.964c-1.14,0.475-2.233,1.061-3.266,1.736
		c-0.022,0.017-0.045,0.023-0.071,0.017c-0.111-0.025-0.219-0.057-0.33-0.08c0,0,0,0,0,0c0.111,0.023,0.22,0.055,0.331,0.08
		c0.026,0.006,0.049,0.001,0.071-0.017c1.033-0.675,2.127-1.26,3.266-1.736c1.001-0.414,2.038-0.75,3.101-0.964
		c1.144-0.232,2.319-0.339,3.485-0.256c0.928,0.066,1.852,0.253,2.718,0.598C41.768,19.965,42.413,20.337,42.977,20.808
		c0.296,0.245,0.569,0.518,0.815,0.812C43.546,21.326,43.273,21.053,42.977,20.808z"/>
	<path fill="none" d="M47.004,0.701c-1.114,0.101-2.225,0.253-3.318,0.497C42,1.569,40.357,2.129,38.783,2.838
		c-2.171,0.978-4.21,2.24-6.082,3.71c-2.403,1.888-4.53,4.119-6.345,6.576c-1.48,1.998-2.748,4.147-3.843,6.378
		c-0.042,0.09-0.091,0.177-0.128,0.271c0,0,0,0,0,0c0.036-0.093,0.085-0.18,0.128-0.271c1.095-2.23,2.364-4.38,3.843-6.378
		c1.815-2.457,3.941-4.688,6.345-6.576c1.872-1.47,3.911-2.732,6.081-3.71c1.574-0.71,3.217-1.269,4.903-1.641
		C44.779,0.954,45.89,0.802,47.004,0.701c0.327-0.018,0.654-0.049,0.982-0.041c0.005,0,0.009,0,0.014,0v0c-0.005,0-0.009,0-0.014,0
		C47.658,0.652,47.331,0.682,47.004,0.701z"/>
	<path fill="none" d="M44.411,3.251c0.586-0.105,1.175-0.198,1.766-0.269C46.782,2.911,47.391,2.894,48,2.893v0
		c-0.609,0.001-1.218,0.018-1.823,0.089C45.586,3.053,44.997,3.146,44.411,3.251z"/>
	<path fill="none" d="M47.065,39.379c-0.152,0.328-0.307,0.654-0.461,0.981c-0.2,0.441-0.437,0.863-0.656,1.295
		c-0.17,0.344-0.365,0.675-0.554,1.009c0,0,0,0,0,0c0.189-0.334,0.384-0.665,0.554-1.009c0.219-0.431,0.456-0.854,0.656-1.295
		C46.758,40.033,46.913,39.707,47.065,39.379c0.182-0.423,0.36-0.847,0.539-1.271c0.134-0.349,0.263-0.699,0.396-1.048v0
		c-0.133,0.349-0.262,0.7-0.396,1.049C47.425,38.532,47.246,38.957,47.065,39.379z"/>
	<path fill="none" d="M29.217,16.696c0.989-0.77,2.033-1.47,3.118-2.1C31.25,15.227,30.206,15.926,29.217,16.696
		c-1.617,1.256-3.095,2.687-4.43,4.238c0.088,0.031,0.173,0.073,0.263,0.099c0,0,0,0,0,0c-0.09-0.027-0.175-0.068-0.263-0.099
		C26.123,19.384,27.601,17.953,29.217,16.696z"/>
	<path fill="none" d="M38.758,11.91c-0.968,0.259-1.918,0.581-2.849,0.951C36.84,12.491,37.789,12.169,38.758,11.91
		C38.758,11.91,38.758,11.91,38.758,11.91z"/>
	<path fill="none" d="M32.646,15.615c-0.234,0.122-0.457,0.262-0.687,0.391C32.189,15.877,32.412,15.736,32.646,15.615
		C32.646,15.615,32.646,15.615,32.646,15.615z"/>
	<path fill="none" d="M44.408,6.324c-0.897,0.141-1.79,0.306-2.671,0.528c-1.882,0.46-3.71,1.134-5.455,1.977
		c-0.552,0.268-1.093,0.556-1.627,0.858c0.534-0.301,1.075-0.59,1.626-0.858c1.744-0.843,3.572-1.517,5.455-1.977
		C42.618,6.63,43.511,6.465,44.408,6.324c1.028-0.155,2.07-0.192,3.109-0.212C47.678,6.11,47.839,6.12,48,6.122v0
		c-0.161-0.002-0.321-0.012-0.482-0.01C46.479,6.131,45.437,6.169,44.408,6.324z"/>
	<path fill="none" d="M42.403,10.337c-0.424,0.055-0.845,0.133-1.265,0.214c-0.47,0.093-0.939,0.193-1.403,0.309
		c-2.13,0.528-4.192,1.329-6.129,2.36c-2.438,1.296-4.676,2.961-6.647,4.894c-0.304,0.305-0.613,0.606-0.905,0.924
		c-0.543,0.569-1.054,1.168-1.561,1.769c-0.089-0.021-0.171-0.065-0.256-0.096l0,0c0.086,0.031,0.167,0.075,0.256,0.096
		c0.506-0.602,1.018-1.2,1.561-1.769c0.292-0.318,0.601-0.619,0.905-0.924c1.97-1.933,4.208-3.598,6.647-4.894
		c1.937-1.031,3.998-1.832,6.129-2.36c0.465-0.117,0.933-0.216,1.403-0.309C41.558,10.47,41.979,10.392,42.403,10.337
		c1.097-0.132,2.202-0.214,3.308-0.21c0.765,0.003,1.528,0.055,2.289,0.134v0c-0.761-0.08-1.525-0.132-2.289-0.134
		C44.605,10.123,43.5,10.205,42.403,10.337z"/>
	<path fill="none" d="M40.834,12.216c-0.955,0.157-1.902,0.364-2.836,0.621c-0.981,0.274-1.946,0.607-2.887,0.996
		c-1.423,0.587-2.784,1.317-4.083,2.144c1.299-0.827,2.659-1.556,4.082-2.144c0.941-0.389,1.906-0.722,2.887-0.996
		C38.932,12.58,39.879,12.374,40.834,12.216c0.997-0.138,2-0.23,3.007-0.253c1.391-0.03,2.788,0.072,4.159,0.312v0
		c-1.372-0.24-2.768-0.341-4.159-0.312C42.835,11.986,41.831,12.078,40.834,12.216z"/>
	<path fill="none" d="M25.657,20.855c0.271-0.271,0.539-0.544,0.82-0.805c0.76-0.723,1.569-1.393,2.404-2.027
		c-0.836,0.634-1.645,1.304-2.405,2.027C26.196,20.311,25.927,20.585,25.657,20.855c-0.098,0.1-0.198,0.198-0.289,0.303
		c0.09,0.034,0.177,0.078,0.27,0.102c0,0,0,0,0,0c-0.094-0.024-0.18-0.068-0.27-0.102C25.459,21.053,25.559,20.955,25.657,20.855z"
		/>
	<path fill="none" d="M25.242,17.381c0.309-0.411,0.611-0.827,0.938-1.224c0.35-0.426,0.72-0.836,1.091-1.245
		c-0.371,0.409-0.74,0.819-1.091,1.245C25.853,16.554,25.551,16.97,25.242,17.381z"/>
	<path fill="none" d="M23.481,20.348C23.481,20.348,23.481,20.348,23.481,20.348c-0.076-0.032-0.149-0.072-0.22-0.114
		c0.146-0.232,0.307-0.454,0.457-0.684c-0.15,0.23-0.312,0.452-0.457,0.684C23.332,20.276,23.405,20.316,23.481,20.348z"/>
	<path fill="none" d="M40.592,13.785c-0.512,0.058-1.024,0.118-1.53,0.216c-0.982,0.189-1.956,0.426-2.909,0.732
		c-1.16,0.371-2.293,0.828-3.384,1.371c-0.519,0.255-1.021,0.54-1.521,0.831c0.499-0.291,1.002-0.576,1.52-0.831
		c1.091-0.542,2.224-0.999,3.384-1.371c0.953-0.306,1.926-0.543,2.909-0.732C39.567,13.903,40.079,13.842,40.592,13.785
		c1.975-0.218,3.984-0.165,5.939,0.2c0.495,0.091,0.984,0.211,1.469,0.343v0c-0.485-0.132-0.974-0.252-1.469-0.343
		C44.576,13.62,42.567,13.567,40.592,13.785z"/>
	<path fill="none" d="M39.688,46.121c0.242-0.312,0.487-0.623,0.729-0.937c0.263-0.36,0.524-0.721,0.787-1.082
		c0.216-0.288,0.412-0.591,0.614-0.889c0.209-0.312,0.427-0.619,0.624-0.939c0.224-0.358,0.449-0.716,0.674-1.074
		c0.194-0.335,0.387-0.669,0.58-1.003c0.217-0.365,0.406-0.746,0.607-1.12c0.278-0.505,0.514-1.031,0.769-1.548
		c0.183-0.403,0.356-0.809,0.534-1.214c0,0,0,0,0,0c-0.178,0.405-0.351,0.812-0.534,1.214c-0.255,0.517-0.491,1.043-0.769,1.548
		c-0.202,0.374-0.39,0.755-0.607,1.12c-0.193,0.334-0.386,0.669-0.58,1.003c-0.225,0.358-0.449,0.716-0.674,1.074
		c-0.197,0.32-0.415,0.627-0.624,0.939c-0.202,0.298-0.398,0.601-0.614,0.889c-0.263,0.361-0.524,0.722-0.787,1.082
		C40.175,45.498,39.93,45.809,39.688,46.121c-0.458,0.601-0.958,1.169-1.438,1.753c-0.036,0.042-0.074,0.084-0.111,0.126h0
		c0.037-0.042,0.075-0.083,0.111-0.125C38.729,47.29,39.229,46.723,39.688,46.121z"/>
	<path fill="none" d="M30.719,46.783c0.303-0.279,0.612-0.552,0.904-0.843c0.305-0.292,0.607-0.586,0.912-0.877
		c0.254-0.254,0.502-0.514,0.755-0.768c0.545-0.539,1.055-1.112,1.581-1.67c0.476-0.547,0.968-1.08,1.425-1.643
		c0.261-0.321,0.535-0.632,0.787-0.959c0.244-0.312,0.488-0.623,0.731-0.935c0.213-0.289,0.425-0.577,0.637-0.866
		c0.26-0.346,0.497-0.709,0.745-1.063c0.237-0.336,0.452-0.687,0.676-1.032c0.221-0.332,0.416-0.681,0.624-1.021
		c0.203-0.33,0.383-0.673,0.571-1.012c0.204-0.359,0.379-0.734,0.569-1.1c0.104-0.21,0.197-0.424,0.296-0.635
		c0.188-0.391,0.343-0.796,0.511-1.195c0.132-0.363,0.276-0.723,0.39-1.092c0.077-0.243,0.161-0.484,0.223-0.731
		c0.323-1.14,0.53-2.319,0.524-3.506c-0.005-0.766-0.102-1.537-0.338-2.268c-0.061-0.193-0.133-0.383-0.214-0.569
		c0.081,0.185,0.152,0.375,0.214,0.568c0.236,0.731,0.333,1.501,0.338,2.268c0.005,1.187-0.202,2.367-0.524,3.506
		c-0.062,0.247-0.147,0.488-0.223,0.731c-0.114,0.369-0.258,0.729-0.39,1.092c-0.168,0.399-0.324,0.804-0.511,1.195
		c-0.1,0.211-0.192,0.426-0.296,0.635c-0.19,0.366-0.365,0.741-0.569,1.1c-0.189,0.338-0.369,0.681-0.571,1.012
		c-0.208,0.34-0.403,0.689-0.624,1.021c-0.224,0.345-0.439,0.696-0.676,1.032c-0.248,0.354-0.485,0.717-0.745,1.063
		c-0.212,0.289-0.424,0.577-0.637,0.866c-0.243,0.312-0.488,0.623-0.731,0.935c-0.252,0.328-0.526,0.639-0.787,0.959
		c-0.458,0.563-0.95,1.096-1.425,1.643c-0.526,0.557-1.036,1.131-1.581,1.67c-0.253,0.254-0.501,0.514-0.755,0.768
		c-0.305,0.291-0.607,0.585-0.912,0.877C31.331,46.23,31.022,46.504,30.719,46.783c-0.255,0.232-0.51,0.464-0.765,0.697
		c-0.201,0.173-0.401,0.346-0.601,0.52h0.001c0.2-0.173,0.4-0.346,0.6-0.519C30.209,47.248,30.464,47.016,30.719,46.783z"/>
	<path fill="none" d="M25.006,14.294c-1.074,1.714-2.011,3.511-2.843,5.354h0C22.995,17.805,23.932,16.007,25.006,14.294
		c0.827-1.322,1.733-2.595,2.718-3.804c0.463-0.569,0.945-1.123,1.443-1.662c-0.498,0.539-0.979,1.094-1.443,1.662
		C26.739,11.698,25.833,12.971,25.006,14.294z"/>
	<path fill="none" d="M47.074,31.649c-0.022,0.107-0.047,0.214-0.07,0.321C47.027,31.862,47.053,31.756,47.074,31.649z"/>
	<path fill="none" d="M31.498,3.252C31.246,3.501,30.986,3.742,30.743,4c-2.257,2.302-4.171,4.93-5.753,7.736
		c-0.841,1.492-1.589,3.037-2.252,4.616c-0.41,0.974-0.785,1.962-1.14,2.957c0,0,0,0,0,0c0.355-0.995,0.73-1.983,1.14-2.957
		c0.663-1.579,1.411-3.124,2.252-4.616C26.572,8.93,28.486,6.302,30.743,4C30.986,3.742,31.246,3.501,31.498,3.252
		c0.951-0.906,1.955-1.757,3.015-2.532c0.343-0.254,0.703-0.484,1.06-0.72h0c-0.356,0.236-0.716,0.466-1.06,0.72
		C33.452,1.495,32.448,2.346,31.498,3.252z"/>
	<path fill="none" d="M33.795,0L33.795,0c-0.808,0.637-1.579,1.317-2.316,2.034C32.216,1.317,32.988,0.637,33.795,0z"/>
	<path fill="none" d="M34.1,4.452c-0.597,0.428-1.177,0.877-1.742,1.345C32.923,5.329,33.504,4.88,34.1,4.452
		c1.772-1.269,3.681-2.354,5.701-3.178C41.138,0.726,42.525,0.294,43.94,0h0c-1.415,0.294-2.802,0.726-4.139,1.274
		C37.782,2.099,35.872,3.183,34.1,4.452z"/>
	<path fill="none" d="M33.993,2.293c-2.419,1.829-4.554,4.019-6.389,6.43c-1.962,2.576-3.573,5.408-4.875,8.37
		c-0.338,0.766-0.655,1.542-0.957,2.323h0c0.303-0.781,0.62-1.557,0.957-2.323c1.302-2.962,2.914-5.794,4.875-8.37
		C29.439,6.312,31.574,4.122,33.993,2.293c1.008-0.76,2.064-1.457,3.166-2.075C37.294,0.142,37.433,0.073,37.57,0h0
		c-0.137,0.073-0.276,0.142-0.412,0.218C36.057,0.836,35.001,1.533,33.993,2.293z"/>
	<path fill="none" d="M26.663,6.726c-1.796,2.811-3.223,5.848-4.341,8.988c-0.3,0.838-0.577,1.685-0.836,2.537
		c-0.081,0.272-0.167,0.543-0.24,0.817c0.052,0.036,0.104,0.076,0.164,0.101v0c-0.06-0.025-0.111-0.064-0.164-0.101
		c0.073-0.274,0.159-0.545,0.24-0.817c0.26-0.852,0.536-1.699,0.836-2.537C23.44,12.574,24.867,9.537,26.663,6.726
		C28.239,4.263,30.107,1.979,32.263,0l0,0C30.107,1.979,28.239,4.263,26.663,6.726z"/>
	<path fill="none" d="M46.536,33.733c-0.062,0.219-0.134,0.434-0.208,0.649C46.401,34.168,46.473,33.952,46.536,33.733
		c0.05-0.167,0.1-0.336,0.15-0.503c0.04-0.127,0.069-0.258,0.102-0.387c-0.033,0.129-0.062,0.259-0.101,0.387
		C46.636,33.397,46.586,33.566,46.536,33.733z"/>
	<path fill="none" d="M45.627,36.263c0.149-0.375,0.297-0.751,0.441-1.128c0.078-0.233,0.162-0.465,0.242-0.698
		c-0.08,0.233-0.164,0.465-0.242,0.698C45.923,35.512,45.776,35.888,45.627,36.263z"/>
	<path fill="none" d="M11.614,47.426c0.36-0.19,0.725-0.369,1.082-0.564c0.685-0.37,1.373-0.733,2.049-1.12
		c0.393-0.223,0.79-0.439,1.179-0.669c0.656-0.386,1.316-0.765,1.963-1.167c0.39-0.24,0.784-0.473,1.169-0.72
		c0.624-0.397,1.252-0.788,1.866-1.2c0.349-0.233,0.705-0.457,1.049-0.698c0.378-0.258,0.757-0.517,1.134-0.776
		c0.613-0.436,1.231-0.865,1.834-1.315c0.333-0.249,0.672-0.491,1.002-0.745c0.329-0.253,0.66-0.505,0.989-0.758
		c0.307-0.242,0.611-0.486,0.918-0.729c0.314-0.246,0.618-0.506,0.928-0.759c0.328-0.267,0.648-0.543,0.967-0.819
		c0.267-0.227,0.532-0.457,0.791-0.693c0.297-0.265,0.595-0.528,0.883-0.803c0.274-0.254,0.549-0.507,0.815-0.77
		c0.826-0.793,1.621-1.618,2.38-2.476c0.236-0.259,0.455-0.532,0.684-0.797c0.768-0.936,1.493-1.911,2.097-2.961
		c0.377-0.661,0.709-1.352,0.928-2.082c0.127-0.443,0.218-0.901,0.209-1.365c0,0,0,0,0,0c0.009,0.463-0.082,0.922-0.209,1.365
		c-0.219,0.73-0.551,1.421-0.928,2.082c-0.604,1.05-1.329,2.026-2.097,2.961c-0.229,0.265-0.449,0.538-0.684,0.797
		c-0.758,0.858-1.554,1.683-2.38,2.476c-0.265,0.263-0.54,0.516-0.815,0.77c-0.288,0.275-0.586,0.538-0.883,0.803
		c-0.259,0.236-0.524,0.466-0.791,0.693c-0.319,0.277-0.639,0.552-0.967,0.819c-0.309,0.253-0.613,0.512-0.928,0.759
		c-0.306,0.243-0.611,0.487-0.918,0.729c-0.329,0.253-0.66,0.505-0.989,0.758c-0.329,0.255-0.668,0.496-1.002,0.745
		c-0.604,0.449-1.221,0.879-1.834,1.315c-0.378,0.259-0.756,0.518-1.134,0.776c-0.344,0.241-0.7,0.465-1.049,0.698
		c-0.614,0.413-1.242,0.803-1.866,1.2c-0.386,0.247-0.78,0.48-1.169,0.72c-0.646,0.402-1.307,0.78-1.963,1.167
		c-0.389,0.23-0.786,0.446-1.179,0.669c-0.675,0.387-1.364,0.75-2.049,1.12C12.339,47.056,11.974,47.235,11.614,47.426
		c-0.351,0.177-0.697,0.362-1.049,0.535c-0.027,0.013-0.054,0.027-0.081,0.04h0.001c0.027-0.013,0.053-0.027,0.08-0.039
		C10.918,47.788,11.264,47.603,11.614,47.426z"/>
	<path d="M15.559,14.602c1.237,0.919,2.454,1.865,3.632,2.86c-0.012-0.027-0.023-0.055-0.029-0.084
		c-0.198-1.113-0.395-2.228-0.582-3.343c-0.626-3.728-1.145-7.478-1.428-11.249C17.085,1.858,17.035,0.929,17,0h-0.821
		c0.177,1.864,0.406,3.723,0.686,5.575c0.118,0.786,0.249,1.569,0.382,2.353c0.042,0.246,0.082,0.492,0.126,0.738
		c0.475,2.708,1.025,5.404,1.6,8.093c0.037,0.195,0.09,0.387,0.117,0.584c0,0,0,0,0,0v0c-0.049-0.032-0.09-0.074-0.133-0.114
		c-0.008-0.008-0.018-0.015-0.026-0.023c-0.036-0.034-0.075-0.066-0.111-0.1c-1.255-1.173-2.557-2.295-3.882-3.387
		c-0.118-0.097-0.233-0.198-0.351-0.295c-0.731-0.597-1.485-1.165-2.23-1.744c-0.91-0.708-1.823-1.41-2.75-2.094
		C8.567,8.82,7.528,8.055,6.471,7.316C4.41,5.88,2.304,4.51,0.166,3.192C0.111,3.158,0.056,3.123,0,3.089v1.742
		C2.599,6.214,5.149,7.69,7.648,9.246C10.349,10.933,12.999,12.707,15.559,14.602z"/>
	<path d="M5.381,5.196C6.247,5.87,7.094,6.569,7.946,7.26c0.93,0.754,1.853,1.516,2.766,2.291c0.997,0.846,1.995,1.69,2.969,2.562
		c1.484,1.333,2.942,2.698,4.344,4.118c0.008,0.008,0.017,0.016,0.025,0.025c0.001,0.001,0.003,0.003,0.004,0.004
		c0.166,0.162,0.321,0.337,0.495,0.491c-0.462-0.527-0.942-1.037-1.416-1.553c-1.069-1.163-2.156-2.309-3.269-3.429
		c-0.048-0.048-0.093-0.097-0.141-0.145c-2.516-2.512-5.112-4.943-7.774-7.3c-0.915-0.81-1.839-1.611-2.772-2.401
		C2.41,1.272,1.632,0.634,0.851,0H0v1.242c0.515,0.361,1.041,0.706,1.551,1.075C2.844,3.254,4.119,4.217,5.381,5.196z"/>
	<path d="M14.956,12.423c1.046,1.192,2.075,2.398,3.071,3.633c0.079,0.096,0.155,0.196,0.236,0.29
		c-0.088-0.145-0.197-0.276-0.295-0.415c-1.836-2.493-3.776-4.908-5.751-7.292C10.94,7.101,9.645,5.578,8.334,4.07
		C7.143,2.701,5.936,1.346,4.719,0H2.984c1.51,1.44,3.002,2.9,4.466,4.386C10.02,7.001,12.534,9.671,14.956,12.423z"/>
	<path d="M18.153,16.095c0.042,0.063,0.082,0.128,0.129,0.188c-0.413-0.698-0.844-1.386-1.274-2.074
		c-1.683-2.681-3.431-5.321-5.196-7.948C10.402,4.166,8.98,2.079,7.547,0h-1.3c2.209,2.805,4.386,5.635,6.516,8.501
		C14.611,10.995,16.43,13.511,18.153,16.095z"/>
	<path d="M16.37,12.797c0.613,1.063,1.219,2.13,1.811,3.205c0.085,0.159,0.18,0.314,0.258,0.478
		c-0.049-0.151-0.137-0.286-0.202-0.43c-1.529-3.047-3.132-6.056-4.726-9.069C12.279,4.657,11.05,2.332,9.835,0H8.759
		c0.859,1.427,1.714,2.856,2.572,4.283C13.027,7.112,14.72,9.942,16.37,12.797z"/>
	<path d="M18.229,15.874c0.153,0.342,0.313,0.68,0.456,1.026c-0.046-0.167-0.124-0.323-0.184-0.485
		c-1.293-3.173-2.636-6.324-3.936-9.494C13.62,4.625,12.699,2.319,11.81,0h-0.941c1.324,2.944,2.687,5.87,4.061,8.791
		C16.037,11.149,17.151,13.503,18.229,15.874z"/>
	<path d="M18.722,16.825c0.031,0.075,0.041,0.161,0.099,0.222c-0.133-0.442-0.283-0.879-0.423-1.319
		c-1.105-3.385-2.216-6.768-3.232-10.181C14.617,3.707,14.097,1.858,13.613,0h-0.865c1.043,3.256,2.177,6.482,3.35,9.694
		C16.966,12.073,17.858,14.444,18.722,16.825z"/>
	<path d="M18.92,17.136c0.01,0.028,0.034,0.047,0.054,0.069c-0.032-0.18-0.086-0.354-0.127-0.532
		c-0.898-3.6-1.777-7.205-2.504-10.844C15.954,3.895,15.615,1.951,15.322,0h-0.831c0.71,3.475,1.572,6.918,2.507,10.339
		C17.62,12.61,18.273,14.873,18.92,17.136z"/>
	<path d="M19.27,17.395c0.008,0.045,0.003,0.092,0.012,0.137c0.028,0.034,0.064,0.062,0.097,0.091
		c-0.472-4.147-0.827-8.314-0.854-12.49C18.511,3.421,18.563,1.709,18.672,0h-0.822c-0.045,4.011,0.239,8.019,0.704,12
		C18.762,13.802,19.009,15.6,19.27,17.395z"/>
	<path d="M19.323,15.229c0.054,0.82,0.114,1.639,0.181,2.458c-0.004,0.062,0.062,0.088,0.1,0.124
		c-0.102-2.22-0.173-4.443-0.152-6.666c0.024-3.035,0.202-6.072,0.606-9.081c0.095-0.691,0.208-1.379,0.33-2.065h-0.849
		c-0.103,0.828-0.184,1.659-0.251,2.49C18.961,6.729,19.042,10.99,19.323,15.229z"/>
	<path d="M19.779,12.303c-0.034,1.077-0.056,2.154-0.052,3.231c-0.001,0.786,0,1.572,0.019,2.357
		c-0.002,0.02,0.012,0.032,0.022,0.047c0.006,0.009,0.005,0.022,0.014,0.03c0.023,0.02,0.051,0.036,0.072,0.054
		c0.013-0.28,0.007-0.561,0.016-0.842c0.08-3.962,0.369-7.927,1.059-11.833C21.249,3.544,21.662,1.759,22.169,0h-0.888
		c-0.074,0.32-0.148,0.639-0.219,0.96C20.284,4.691,19.909,8.497,19.779,12.303z"/>
	<path d="M11.565,13.418c1.519,0.758,3.02,1.552,4.498,2.388c0.699,0.397,1.392,0.803,2.078,1.222c0.686,0.419,1.363,0.851,2.03,1.3
		c-0.019-0.035-0.049-0.068-0.04-0.11v0v0c0.074-0.944,0.156-1.888,0.257-2.83c0.394-3.72,1.05-7.422,2.113-11.012
		c0.242-0.813,0.503-1.621,0.787-2.42c0.235-0.66,0.497-1.309,0.766-1.956h-0.939c-0.556,1.584-1.025,3.199-1.411,4.833
		c-0.996,4.235-1.475,8.577-1.677,12.917c-0.016,0.142-0.002,0.286-0.029,0.426c-1.234-0.956-2.515-1.85-3.816-2.712
		c-2.749-1.812-5.594-3.476-8.49-5.041c-2.5-1.346-5.04-2.616-7.624-3.793C0.045,6.619,0.022,6.609,0,6.599V8.37
		c2.38,0.901,4.737,1.863,7.057,2.908C8.574,11.962,10.077,12.673,11.565,13.418z"/>
	<path d="M20.724,14.907c-0.168,1.134-0.31,2.271-0.43,3.41c-0.004,0.028-0.011,0.055-0.017,0.082
		c0.046,0.031,0.093,0.061,0.14,0.092c0.258-1.876,0.571-3.746,0.974-5.597c0.734-3.383,1.757-6.712,3.168-9.876
		c0.186-0.416,0.388-0.826,0.587-1.236c0.193-0.397,0.396-0.789,0.603-1.179C25.856,0.402,25.962,0.2,26.073,0h-1.01
		c-0.653,1.348-1.231,2.731-1.735,4.141C22.088,7.627,21.264,11.25,20.724,14.907z"/>
	<path d="M22.274,11.086c-0.243,0.829-0.466,1.665-0.671,2.504c-0.406,1.659-0.734,3.335-1.02,5.019
		c0.047,0.035,0.096,0.068,0.147,0.098c0.699-3.567,1.667-7.091,3.044-10.459C24.963,5.338,26.459,2.546,28.306,0h-1.123
		c-0.786,1.233-1.503,2.51-2.141,3.826C23.913,6.161,23.004,8.597,22.274,11.086z"/>
	<path d="M27.165,3.225c-1.867,2.889-3.331,6.026-4.462,9.271c-0.723,2.076-1.312,4.197-1.797,6.341
		c0.052,0.031,0.102,0.066,0.155,0.096c0.846-3.29,1.955-6.52,3.431-9.582c1.405-2.916,3.135-5.686,5.235-8.154
		c0.35-0.412,0.722-0.804,1.094-1.197h-1.279c-0.37,0.446-0.739,0.894-1.085,1.36C28.006,1.967,27.576,2.59,27.165,3.225z"/>
	<path d="M26.663,6.726c-1.796,2.811-3.223,5.848-4.341,8.988c-0.3,0.838-0.577,1.685-0.836,2.537
		c-0.081,0.272-0.167,0.543-0.24,0.817c0.053,0.036,0.104,0.076,0.164,0.101c1.026-3.218,2.338-6.353,4.025-9.282
		c1.528-2.656,3.358-5.145,5.502-7.337c0.175-0.178,0.363-0.341,0.542-0.515C32.216,1.317,32.987,0.637,33.795,0h-1.532
		C30.107,1.979,28.239,4.263,26.663,6.726z"/>
	<path d="M7.607,14.059c1.664,0.494,3.318,1.022,4.959,1.585c1.686,0.581,3.36,1.2,5.01,1.877c1.558,0.642,3.099,1.332,4.587,2.126
		c0.832-1.843,1.769-3.64,2.843-5.354c0.827-1.322,1.733-2.595,2.718-3.804c0.464-0.569,0.945-1.123,1.443-1.662
		c0.997-1.078,2.062-2.092,3.191-3.029c0.565-0.468,1.146-0.917,1.742-1.345c1.772-1.269,3.681-2.354,5.701-3.178
		C41.138,0.726,42.525,0.294,43.94,0h-3.773c-0.57,0.225-1.134,0.464-1.686,0.731c-0.906,0.438-1.786,0.928-2.637,1.464
		c-2.242,1.41-4.283,3.128-6.1,5.053c-2.194,2.324-4.058,4.952-5.592,7.753c-0.808,1.47-1.524,2.99-2.172,4.537
		c-0.074-0.033-0.144-0.074-0.209-0.121c0,0,0,0,0,0h0c0.303-0.781,0.62-1.557,0.957-2.323c1.302-2.962,2.914-5.794,4.875-8.37
		c1.835-2.411,3.97-4.602,6.389-6.43c1.008-0.76,2.064-1.458,3.166-2.075C37.294,0.142,37.433,0.073,37.57,0h-1.998
		c-0.356,0.236-0.716,0.466-1.06,0.72c-1.06,0.775-2.064,1.626-3.015,2.532C31.246,3.501,30.986,3.742,30.743,4
		c-2.257,2.302-4.171,4.93-5.753,7.736c-0.841,1.492-1.589,3.037-2.252,4.616c-0.41,0.974-0.785,1.962-1.14,2.957c0,0,0,0,0,0
		c0,0,0,0,0,0c-0.08-0.039-0.153-0.089-0.225-0.14c-0.325-0.187-0.644-0.386-0.97-0.572c-1.444-0.834-2.932-1.59-4.436-2.307
		c-3.126-1.48-6.332-2.785-9.58-3.971C4.279,11.55,2.145,10.856,0,10.201v1.842c0.097,0.023,0.195,0.043,0.292,0.066
		C2.749,12.688,5.188,13.34,7.607,14.059z"/>
	<path d="M47.004,0.701c-1.114,0.101-2.225,0.253-3.318,0.497C42,1.569,40.357,2.129,38.783,2.839
		c-2.171,0.978-4.21,2.24-6.081,3.71c-2.403,1.888-4.53,4.119-6.345,6.576c-1.48,1.998-2.748,4.147-3.843,6.378
		c-0.042,0.09-0.091,0.177-0.128,0.271c0.062,0.03,0.12,0.067,0.184,0.093c0.025-0.009,0.032-0.039,0.046-0.059
		c0.733-1.409,1.536-2.782,2.422-4.101c1.751-2.608,3.832-5.002,6.218-7.048c1.829-1.569,3.833-2.937,5.978-4.036
		c2.447-1.256,5.083-2.159,7.804-2.586c0.52-0.083,1.042-0.149,1.565-0.208c0.197-0.016,0.394-0.03,0.591-0.048
		C47.462,1.764,47.731,1.778,48,1.778V0.66c-0.005,0-0.009,0-0.014,0C47.658,0.652,47.331,0.683,47.004,0.701z"/>
	<path d="M44.411,3.251c-0.306,0.055-0.612,0.107-0.916,0.172c-1.881,0.408-3.714,1.031-5.463,1.834
		c-2.088,0.957-4.057,2.167-5.873,3.572c-2.371,1.835-4.476,4.005-6.277,6.401c-1.138,1.512-2.158,3.112-3.071,4.769
		c0.068,0.038,0.136,0.073,0.205,0.11c0.816-1.38,1.701-2.72,2.675-3.994c1.811-2.375,3.927-4.522,6.307-6.329
		c1.849-1.406,3.856-2.606,5.98-3.549c2.12-0.943,4.36-1.622,6.652-1.986c0.516-0.087,1.034-0.159,1.554-0.212
		c0.559-0.045,1.119-0.065,1.68-0.068C47.909,3.97,47.955,3.973,48,3.973v-1.08c-0.609,0.001-1.218,0.018-1.823,0.089
		C45.586,3.053,44.997,3.146,44.411,3.251z"/>
	<path d="M46.93,5.087c-0.535,0.02-1.072,0.046-1.603,0.117c-0.454,0.053-0.905,0.129-1.355,0.208
		c-1.895,0.328-3.753,0.866-5.535,1.589c-2.161,0.877-4.213,2.02-6.109,3.379c-1.845,1.32-3.532,2.853-5.057,4.532
		c-0.371,0.409-0.74,0.819-1.091,1.245c-0.327,0.397-0.629,0.813-0.938,1.224c-0.532,0.706-1.041,1.428-1.524,2.168
		c-0.15,0.23-0.311,0.452-0.457,0.684c0.071,0.042,0.143,0.082,0.22,0.114c1.649-2.502,3.598-4.813,5.834-6.81
		c0.128-0.114,0.245-0.238,0.375-0.35c0.753-0.652,1.547-1.256,2.359-1.832c0.842-0.597,1.708-1.161,2.607-1.669
		c0.534-0.302,1.075-0.59,1.627-0.858c1.744-0.843,3.572-1.517,5.455-1.977c0.88-0.222,1.774-0.386,2.671-0.528
		c1.029-0.155,2.071-0.192,3.11-0.213C47.679,6.11,47.839,6.119,48,6.122V5.076C47.643,5.076,47.286,5.073,46.93,5.087z"/>
	<path d="M45.589,7.228c-0.537,0.033-1.074,0.074-1.606,0.156c-1.848,0.276-3.673,0.719-5.429,1.361
		c-2.282,0.825-4.452,1.95-6.454,3.319c-2.432,1.659-4.609,3.681-6.487,5.946c-0.663,0.796-1.286,1.626-1.884,2.471
		c-0.092-0.039-0.183-0.078-0.268-0.131c-0.745-0.341-1.497-0.669-2.261-0.965c-1.673-0.651-3.38-1.212-5.099-1.726
		c-3.399-1.012-6.849-1.843-10.321-2.56C3.862,14.704,1.933,14.364,0,14.049v2.073c3.499,0.326,6.988,0.765,10.458,1.323
		c1.879,0.304,3.752,0.643,5.615,1.032c1.847,0.387,3.685,0.819,5.496,1.348c0.863,0.254,1.721,0.528,2.562,0.849
		c-0.052-0.031-0.107-0.055-0.16-0.083c0.061-0.099,0.136-0.187,0.204-0.281c1.219-1.618,2.566-3.143,4.055-4.518
		c0.483-0.447,0.98-0.878,1.491-1.293c0.87-0.707,1.788-1.354,2.732-1.958c0.164-0.105,0.321-0.22,0.487-0.321
		c0.561-0.343,1.134-0.668,1.718-0.972c1.858-0.969,3.823-1.734,5.852-2.259c0.87-0.226,1.752-0.402,2.638-0.551
		c0.49-0.079,0.984-0.134,1.48-0.17c0.584-0.044,1.168-0.082,1.754-0.09c0.54-0.01,1.08,0.003,1.619,0.031v-1.02
		c-0.309-0.01-0.619-0.021-0.928-0.018C46.577,7.177,46.083,7.198,45.589,7.228z"/>
	<path d="M44.309,9.259c-0.557,0.042-1.115,0.09-1.667,0.181c-0.892,0.144-1.779,0.328-2.655,0.553
		c-2.07,0.537-4.072,1.327-5.959,2.332c-2.443,1.298-4.689,2.96-6.671,4.89c-1.122,1.089-2.158,2.266-3.121,3.498
		c0.086,0.031,0.167,0.075,0.256,0.096c0.506-0.602,1.018-1.2,1.561-1.769c0.292-0.318,0.601-0.619,0.905-0.924
		c1.97-1.933,4.208-3.598,6.647-4.894c1.937-1.031,3.998-1.832,6.129-2.36c0.465-0.117,0.933-0.216,1.403-0.309
		c0.42-0.081,0.841-0.159,1.265-0.214c1.097-0.132,2.202-0.214,3.308-0.21c0.765,0.003,1.528,0.055,2.289,0.134V9.258
		c-0.183-0.014-0.366-0.036-0.549-0.045C46.404,9.153,45.354,9.177,44.309,9.259z"/>
	<path d="M41.548,11.32c-0.939,0.15-1.871,0.346-2.79,0.591c-0.969,0.259-1.918,0.581-2.849,0.951
		c-1.232,0.489-2.427,1.07-3.573,1.736c-1.085,0.63-2.129,1.329-3.118,2.1c-1.616,1.256-3.094,2.687-4.43,4.238
		c0.088,0.031,0.173,0.073,0.263,0.099c0.051-0.034,0.085-0.086,0.127-0.129c1.055-1.147,2.189-2.223,3.406-3.197
		c0.78-0.625,1.602-1.194,2.445-1.73c1.299-0.827,2.659-1.556,4.083-2.144c0.941-0.389,1.906-0.722,2.887-0.996
		c0.933-0.257,1.881-0.464,2.836-0.621c0.997-0.138,2.001-0.23,3.007-0.253c1.391-0.03,2.788,0.072,4.159,0.312v-0.971
		c-1.094-0.15-2.197-0.241-3.3-0.227C43.645,11.092,42.593,11.18,41.548,11.32z"/>
	<path d="M41.934,12.907c-0.495,0.04-0.99,0.092-1.482,0.158c-0.491,0.064-0.976,0.161-1.46,0.265
		c-2.208,0.463-4.346,1.244-6.345,2.286c-0.234,0.122-0.458,0.262-0.688,0.391c-0.324,0.182-0.653,0.356-0.969,0.551
		c-0.008,0.005-0.015,0.011-0.023,0.016c-0.72,0.447-1.41,0.939-2.085,1.451c-0.836,0.634-1.644,1.304-2.404,2.027
		c-0.281,0.26-0.549,0.534-0.82,0.805c-0.097,0.1-0.198,0.198-0.289,0.303c0.09,0.034,0.177,0.078,0.27,0.102
		c0.105-0.074,0.186-0.178,0.282-0.263c1.603-1.562,3.394-2.936,5.329-4.063c0.499-0.291,1.002-0.576,1.521-0.831
		c1.091-0.542,2.224-0.999,3.384-1.371c0.953-0.306,1.926-0.543,2.909-0.732c0.506-0.098,1.018-0.159,1.53-0.216
		c1.975-0.218,3.984-0.165,5.939,0.2c0.494,0.091,0.983,0.211,1.469,0.343v-1.02C46.012,12.873,43.961,12.748,41.934,12.907z"/>
	<path d="M38.655,14.774c-0.766,0.142-1.524,0.331-2.273,0.544c-0.282,0.08-0.566,0.152-0.845,0.244
		c-2.224,0.728-4.332,1.797-6.255,3.128c-1.174,0.813-2.281,1.722-3.316,2.705c0,0,0,0,0,0c0,0,0,0,0,0
		c-0.912-0.313-1.849-0.547-2.789-0.755c-1.856-0.405-3.733-0.698-5.615-0.953c-3.967-0.523-7.958-0.854-11.953-1.077
		C3.74,18.511,1.87,18.446,0,18.4v2.43c2.809-0.121,5.619-0.207,8.431-0.227c1.043-0.01,2.086-0.012,3.129-0.001
		c2.179,0.014,4.358,0.062,6.535,0.158c2.018,0.094,4.037,0.223,6.044,0.463c0.946,0.118,1.892,0.259,2.82,0.478
		c1.857-1.523,3.935-2.784,6.168-3.672c1.009-0.402,2.051-0.721,3.11-0.96c0.256-0.06,0.513-0.11,0.772-0.155
		c0.265-0.046,0.532-0.085,0.799-0.122c1.429-0.192,2.885-0.201,4.315-0.018c0.203,0.026,0.405,0.057,0.607,0.092
		c0.404,0.069,0.807,0.142,1.204,0.245c1.451,0.375,2.834,1.007,4.066,1.862v-1.294c-1.255-0.663-2.605-1.142-3.998-1.414
		c-1.958-0.385-3.982-0.392-5.953-0.098c-0.002,0-0.003,0.001-0.005,0.001c-0.569,0.078-1.132,0.193-1.689,0.33
		c-0.002,0-0.004,0.001-0.005,0.001c-1.042,0.249-2.063,0.58-3.055,0.984c-2.41,0.978-4.637,2.384-6.611,4.073
		c-0.027,0.018-0.054,0.056-0.09,0.041c-0.106-0.031-0.211-0.063-0.313-0.106l0,0c0,0,0,0,0,0c0.07-0.069,0.143-0.136,0.218-0.2
		c0.581-0.514,1.183-1.003,1.805-1.466c1.94-1.444,4.09-2.615,6.375-3.415c1.062-0.375,2.154-0.659,3.258-0.874
		c0.476-0.085,0.956-0.149,1.436-0.203c1.057-0.118,2.125-0.148,3.187-0.088c1.853,0.107,3.695,0.501,5.412,1.215
		c0.009,0.004,0.018,0.009,0.028,0.013v-1.069c-1.543-0.518-3.155-0.825-4.779-0.909C41.694,14.412,40.162,14.526,38.655,14.774z"/>
	<path d="M47.065,39.379c-0.152,0.328-0.307,0.654-0.461,0.981c-0.2,0.441-0.437,0.863-0.656,1.295
		c-0.17,0.344-0.365,0.675-0.554,1.009c0,0,0,0,0,0c0,0,0,0,0,0c-0.189,0.326-0.365,0.659-0.567,0.977
		c-0.241,0.389-0.481,0.779-0.723,1.168c-0.219,0.329-0.439,0.657-0.659,0.985c-0.393,0.602-0.832,1.172-1.248,1.759
		c-0.112,0.151-0.229,0.298-0.345,0.446h3.318c0.16-0.237,0.32-0.473,0.481-0.709c0.229-0.331,0.431-0.679,0.647-1.019
		c0.184-0.303,0.381-0.598,0.553-0.908c0.234-0.41,0.467-0.82,0.701-1.231c0.15-0.286,0.298-0.573,0.447-0.86V37.06
		c-0.133,0.349-0.262,0.7-0.396,1.048C47.425,38.532,47.247,38.956,47.065,39.379z"/>
	<path d="M46.648,19.433c-1.414-0.996-3.068-1.63-4.769-1.92c-1.538-0.265-3.117-0.26-4.661-0.047
		c-0.502,0.072-1.002,0.153-1.496,0.27c-1.012,0.234-2.006,0.544-2.97,0.932c-1.939,0.779-3.756,1.85-5.406,3.13
		c0.109,0.029,0.217,0.06,0.327,0.085c0.024,0.008,0.044-0.014,0.064-0.024c1.955-1.428,4.137-2.566,6.464-3.25
		c0.516-0.148,1.036-0.289,1.565-0.387c1.159-0.227,2.342-0.338,3.523-0.296c1.767,0.059,3.54,0.472,5.095,1.328
		c1.353,0.737,2.515,1.82,3.345,3.118c0.099,0.153,0.18,0.316,0.271,0.474V20.56C47.582,20.147,47.13,19.769,46.648,19.433z"/>
	<path d="M39.688,46.121c0.242-0.312,0.487-0.623,0.729-0.937c0.263-0.36,0.524-0.721,0.787-1.082
		c0.216-0.288,0.412-0.591,0.614-0.889c0.209-0.312,0.427-0.619,0.624-0.939c0.224-0.358,0.449-0.716,0.674-1.074
		c0.194-0.335,0.387-0.669,0.58-1.003c0.217-0.365,0.406-0.746,0.607-1.12c0.278-0.505,0.514-1.031,0.769-1.548
		c0.183-0.403,0.356-0.809,0.534-1.214c0.007-0.017,0.013-0.035,0.02-0.052c0.149-0.375,0.297-0.751,0.441-1.128
		c0.078-0.233,0.162-0.465,0.242-0.698c0.006-0.018,0.011-0.036,0.017-0.054c0.074-0.215,0.146-0.431,0.208-0.649
		c0.051-0.168,0.1-0.336,0.15-0.504c0.04-0.127,0.069-0.257,0.101-0.387c0.039-0.155,0.081-0.309,0.121-0.463
		c0.037-0.136,0.065-0.273,0.095-0.411c0.023-0.107,0.049-0.213,0.07-0.321c0.031-0.157,0.062-0.313,0.095-0.469
		c0.048-0.256,0.082-0.514,0.124-0.771c0.049-0.283,0.069-0.57,0.102-0.855c0.034-0.278,0.041-0.56,0.059-0.839
		c0.021-0.261,0.011-0.524,0.015-0.786c-0.011-1.376-0.22-2.761-0.721-4.047c-0.302-0.775-0.711-1.51-1.228-2.162
		c-0.467-0.593-1.022-1.116-1.64-1.55c-0.623-0.439-1.31-0.785-2.027-1.041c-0.909-0.324-1.866-0.508-2.829-0.572
		c-1.089-0.076-2.185,0-3.26,0.182c-0.513,0.09-1.024,0.195-1.524,0.338c-1.861,0.504-3.631,1.317-5.263,2.338
		c-0.292,0.186-0.586,0.37-0.864,0.575c0.111,0.023,0.22,0.055,0.33,0.08c0.026,0.006,0.049,0.001,0.071-0.017
		c1.033-0.675,2.127-1.26,3.266-1.736c1.001-0.414,2.038-0.75,3.1-0.964c1.144-0.232,2.319-0.339,3.485-0.256
		c0.928,0.066,1.852,0.253,2.718,0.598c0.683,0.271,1.328,0.643,1.893,1.115c0.296,0.245,0.569,0.517,0.815,0.812
		c0.247,0.295,0.467,0.611,0.659,0.945c0.48,0.834,0.778,1.765,0.926,2.713c0.073,0.474,0.117,0.952,0.121,1.431
		c0.016,0.243-0.002,0.487-0.007,0.731c0,0.244-0.032,0.487-0.048,0.731c-0.017,0.246-0.057,0.49-0.089,0.735
		c-0.031,0.275-0.091,0.546-0.138,0.819c-0.04,0.242-0.103,0.48-0.158,0.719c-0.089,0.412-0.214,0.815-0.326,1.221
		c-0.136,0.41-0.259,0.825-0.415,1.228c-0.14,0.383-0.282,0.765-0.447,1.138c-0.166,0.415-0.354,0.821-0.545,1.225
		c-0.165,0.369-0.355,0.726-0.538,1.087c-0.178,0.363-0.381,0.714-0.577,1.067c-0.166,0.305-0.339,0.606-0.523,0.901
		c-0.21,0.345-0.411,0.695-0.636,1.03c-0.214,0.327-0.423,0.658-0.643,0.982c-0.27,0.386-0.539,0.774-0.81,1.159
		c-0.415,0.547-0.812,1.108-1.245,1.64c-0.234,0.294-0.468,0.589-0.703,0.882c-0.251,0.297-0.503,0.593-0.754,0.89
		c-0.483,0.578-1.001,1.125-1.501,1.688c-0.458,0.472-0.909,0.951-1.374,1.416h4.117c0.037-0.042,0.075-0.083,0.111-0.126
		C38.73,47.29,39.229,46.722,39.688,46.121z"/>
	<path d="M30.719,46.782c0.303-0.279,0.612-0.552,0.904-0.843c0.305-0.292,0.607-0.586,0.912-0.877
		c0.254-0.254,0.502-0.514,0.755-0.768c0.545-0.539,1.055-1.112,1.581-1.67c0.476-0.547,0.968-1.081,1.425-1.643
		c0.261-0.321,0.535-0.632,0.787-0.959c0.244-0.312,0.488-0.623,0.731-0.935c0.213-0.289,0.425-0.577,0.637-0.866
		c0.26-0.346,0.497-0.709,0.745-1.063c0.237-0.336,0.452-0.687,0.676-1.032c0.221-0.332,0.416-0.681,0.624-1.021
		c0.203-0.33,0.383-0.673,0.571-1.012c0.204-0.359,0.379-0.734,0.569-1.1c0.104-0.209,0.197-0.424,0.296-0.635
		c0.188-0.391,0.343-0.796,0.511-1.195c0.132-0.363,0.276-0.723,0.39-1.092c0.077-0.243,0.161-0.484,0.223-0.731
		c0.323-1.14,0.53-2.319,0.524-3.506c-0.005-0.766-0.103-1.537-0.338-2.268c-0.061-0.193-0.132-0.382-0.214-0.568
		c-0.243-0.556-0.576-1.073-0.994-1.513c-0.506-0.541-1.132-0.963-1.809-1.26c-0.852-0.373-1.777-0.555-2.703-0.604
		c-1.287-0.069-2.577,0.116-3.821,0.441c-1.145,0.311-2.257,0.744-3.316,1.279c-0.506,0.25-0.994,0.535-1.481,0.821
		c-0.147-0.013-0.293-0.047-0.437-0.077c-0.755-0.115-1.518-0.168-2.281-0.198c-0.576-0.022-1.152-0.035-1.728-0.034
		c-2.257-0.011-4.512,0.077-6.766,0.186c-2.06,0.105-4.12,0.237-6.177,0.388C7.673,22.715,3.833,23.07,0,23.486v2.86
		c3.58-0.612,7.165-1.194,10.754-1.748c3.701-0.57,7.406-1.115,11.12-1.597c1.843-0.234,3.687-0.462,5.538-0.616
		c0.761-0.06,1.525-0.11,2.289-0.093c-0.12-0.025-0.247-0.018-0.36-0.067c0,0,0,0,0,0c0,0,0,0,0,0
		c1.2-0.697,2.482-1.258,3.815-1.648c1.147-0.327,2.338-0.525,3.533-0.493c0.961,0.03,1.934,0.214,2.792,0.663
		c0.493,0.257,0.94,0.609,1.296,1.037c0.119,0.143,0.227,0.294,0.323,0.453c0.131,0.209,0.24,0.431,0.331,0.661
		c0,0.001,0.001,0.002,0.002,0.003c0.091,0.231,0.163,0.469,0.219,0.711c0.193,0.862,0.17,1.758,0.035,2.626
		c-0.148,0.947-0.43,1.869-0.778,2.76c-0.522,1.321-1.193,2.58-1.942,3.786c-0.223,0.37-0.468,0.725-0.702,1.087
		c-0.219,0.321-0.447,0.636-0.669,0.956c-0.184,0.25-0.371,0.496-0.556,0.745c-0.257,0.35-0.534,0.684-0.802,1.026
		c-0.251,0.323-0.522,0.63-0.782,0.945c-0.241,0.293-0.495,0.575-0.747,0.858c-0.476,0.551-0.983,1.076-1.478,1.61
		c-0.272,0.276-0.545,0.553-0.817,0.829c-0.279,0.296-0.581,0.57-0.869,0.858c-0.247,0.233-0.485,0.477-0.738,0.704
		c-0.312,0.291-0.627,0.578-0.94,0.869c-0.281,0.254-0.568,0.501-0.852,0.753c-0.246,0.214-0.487,0.434-0.74,0.641
		c-0.368,0.309-0.737,0.618-1.105,0.927c-0.25,0.204-0.504,0.404-0.756,0.606c-0.307,0.242-0.607,0.491-0.919,0.727
		c-0.478,0.361-0.956,0.721-1.438,1.076h5.295c0.2-0.173,0.401-0.347,0.601-0.52C30.209,47.247,30.464,47.015,30.719,46.782z"/>
	<path d="M20.352,46.41c0.282-0.188,0.564-0.377,0.846-0.565c0.071-0.047,0.142-0.095,0.213-0.142
		c0.125-0.087,0.25-0.175,0.376-0.262c0.19-0.133,0.379-0.265,0.569-0.398c0.596-0.409,1.176-0.842,1.761-1.267
		c0.361-0.26,0.71-0.536,1.065-0.804c0.618-0.463,1.216-0.95,1.821-1.429c0.611-0.506,1.227-1.006,1.823-1.53
		c0.264-0.23,0.532-0.456,0.793-0.691c0.312-0.283,0.625-0.566,0.937-0.849c0.348-0.323,0.689-0.653,1.036-0.977
		c0.004-0.004,0.009-0.009,0.013-0.013c0.242-0.237,0.481-0.477,0.722-0.715c0.317-0.306,0.62-0.626,0.924-0.944
		c0.284-0.285,0.552-0.586,0.824-0.883c0.254-0.268,0.494-0.55,0.738-0.828c0.266-0.298,0.519-0.606,0.772-0.914
		c0.238-0.278,0.458-0.571,0.685-0.858c0.238-0.299,0.458-0.612,0.687-0.918c0.347-0.484,0.678-0.98,0.994-1.485
		c0.418-0.668,0.807-1.353,1.142-2.067c0.353-0.755,0.651-1.54,0.833-2.354c0.107-0.496,0.176-1.003,0.158-1.512
		c-0.007-0.444-0.084-0.888-0.242-1.303c-0.156-0.404-0.396-0.777-0.71-1.077c-0.529-0.515-1.234-0.812-1.95-0.954
		c-0.656-0.132-1.331-0.144-1.996-0.093c-1.003,0.084-1.989,0.318-2.938,0.646c-0.836,0.292-1.652,0.646-2.429,1.071
		c0.155,0.012,0.312,0.044,0.467,0.035c1.253-0.612,2.583-1.096,3.968-1.296c0.648-0.091,1.309-0.119,1.958-0.019
		c0.374,0.059,0.745,0.162,1.083,0.335c0.359,0.183,0.678,0.452,0.891,0.797c0.24,0.383,0.345,0.84,0.346,1.289c0,0,0,0,0,0s0,0,0,0
		c0.009,0.463-0.082,0.922-0.209,1.365c-0.219,0.73-0.551,1.421-0.928,2.082c-0.604,1.05-1.329,2.026-2.097,2.961
		c-0.229,0.265-0.449,0.538-0.684,0.797c-0.758,0.858-1.554,1.683-2.38,2.476c-0.265,0.263-0.54,0.516-0.815,0.77
		c-0.288,0.275-0.586,0.538-0.883,0.803c-0.259,0.236-0.524,0.466-0.791,0.693c-0.319,0.277-0.64,0.552-0.967,0.819
		c-0.309,0.253-0.613,0.513-0.928,0.759c-0.306,0.243-0.611,0.487-0.918,0.729c-0.329,0.253-0.66,0.505-0.989,0.758
		c-0.33,0.255-0.668,0.496-1.002,0.745c-0.604,0.449-1.221,0.879-1.834,1.315c-0.378,0.259-0.756,0.518-1.134,0.776
		c-0.344,0.241-0.7,0.465-1.049,0.698c-0.614,0.413-1.243,0.803-1.866,1.2c-0.386,0.247-0.779,0.48-1.169,0.72
		c-0.646,0.402-1.307,0.78-1.963,1.167c-0.389,0.23-0.786,0.446-1.179,0.669c-0.675,0.387-1.364,0.75-2.049,1.12
		c-0.357,0.196-0.722,0.375-1.082,0.564c-0.351,0.177-0.697,0.363-1.049,0.535c-0.027,0.013-0.054,0.026-0.08,0.039h7.378
		c0.172-0.104,0.343-0.209,0.514-0.314C19.035,47.261,19.702,46.849,20.352,46.41z"/>
	<path d="M2.951,47.273c0.454-0.177,0.904-0.364,1.354-0.553c0.831-0.339,1.651-0.705,2.473-1.065
		c0.488-0.223,0.976-0.445,1.464-0.668c0.931-0.439,1.862-0.88,2.782-1.342c0.386-0.188,0.769-0.381,1.15-0.58
		c0.87-0.436,1.727-0.898,2.586-1.355c0.493-0.271,0.986-0.542,1.479-0.813c0.82-0.465,1.641-0.928,2.451-1.411
		c0.355-0.205,0.706-0.417,1.056-0.63c0.399-0.244,0.802-0.483,1.198-0.734c0.469-0.295,0.942-0.585,1.406-0.889
		c0.397-0.259,0.799-0.512,1.192-0.778c0.333-0.223,0.666-0.445,0.999-0.668c0.36-0.249,0.721-0.498,1.081-0.747
		c1.514-1.067,3.002-2.172,4.435-3.347c1.247-1.02,2.456-2.09,3.587-3.239c0.522-0.535,1.029-1.087,1.503-1.667
		c0.458-0.562,0.887-1.149,1.248-1.779c0.215-0.38,0.405-0.776,0.534-1.193c0.042-0.14,0.073-0.285,0.098-0.431
		c0.05-0.297,0.059-0.6-0.025-0.891c-0.066-0.229-0.195-0.441-0.371-0.604c-0.227-0.213-0.517-0.345-0.814-0.425
		c-0.549-0.145-1.126-0.137-1.686-0.074c-0.511,0.059-1.015,0.17-1.509,0.312c-0.617,0.18-1.222,0.402-1.804,0.673
		c0.148,0.012,0.298,0.027,0.446,0.026c0.508-0.204,1.024-0.388,1.555-0.52c0.528-0.133,1.071-0.226,1.617-0.212
		c0.354,0.019,0.73,0.075,1.017,0.3c0.217,0.165,0.319,0.448,0.3,0.715v0c0,0,0,0,0,0.001c-0.018,0.342-0.159,0.661-0.318,0.959
		c-0.219,0.397-0.491,0.761-0.78,1.108c-0.577,0.686-1.227,1.308-1.895,1.904c-1.378,1.214-2.855,2.31-4.362,3.357
		c-1.57,1.083-3.18,2.107-4.815,3.089c-2.68,1.609-5.426,3.108-8.212,4.525c-0.583,0.29-1.161,0.589-1.747,0.873
		c-0.589,0.285-1.174,0.577-1.768,0.854c-0.479,0.226-0.956,0.456-1.437,0.676c-0.591,0.27-1.179,0.546-1.774,0.807
		c-0.544,0.243-1.088,0.488-1.637,0.721c-0.526,0.227-1.051,0.457-1.581,0.674c-0.565,0.237-1.13,0.474-1.7,0.699
		C2.494,43.433,1.249,43.903,0,44.361V48h1.066c0.161-0.06,0.321-0.12,0.482-0.18C2.019,47.647,2.483,47.456,2.951,47.273z"/>
	<path d="M7.85,37.382c3.169-1.281,6.306-2.641,9.405-4.084c2.395-1.118,4.768-2.285,7.102-3.527
		c1.944-1.04,3.867-2.123,5.721-3.318c0.76-0.491,1.508-1.001,2.227-1.55c0.563-0.433,1.116-0.886,1.6-1.406
		c0.195-0.216,0.384-0.443,0.516-0.703c0.037-0.077,0.071-0.16,0.089-0.245c0.018-0.085,0.02-0.172-0.008-0.257
		c-0.051-0.147-0.199-0.229-0.34-0.267c-0.266-0.071-0.546-0.051-0.816-0.018c-0.518,0.07-1.021,0.221-1.512,0.395
		c-0.147,0.024-0.298,0.016-0.447,0.021c-0.147-0.02-0.292,0.022-0.438,0.035c-0.743,0.116-1.477,0.283-2.212,0.442
		c-1.437,0.317-2.87,0.649-4.304,0.979c-3.7,0.854-7.398,1.71-11.099,2.56C8.891,27.462,4.446,28.481,0,29.499v3.376
		c3.28-0.922,6.553-1.871,9.817-2.848c3.307-0.99,6.606-2.009,9.892-3.067c2.907-0.94,5.807-1.904,8.678-2.949
		c1.119-0.412,2.237-0.827,3.331-1.3c0.231-0.105,0.466-0.202,0.683-0.335c-0.012-0.007-0.037-0.02-0.049-0.027c0,0,0,0,0,0
		c0,0,0,0,0,0c0.227-0.076,0.462-0.129,0.701-0.153c0.056-0.002,0.115-0.006,0.173-0.001c0,0,0,0,0,0
		c0.058,0.005,0.114,0.019,0.163,0.053c0.064,0.048,0.049,0.138,0.016,0.2c-0.039,0.073-0.09,0.137-0.146,0.197
		c-0.056,0.06-0.118,0.115-0.177,0.17c-0.087,0.074-0.181,0.138-0.272,0.207c-0.155,0.118-0.312,0.234-0.475,0.342
		c-0.14,0.092-0.28,0.185-0.422,0.274c-0.841,0.517-1.713,0.98-2.591,1.43c-1.073,0.545-2.161,1.061-3.255,1.563
		c-2.688,1.227-5.415,2.367-8.16,3.461c-3.16,1.258-6.345,2.452-9.548,3.597C5.587,34.674,2.799,35.614,0,36.52v3.838
		c0.659-0.233,1.317-0.467,1.973-0.707C3.944,38.926,5.903,38.171,7.85,37.382z"/>
	<path fill="#FFFFFF" d="M6.471,7.316C7.528,8.055,8.567,8.82,9.605,9.585c0.927,0.684,1.841,1.386,2.75,2.094
		c0.745,0.579,1.499,1.147,2.23,1.744c0.118,0.097,0.233,0.198,0.351,0.295c1.325,1.092,2.628,2.214,3.882,3.387
		c0.036,0.034,0.075,0.066,0.111,0.1c0.009,0.008,0.018,0.015,0.026,0.023c0.043,0.04,0.084,0.082,0.133,0.114c0,0,0,0,0,0
		c-0.027-0.197-0.08-0.389-0.117-0.584c-0.574-2.689-1.124-5.385-1.6-8.093c-0.043-0.246-0.084-0.492-0.126-0.738
		c-0.133-0.783-0.264-1.567-0.382-2.353C16.585,3.723,16.356,1.864,16.179,0h-0.857c0.293,1.951,0.632,3.895,1.022,5.829
		c0.727,3.639,1.606,7.244,2.504,10.844c0.041,0.177,0.095,0.352,0.127,0.532c-0.02-0.022-0.045-0.041-0.054-0.069
		c-0.647-2.264-1.3-4.526-1.921-6.797C16.064,6.918,15.202,3.475,14.492,0h-0.879c0.484,1.858,1.004,3.707,1.553,5.547
		c1.016,3.413,2.127,6.796,3.232,10.181c0.14,0.44,0.291,0.877,0.424,1.319c0,0,0,0,0,0c-0.057-0.061-0.068-0.147-0.099-0.222
		c-0.864-2.381-1.756-4.752-2.624-7.132C14.924,6.482,13.79,3.256,12.748,0H11.81c0.889,2.319,1.81,4.625,2.755,6.921
		c1.299,3.17,2.643,6.321,3.936,9.494c0.06,0.162,0.138,0.318,0.184,0.485c-0.143-0.346-0.304-0.684-0.456-1.026
		c-1.077-2.372-2.192-4.725-3.298-7.083C13.556,5.87,12.194,2.944,10.869,0H9.835c1.215,2.332,2.444,4.657,3.676,6.981
		c1.594,3.013,3.197,6.022,4.726,9.069c0.065,0.144,0.153,0.279,0.202,0.43c0,0.001,0.001,0.001,0.001,0.002
		c-0.078-0.164-0.173-0.32-0.258-0.48c-0.592-1.075-1.199-2.142-1.811-3.205c-1.649-2.856-3.342-5.686-5.038-8.514
		C10.474,2.856,9.618,1.427,8.759,0H7.547c1.433,2.079,2.855,4.166,4.266,6.26c1.765,2.628,3.513,5.267,5.196,7.948
		c0.43,0.689,0.86,1.376,1.274,2.074c0,0.001,0.001,0.002,0.002,0.003c-0.048-0.06-0.088-0.127-0.131-0.191
		c-1.722-2.584-3.542-5.1-5.391-7.594C10.632,5.635,8.455,2.805,6.246,0H4.719c1.216,1.346,2.424,2.701,3.615,4.07
		c1.311,1.509,2.606,3.031,3.884,4.568c1.975,2.384,3.915,4.799,5.751,7.292c0.097,0.139,0.207,0.27,0.295,0.415
		c0,0,0.001,0.001,0.001,0.001c-0.082-0.095-0.158-0.194-0.237-0.291c-0.996-1.234-2.025-2.441-3.071-3.633
		C12.534,9.671,10.02,7.001,7.45,4.386C5.985,2.9,4.494,1.44,2.984,0H0.851c0.781,0.634,1.56,1.272,2.327,1.922
		c0.933,0.79,1.856,1.591,2.772,2.401c2.661,2.357,5.258,4.788,7.774,7.3l0,0c0.048,0.048,0.093,0.097,0.141,0.145
		c1.113,1.12,2.201,2.266,3.269,3.429c0.474,0.516,0.954,1.026,1.416,1.553c0,0,0,0,0.001,0.001
		c-0.174-0.154-0.329-0.329-0.495-0.492c-0.001-0.001-0.003-0.003-0.004-0.004c-0.008-0.008-0.017-0.016-0.025-0.025
		c-1.402-1.42-2.86-2.784-4.344-4.118c-0.974-0.872-1.972-1.716-2.969-2.562C9.799,8.776,8.876,8.014,7.946,7.26
		C7.094,6.569,6.247,5.87,5.381,5.196c-1.262-0.979-2.537-1.942-3.831-2.88C1.041,1.947,0.515,1.603,0,1.242v1.847
		c0.056,0.034,0.111,0.069,0.166,0.103C2.304,4.51,4.41,5.88,6.471,7.316z"/>
	<path fill="#FFFFFF" d="M7.692,10.422c2.896,1.565,5.741,3.229,8.49,5.041c1.301,0.862,2.581,1.756,3.816,2.712
		c0.027-0.14,0.012-0.284,0.029-0.426c0.203-4.341,0.681-8.682,1.677-12.917C22.088,3.199,22.558,1.584,23.114,0h-0.945
		c-0.507,1.759-0.92,3.544-1.238,5.347c-0.69,3.905-0.98,7.871-1.059,11.833c-0.01,0.28-0.003,0.561-0.016,0.842
		c-0.021-0.018-0.049-0.034-0.072-0.054c-0.009-0.008-0.008-0.02-0.014-0.03c-0.01-0.014-0.024-0.026-0.022-0.047c0,0,0,0,0,0
		c-0.02-0.785-0.02-1.571-0.02-2.357c-0.004-1.077,0.017-2.154,0.052-3.231c0.13-3.806,0.504-7.612,1.283-11.343
		c0.07-0.321,0.144-0.64,0.219-0.96h-0.893c-0.122,0.686-0.234,1.375-0.33,2.065c-0.405,3.009-0.583,6.046-0.606,9.081
		c-0.022,2.223,0.049,4.446,0.152,6.666c0,0,0,0,0,0c-0.038-0.036-0.104-0.062-0.1-0.124c-0.066-0.819-0.127-1.638-0.181-2.458
		c-0.281-4.239-0.362-8.5-0.035-12.74c0.067-0.831,0.148-1.662,0.251-2.49h-0.867c-0.109,1.709-0.161,3.421-0.148,5.133
		c0.028,4.176,0.382,8.343,0.854,12.49c-0.033-0.03-0.069-0.057-0.097-0.091c-0.009-0.045-0.004-0.092-0.012-0.137
		C19.009,15.6,18.762,13.802,18.553,12c-0.465-3.982-0.749-7.99-0.704-12H17c0.035,0.929,0.085,1.858,0.153,2.786
		c0.283,3.771,0.802,7.52,1.428,11.249c0.186,1.116,0.383,2.23,0.582,3.343c0.006,0.029,0.017,0.057,0.029,0.084c0,0,0,0,0,0.001
		c-1.177-0.995-2.394-1.942-3.632-2.86c-2.561-1.895-5.21-3.668-7.912-5.356C5.148,7.69,2.599,6.214,0,4.831v1.768
		c0.022,0.01,0.045,0.019,0.067,0.03C2.651,7.806,5.192,9.076,7.692,10.422z"/>
	<path fill="#FFFFFF" d="M15.966,16.29c1.505,0.716,2.992,1.473,4.436,2.307c0.327,0.185,0.645,0.384,0.97,0.572
		c0.072,0.052,0.145,0.101,0.225,0.14c0,0,0,0,0,0c0.355-0.995,0.73-1.983,1.14-2.957c0.663-1.579,1.411-3.124,2.252-4.616
		C26.571,8.93,28.486,6.302,30.743,4c0.243-0.258,0.503-0.499,0.755-0.748c0.95-0.906,1.954-1.757,3.015-2.532
		c0.343-0.254,0.704-0.484,1.06-0.72h-1.777c-0.808,0.637-1.579,1.317-2.316,2.034c-0.179,0.174-0.368,0.337-0.542,0.515
		c-2.144,2.192-3.974,4.681-5.502,7.337c-1.687,2.929-2.999,6.065-4.025,9.282v0c-0.06-0.025-0.112-0.064-0.164-0.101
		c0.073-0.274,0.159-0.545,0.24-0.817c0.26-0.852,0.536-1.699,0.836-2.537c1.117-3.14,2.545-6.177,4.341-8.988
		C28.239,4.263,30.107,1.979,32.263,0h-1.442c-0.372,0.393-0.744,0.785-1.094,1.197c-2.1,2.468-3.83,5.237-5.235,8.154
		c-1.476,3.063-2.584,6.293-3.431,9.582c0,0,0,0,0,0c-0.053-0.03-0.103-0.065-0.155-0.096c0.485-2.144,1.074-4.265,1.797-6.341
		c1.13-3.245,2.595-6.383,4.462-9.271c0.411-0.635,0.841-1.257,1.292-1.865c0.346-0.466,0.715-0.914,1.085-1.36h-1.236
		c-1.847,2.546-3.343,5.338-4.531,8.247c-1.377,3.368-2.345,6.892-3.044,10.459c-0.051-0.029-0.1-0.063-0.147-0.098
		c0.286-1.683,0.614-3.36,1.02-5.019c0.205-0.839,0.428-1.675,0.671-2.504c0.729-2.488,1.639-4.925,2.767-7.26
		C25.679,2.51,26.396,1.233,27.182,0h-1.109c-0.111,0.2-0.218,0.402-0.325,0.604c-0.207,0.39-0.409,0.782-0.603,1.179
		c-0.2,0.41-0.401,0.819-0.587,1.236c-1.411,3.164-2.434,6.493-3.168,9.876c-0.403,1.851-0.716,3.721-0.974,5.597c0,0,0,0,0,0
		c-0.047-0.031-0.094-0.061-0.14-0.092c0.006-0.027,0.014-0.055,0.017-0.082c0.121-1.139,0.262-2.276,0.43-3.41
		c0.54-3.657,1.365-7.281,2.604-10.767c0.504-1.41,1.083-2.793,1.735-4.141h-1.011c-0.269,0.646-0.531,1.296-0.766,1.956
		c-0.284,0.799-0.545,1.607-0.787,2.42c-1.063,3.59-1.719,7.292-2.113,11.012c-0.101,0.942-0.183,1.885-0.257,2.829v0
		c-0.009,0.042,0.021,0.075,0.04,0.11c0,0,0,0,0,0c-0.667-0.449-1.344-0.881-2.03-1.3c-0.686-0.419-1.379-0.825-2.078-1.221
		c-1.478-0.836-2.979-1.63-4.498-2.388c-1.487-0.746-2.991-1.457-4.507-2.14C4.737,10.233,2.38,9.271,0,8.37v1.831
		c2.145,0.655,4.279,1.35,6.386,2.118C9.634,13.505,12.84,14.81,15.966,16.29z"/>
	<path fill="#FFFFFF" d="M33.993,2.293c-2.419,1.829-4.554,4.019-6.389,6.43c-1.961,2.576-3.573,5.408-4.875,8.37
		c-0.338,0.766-0.654,1.542-0.957,2.323c0,0,0,0,0,0c0.065,0.047,0.135,0.088,0.209,0.121c0.647-1.547,1.364-3.067,2.172-4.537
		c1.535-2.801,3.398-5.429,5.592-7.753c1.817-1.925,3.858-3.643,6.1-5.053c0.851-0.535,1.732-1.026,2.637-1.464
		C39.033,0.464,39.597,0.225,40.167,0H37.57c-0.137,0.073-0.277,0.142-0.412,0.218C36.057,0.836,35.001,1.533,33.993,2.293z"/>
	<path fill="#FFFFFF" d="M44.408,6.324c-0.897,0.141-1.79,0.306-2.671,0.528c-1.882,0.46-3.71,1.134-5.455,1.977
		c-0.552,0.268-1.093,0.556-1.626,0.858c-0.899,0.508-1.764,1.072-2.607,1.669c-0.813,0.576-1.607,1.18-2.36,1.832
		c-0.129,0.112-0.247,0.236-0.375,0.35c-2.237,1.998-4.186,4.308-5.834,6.81c0,0,0,0,0,0c-0.076-0.032-0.149-0.072-0.22-0.114
		c0.146-0.232,0.307-0.455,0.457-0.684c0.483-0.74,0.992-1.462,1.524-2.168c0.309-0.411,0.611-0.827,0.938-1.224
		c0.351-0.426,0.72-0.836,1.091-1.245c1.525-1.679,3.212-3.212,5.057-4.532c1.896-1.358,3.948-2.502,6.109-3.379
		c1.782-0.723,3.64-1.261,5.535-1.589c0.45-0.079,0.901-0.155,1.355-0.208c0.531-0.071,1.068-0.097,1.603-0.117
		c0.356-0.014,0.713-0.01,1.07-0.011V3.973c-0.045,0-0.091-0.003-0.136-0.003c-0.561,0.004-1.121,0.023-1.68,0.068
		c-0.52,0.053-1.038,0.125-1.554,0.212c-2.292,0.364-4.532,1.044-6.652,1.986c-2.123,0.942-4.131,2.143-5.98,3.549
		c-2.38,1.807-4.496,3.954-6.307,6.329c-0.974,1.274-1.859,2.614-2.675,3.994c-0.068-0.037-0.137-0.072-0.205-0.11c0,0,0,0,0,0
		c0.914-1.657,1.933-3.257,3.071-4.769c1.8-2.395,3.906-4.566,6.277-6.401c1.816-1.405,3.785-2.615,5.873-3.572
		c1.749-0.803,3.582-1.426,5.463-1.834c0.304-0.065,0.61-0.118,0.916-0.172c0.586-0.105,1.175-0.198,1.766-0.269
		C46.782,2.91,47.391,2.893,48,2.892V1.778c-0.269,0-0.538-0.013-0.807,0.001c-0.197,0.017-0.394,0.031-0.591,0.048
		c-0.523,0.059-1.045,0.126-1.565,0.208c-2.721,0.426-5.357,1.33-7.804,2.586c-2.145,1.099-4.149,2.468-5.978,4.036
		c-2.386,2.047-4.467,4.44-6.218,7.048c-0.886,1.319-1.689,2.692-2.422,4.101c-0.015,0.02-0.021,0.05-0.046,0.059
		c-0.064-0.026-0.122-0.063-0.184-0.093c0,0,0,0,0,0c0.036-0.093,0.085-0.18,0.128-0.271c1.095-2.23,2.364-4.38,3.843-6.378
		c1.815-2.457,3.941-4.688,6.345-6.576c1.872-1.47,3.911-2.732,6.082-3.71c1.574-0.71,3.217-1.269,4.903-1.641
		c1.093-0.243,2.204-0.396,3.318-0.497c0.327-0.019,0.654-0.049,0.982-0.042c0.005,0,0.009,0,0.014,0V0h-4.06
		c-1.415,0.294-2.802,0.726-4.139,1.274c-2.019,0.825-3.928,1.909-5.701,3.178c-0.597,0.428-1.178,0.877-1.742,1.345
		c-1.13,0.937-2.195,1.951-3.191,3.029c-0.498,0.539-0.979,1.094-1.443,1.662c-0.985,1.209-1.891,2.482-2.718,3.804
		c-1.074,1.714-2.011,3.511-2.843,5.354h0c-1.488-0.794-3.028-1.484-4.587-2.126c-1.65-0.677-3.324-1.296-5.01-1.877
		c-1.641-0.564-3.295-1.091-4.959-1.585c-2.419-0.719-4.858-1.37-7.314-1.951C0.195,12.085,0.097,12.065,0,12.042v2.006
		c1.933,0.315,3.862,0.656,5.781,1.05c3.472,0.717,6.922,1.548,10.321,2.56c1.72,0.513,3.426,1.074,5.099,1.726
		c0.764,0.296,1.516,0.624,2.261,0.965c0.085,0.053,0.176,0.092,0.268,0.131c0.598-0.846,1.221-1.675,1.884-2.471
		c1.877-2.265,4.054-4.287,6.487-5.946c2.002-1.368,4.172-2.494,6.454-3.319c1.756-0.641,3.581-1.085,5.429-1.361
		c0.532-0.081,1.069-0.122,1.606-0.156c0.494-0.03,0.988-0.051,1.483-0.058C47.381,7.167,47.691,7.178,48,7.188V6.122
		c-0.161-0.002-0.322-0.012-0.482-0.01C46.479,6.132,45.437,6.169,44.408,6.324z"/>
	<path fill="#FFFFFF" d="M44.627,8.266c-0.495,0.036-0.989,0.091-1.48,0.17c-0.886,0.149-1.768,0.325-2.638,0.551
		c-2.029,0.524-3.994,1.29-5.852,2.259c-0.583,0.304-1.156,0.628-1.717,0.972c-0.166,0.102-0.323,0.216-0.487,0.321
		c-0.944,0.604-1.862,1.251-2.732,1.958c-0.511,0.415-1.008,0.846-1.491,1.293c-1.489,1.375-2.836,2.9-4.055,4.518
		c-0.068,0.094-0.143,0.183-0.204,0.281c0.053,0.028,0.108,0.052,0.16,0.083c0.001,0,0.001,0.001,0.002,0.001
		c-0.842-0.321-1.7-0.596-2.564-0.85c-1.812-0.528-3.65-0.961-5.497-1.348c-1.863-0.39-3.736-0.728-5.615-1.032
		C6.988,16.886,3.499,16.448,0,16.122V18.4c1.87,0.046,3.74,0.111,5.608,0.211c3.995,0.223,7.985,0.553,11.953,1.077
		c1.881,0.254,3.759,0.548,5.615,0.953c0.94,0.208,1.877,0.442,2.789,0.755c0,0,0,0,0,0c1.035-0.983,2.142-1.893,3.316-2.705
		c1.923-1.331,4.032-2.399,6.255-3.128c0.279-0.092,0.563-0.164,0.846-0.244c0.75-0.214,1.507-0.402,2.273-0.544
		c1.507-0.248,3.04-0.361,4.566-0.278c1.624,0.084,3.236,0.391,4.779,0.909v-1.077c-0.486-0.132-0.975-0.252-1.469-0.343
		c-1.955-0.365-3.964-0.418-5.939-0.2c-0.512,0.058-1.024,0.118-1.53,0.216c-0.982,0.189-1.956,0.426-2.909,0.732
		c-1.16,0.371-2.293,0.828-3.384,1.371c-0.519,0.255-1.021,0.54-1.52,0.831c-1.935,1.127-3.725,2.501-5.329,4.063
		c-0.096,0.085-0.177,0.189-0.282,0.263c0,0,0,0,0,0c-0.094-0.024-0.18-0.068-0.27-0.102c0.091-0.106,0.192-0.203,0.289-0.303
		c0.271-0.271,0.539-0.544,0.82-0.805c0.76-0.723,1.569-1.393,2.405-2.027c0.675-0.512,1.365-1.005,2.085-1.451
		c0.008-0.005,0.015-0.011,0.023-0.016c0.316-0.195,0.645-0.37,0.969-0.551c0.23-0.129,0.453-0.269,0.687-0.391c0,0,0,0,0,0
		c1.999-1.042,4.138-1.822,6.345-2.286c0.484-0.103,0.969-0.201,1.46-0.265c0.493-0.066,0.987-0.117,1.482-0.158
		c2.027-0.159,4.079-0.034,6.066,0.4v-1.032c-1.372-0.24-2.768-0.341-4.159-0.312c-1.006,0.023-2.01,0.116-3.007,0.253
		c-0.955,0.157-1.902,0.364-2.836,0.621c-0.981,0.274-1.946,0.607-2.887,0.996c-1.423,0.587-2.784,1.317-4.082,2.144
		c-0.843,0.536-1.665,1.106-2.445,1.73c-1.217,0.974-2.351,2.05-3.406,3.197c-0.042,0.043-0.076,0.096-0.127,0.129c0,0,0,0,0,0
		c-0.09-0.027-0.175-0.068-0.263-0.099c1.335-1.551,2.813-2.982,4.43-4.238c0.989-0.77,2.033-1.47,3.118-2.1
		c1.147-0.666,2.341-1.247,3.573-1.736c0.931-0.37,1.881-0.692,2.849-0.951c0,0,0,0,0,0c0.919-0.244,1.851-0.441,2.79-0.591
		c1.045-0.139,2.098-0.227,3.152-0.243c1.103-0.014,2.206,0.077,3.3,0.227v-1.043c-0.761-0.08-1.525-0.131-2.289-0.134
		c-1.106-0.004-2.21,0.078-3.308,0.21c-0.424,0.055-0.846,0.133-1.265,0.214c-0.47,0.093-0.939,0.193-1.403,0.309
		c-2.131,0.528-4.192,1.329-6.129,2.36c-2.438,1.296-4.676,2.961-6.647,4.894c-0.304,0.305-0.613,0.606-0.905,0.924
		c-0.543,0.569-1.054,1.168-1.561,1.769c-0.089-0.021-0.171-0.065-0.256-0.096l0,0c0.963-1.232,1.999-2.409,3.121-3.498
		c1.981-1.929,4.228-3.591,6.671-4.89c1.887-1.005,3.889-1.795,5.959-2.332c0.876-0.226,1.762-0.409,2.655-0.553
		c0.552-0.091,1.109-0.139,1.667-0.181c1.045-0.083,2.095-0.106,3.142-0.047C47.634,9.222,47.817,9.244,48,9.258v-1.05
		c-0.539-0.028-1.079-0.041-1.619-0.031C45.796,8.185,45.211,8.223,44.627,8.266z"/>
	<path fill="#FFFFFF" d="M42.561,15.246c-1.062-0.06-2.13-0.03-3.187,0.088c-0.481,0.055-0.96,0.119-1.436,0.203
		c-1.105,0.215-2.197,0.499-3.258,0.874c-2.285,0.799-4.434,1.97-6.375,3.415c-0.622,0.462-1.224,0.952-1.805,1.466
		c-0.075,0.064-0.148,0.131-0.218,0.2c0,0,0,0,0,0c0.101,0.042,0.207,0.075,0.313,0.106c0.036,0.015,0.063-0.023,0.09-0.041
		c1.974-1.689,4.201-3.095,6.611-4.073c0.992-0.404,2.013-0.735,3.055-0.984c0.002,0,0.004-0.001,0.005-0.001
		c0.557-0.138,1.12-0.253,1.689-0.33c0.002,0,0.003-0.001,0.005-0.001c1.971-0.294,3.995-0.288,5.953,0.098
		c1.392,0.272,2.743,0.751,3.998,1.414v-1.205c-0.009-0.004-0.018-0.009-0.028-0.013C46.256,15.747,44.414,15.353,42.561,15.246z"/>
	<path fill="#FFFFFF" d="M42.731,16.866c-0.202-0.034-0.404-0.066-0.607-0.092c-1.431-0.184-2.887-0.174-4.315,0.018
		c-0.267,0.037-0.533,0.076-0.799,0.122c-0.259,0.044-0.516,0.095-0.772,0.156c-1.059,0.24-2.101,0.558-3.11,0.96
		c-2.234,0.888-4.312,2.149-6.168,3.672c-0.929-0.219-1.874-0.36-2.82-0.478c-2.007-0.24-4.026-0.368-6.044-0.463
		c-2.177-0.097-4.356-0.145-6.535-0.158c-1.043-0.011-2.086-0.009-3.129,0.001C5.62,20.624,2.809,20.71,0,20.831v2.655
		c3.833-0.416,7.673-0.771,11.517-1.057c2.057-0.152,4.117-0.284,6.177-0.388c2.254-0.109,4.509-0.198,6.766-0.186
		c0.576-0.002,1.153,0.012,1.728,0.034c0.763,0.03,1.526,0.082,2.281,0.198c0.145,0.03,0.29,0.064,0.437,0.077
		c0.486-0.286,0.974-0.571,1.481-0.821c1.059-0.535,2.171-0.968,3.316-1.279c1.244-0.325,2.534-0.509,3.821-0.441
		c0.926,0.05,1.851,0.231,2.703,0.604c0.677,0.296,1.303,0.719,1.809,1.26c0.418,0.44,0.751,0.957,0.994,1.513
		c0.081,0.186,0.153,0.376,0.214,0.569c0.236,0.731,0.333,1.501,0.338,2.268c0.005,1.187-0.202,2.366-0.524,3.506
		c-0.062,0.247-0.147,0.488-0.223,0.731c-0.114,0.369-0.258,0.729-0.39,1.092c-0.168,0.399-0.324,0.804-0.511,1.195
		c-0.1,0.211-0.192,0.426-0.296,0.635c-0.19,0.366-0.365,0.741-0.569,1.1c-0.189,0.338-0.369,0.681-0.571,1.012
		c-0.208,0.34-0.403,0.689-0.624,1.021c-0.224,0.345-0.439,0.695-0.676,1.032c-0.248,0.354-0.485,0.717-0.745,1.063
		c-0.212,0.289-0.424,0.577-0.637,0.866c-0.243,0.312-0.488,0.623-0.731,0.935c-0.252,0.328-0.526,0.639-0.787,0.959
		c-0.457,0.563-0.949,1.096-1.425,1.643c-0.526,0.557-1.036,1.131-1.581,1.67c-0.253,0.254-0.501,0.514-0.755,0.768
		c-0.305,0.291-0.607,0.585-0.912,0.877c-0.292,0.291-0.601,0.564-0.904,0.843c-0.255,0.233-0.51,0.465-0.764,0.698
		c-0.2,0.173-0.4,0.346-0.6,0.519h4.668c0.465-0.465,0.916-0.945,1.374-1.416c0.5-0.563,1.018-1.111,1.501-1.688
		c0.251-0.297,0.503-0.594,0.754-0.89c0.235-0.294,0.469-0.588,0.703-0.882c0.433-0.533,0.83-1.093,1.245-1.64
		c0.271-0.386,0.54-0.773,0.81-1.159c0.219-0.324,0.429-0.655,0.643-0.982c0.225-0.335,0.426-0.686,0.636-1.03
		c0.184-0.295,0.357-0.596,0.523-0.901c0.196-0.354,0.399-0.704,0.577-1.067c0.183-0.361,0.373-0.718,0.538-1.087
		c0.191-0.404,0.378-0.81,0.545-1.225c0.164-0.373,0.306-0.756,0.447-1.138c0.156-0.403,0.279-0.818,0.415-1.228
		c0.112-0.406,0.237-0.809,0.326-1.221c0.054-0.239,0.117-0.477,0.158-0.719c0.047-0.273,0.107-0.544,0.138-0.819
		c0.031-0.245,0.071-0.488,0.089-0.735c0.016-0.244,0.048-0.486,0.048-0.731c0.005-0.244,0.023-0.488,0.007-0.731
		c-0.004-0.48-0.048-0.958-0.121-1.431c-0.149-0.948-0.446-1.879-0.926-2.713c-0.191-0.333-0.412-0.65-0.659-0.945
		c-0.246-0.294-0.519-0.567-0.815-0.812c-0.565-0.472-1.21-0.844-1.893-1.115c-0.866-0.345-1.79-0.532-2.718-0.598
		c-1.167-0.084-2.341,0.023-3.485,0.256c-1.063,0.215-2.1,0.55-3.101,0.964c-1.14,0.475-2.233,1.061-3.266,1.736
		c-0.022,0.017-0.045,0.023-0.071,0.017c-0.111-0.025-0.22-0.057-0.331-0.08c0,0,0,0,0,0c0.279-0.205,0.573-0.388,0.864-0.575
		c1.632-1.021,3.402-1.834,5.263-2.338c0.501-0.143,1.012-0.248,1.524-0.338c1.075-0.182,2.171-0.258,3.26-0.182
		c0.962,0.065,1.919,0.248,2.829,0.572c0.717,0.257,1.404,0.603,2.027,1.041c0.618,0.433,1.174,0.956,1.64,1.55
		c0.517,0.652,0.926,1.387,1.228,2.162c0.501,1.286,0.709,2.672,0.721,4.047c-0.004,0.262,0.006,0.525-0.015,0.786
		c-0.018,0.28-0.024,0.561-0.059,0.839c-0.033,0.285-0.053,0.572-0.102,0.855c-0.042,0.257-0.076,0.515-0.124,0.771
		c-0.033,0.156-0.064,0.313-0.095,0.469c-0.022,0.107-0.047,0.214-0.07,0.321c-0.03,0.137-0.058,0.275-0.095,0.411
		c-0.04,0.154-0.082,0.308-0.121,0.463c-0.033,0.129-0.062,0.26-0.102,0.387c-0.05,0.168-0.1,0.336-0.15,0.504
		c-0.062,0.219-0.134,0.434-0.208,0.649c-0.006,0.018-0.011,0.036-0.017,0.054c-0.08,0.233-0.164,0.465-0.242,0.698
		c-0.145,0.377-0.292,0.753-0.441,1.128c-0.007,0.017-0.013,0.035-0.02,0.052c0,0,0,0,0,0c-0.178,0.405-0.351,0.812-0.534,1.214
		c-0.255,0.516-0.491,1.043-0.769,1.548c-0.202,0.374-0.39,0.755-0.607,1.12c-0.193,0.334-0.386,0.669-0.58,1.003
		c-0.225,0.358-0.449,0.716-0.674,1.074c-0.197,0.32-0.415,0.627-0.624,0.939c-0.202,0.298-0.398,0.601-0.614,0.889
		c-0.263,0.361-0.524,0.722-0.787,1.082c-0.242,0.313-0.487,0.624-0.729,0.937c-0.459,0.601-0.958,1.169-1.438,1.753
		c-0.036,0.042-0.074,0.084-0.111,0.125h3.713c0.116-0.148,0.233-0.295,0.345-0.446c0.416-0.586,0.855-1.157,1.248-1.759
		c0.22-0.328,0.44-0.657,0.659-0.985c0.242-0.389,0.482-0.779,0.723-1.168c0.202-0.318,0.378-0.651,0.567-0.977c0,0,0,0,0,0
		c0.189-0.334,0.384-0.665,0.554-1.009c0.22-0.431,0.456-0.854,0.656-1.295c0.154-0.327,0.309-0.653,0.461-0.981
		c0.181-0.423,0.36-0.847,0.539-1.27c0.134-0.349,0.263-0.7,0.396-1.049v-14.21c-0.09-0.158-0.172-0.322-0.271-0.475
		c-0.83-1.298-1.992-2.38-3.345-3.118c-1.554-0.857-3.328-1.269-5.095-1.328c-1.181-0.043-2.364,0.069-3.523,0.296
		c-0.529,0.098-1.049,0.239-1.565,0.387c-2.327,0.684-4.508,1.821-6.464,3.25c-0.02,0.01-0.04,0.032-0.064,0.024
		c-0.11-0.025-0.219-0.056-0.327-0.085c0,0,0,0,0.001,0c1.649-1.281,3.467-2.351,5.406-3.13c0.964-0.388,1.958-0.698,2.97-0.932
		c0.493-0.116,0.994-0.198,1.496-0.27c1.544-0.213,3.123-0.218,4.661,0.047c1.701,0.29,3.355,0.923,4.769,1.92
		c0.482,0.336,0.933,0.714,1.352,1.127v-1.587c-1.232-0.855-2.615-1.487-4.066-1.862C43.537,17.007,43.134,16.935,42.731,16.866z"/>
	<path fill="#FFFFFF" d="M46.852,45.364c-0.172,0.31-0.369,0.605-0.553,0.908c-0.216,0.339-0.418,0.688-0.647,1.019
		C45.49,47.527,45.33,47.763,45.17,48H48v-4.727c-0.149,0.287-0.297,0.574-0.447,0.86C47.319,44.544,47.086,44.954,46.852,45.364z"
		/>
	<path fill="#FFFFFF" d="M26.416,46.198c0.252-0.202,0.505-0.402,0.756-0.606c0.369-0.309,0.737-0.618,1.105-0.927
		c0.253-0.207,0.493-0.427,0.74-0.641c0.283-0.252,0.57-0.499,0.852-0.753c0.312-0.291,0.627-0.578,0.94-0.869
		c0.253-0.227,0.491-0.471,0.738-0.704c0.288-0.288,0.59-0.561,0.869-0.858c0.272-0.277,0.544-0.553,0.817-0.829
		c0.495-0.535,1.002-1.059,1.478-1.61c0.251-0.284,0.506-0.565,0.747-0.858c0.26-0.315,0.531-0.622,0.782-0.945
		c0.268-0.342,0.545-0.676,0.802-1.026c0.185-0.249,0.372-0.495,0.556-0.745c0.222-0.319,0.45-0.635,0.669-0.956
		c0.235-0.362,0.48-0.717,0.702-1.087c0.749-1.206,1.42-2.464,1.942-3.786c0.348-0.892,0.63-1.813,0.778-2.76
		c0.135-0.868,0.158-1.764-0.035-2.626c-0.056-0.242-0.128-0.48-0.219-0.711c0-0.001-0.001-0.002-0.002-0.003
		c-0.091-0.229-0.2-0.451-0.331-0.661c-0.097-0.159-0.205-0.31-0.323-0.453c-0.356-0.428-0.803-0.78-1.296-1.037
		c-0.857-0.45-1.831-0.633-2.792-0.663c-1.195-0.032-2.386,0.167-3.533,0.493c-1.333,0.39-2.614,0.95-3.814,1.648c0,0,0,0,0,0
		c0.113,0.049,0.24,0.043,0.36,0.067c0.001,0,0.001,0,0.002,0c-0.765-0.017-1.529,0.033-2.291,0.093
		c-1.851,0.154-3.695,0.382-5.538,0.616c-3.714,0.482-7.419,1.027-11.12,1.597C7.165,25.153,3.58,25.735,0,26.346v3.152
		c4.446-1.019,8.891-2.037,13.336-3.061c3.7-0.85,7.399-1.707,11.099-2.56c1.434-0.33,2.867-0.661,4.304-0.979
		c0.735-0.159,1.469-0.326,2.212-0.442c0.146-0.013,0.291-0.054,0.438-0.035c0.149-0.004,0.3,0.004,0.447-0.021
		c0.491-0.174,0.994-0.324,1.512-0.394c0.27-0.033,0.55-0.053,0.816,0.018c0.142,0.038,0.29,0.121,0.34,0.267
		c0.028,0.085,0.026,0.172,0.008,0.258c-0.018,0.085-0.052,0.168-0.089,0.245c-0.132,0.261-0.321,0.488-0.516,0.703
		c-0.485,0.521-1.037,0.974-1.6,1.406c-0.719,0.549-1.468,1.059-2.227,1.55c-1.854,1.195-3.777,2.278-5.721,3.318
		c-2.334,1.242-4.706,2.409-7.102,3.527c-3.099,1.443-6.236,2.803-9.405,4.084c-1.947,0.788-3.906,1.544-5.877,2.269
		C1.317,39.891,0.659,40.125,0,40.358v4.001c1.249-0.457,2.494-0.928,3.727-1.427c0.57-0.225,1.135-0.463,1.7-0.699
		c0.53-0.217,1.056-0.447,1.582-0.674c0.549-0.233,1.092-0.478,1.637-0.721c0.595-0.26,1.183-0.536,1.774-0.806
		c0.482-0.219,0.959-0.45,1.437-0.676c0.593-0.277,1.178-0.569,1.768-0.854c0.586-0.284,1.164-0.583,1.747-0.873
		c2.786-1.417,5.532-2.915,8.212-4.525c1.635-0.982,3.245-2.006,4.815-3.089c1.507-1.047,2.984-2.144,4.362-3.357
		c0.668-0.597,1.318-1.218,1.895-1.904c0.29-0.347,0.562-0.712,0.781-1.108c0.159-0.298,0.3-0.617,0.318-0.959v0
		c0.018-0.267-0.083-0.55-0.3-0.715c-0.287-0.225-0.663-0.281-1.017-0.3c-0.546-0.014-1.09,0.079-1.617,0.212
		c-0.531,0.131-1.048,0.316-1.555,0.52c-0.148,0-0.298-0.014-0.446-0.026c-0.001,0-0.001,0-0.002,0
		c0.583-0.271,1.189-0.493,1.806-0.674c0.494-0.142,0.998-0.253,1.509-0.312c0.561-0.063,1.137-0.071,1.686,0.074
		c0.297,0.08,0.588,0.212,0.814,0.425c0.176,0.162,0.304,0.374,0.371,0.604c0.085,0.291,0.076,0.595,0.025,0.892
		c-0.025,0.146-0.056,0.291-0.098,0.431c-0.13,0.417-0.32,0.813-0.534,1.193c-0.36,0.63-0.79,1.217-1.248,1.779
		c-0.474,0.579-0.98,1.131-1.503,1.667c-1.131,1.149-2.34,2.219-3.587,3.239c-1.433,1.175-2.92,2.281-4.435,3.347
		c-0.36,0.249-0.721,0.497-1.081,0.747c-0.333,0.223-0.666,0.445-0.999,0.668c-0.393,0.266-0.795,0.518-1.192,0.778
		c-0.464,0.303-0.937,0.594-1.406,0.889c-0.396,0.251-0.799,0.49-1.198,0.734c-0.35,0.213-0.701,0.425-1.056,0.63
		c-0.809,0.483-1.631,0.946-2.451,1.411c-0.493,0.271-0.986,0.542-1.479,0.813c-0.859,0.457-1.716,0.919-2.586,1.355
		c-0.38,0.199-0.764,0.393-1.15,0.58c-0.92,0.463-1.851,0.903-2.782,1.342c-0.488,0.223-0.976,0.445-1.464,0.668
		c-0.822,0.361-1.642,0.726-2.473,1.065c-0.449,0.189-0.9,0.376-1.354,0.553c-0.467,0.183-0.932,0.374-1.403,0.546
		C1.387,47.88,1.227,47.94,1.066,48h9.418c0.027-0.013,0.054-0.027,0.081-0.04c0.353-0.172,0.699-0.358,1.049-0.535
		c0.36-0.19,0.725-0.369,1.082-0.564c0.685-0.37,1.373-0.733,2.049-1.12c0.393-0.223,0.79-0.44,1.179-0.669
		c0.656-0.386,1.316-0.765,1.963-1.167c0.39-0.24,0.784-0.473,1.169-0.72c0.624-0.397,1.252-0.788,1.866-1.2
		c0.349-0.233,0.705-0.457,1.049-0.698c0.378-0.258,0.757-0.517,1.134-0.776c0.613-0.436,1.231-0.865,1.834-1.315
		c0.333-0.249,0.672-0.491,1.002-0.745c0.33-0.253,0.66-0.505,0.989-0.758c0.307-0.242,0.611-0.486,0.918-0.729
		c0.315-0.247,0.618-0.506,0.928-0.759c0.328-0.267,0.648-0.543,0.967-0.819c0.267-0.227,0.532-0.457,0.791-0.693
		c0.297-0.265,0.595-0.528,0.883-0.803c0.274-0.254,0.549-0.506,0.815-0.77c0.826-0.793,1.621-1.618,2.38-2.476
		c0.236-0.259,0.455-0.532,0.684-0.797c0.768-0.935,1.493-1.911,2.097-2.961c0.377-0.661,0.709-1.352,0.928-2.082
		c0.127-0.443,0.218-0.901,0.209-1.365c0,0,0,0,0,0c-0.001-0.449-0.105-0.906-0.346-1.289c-0.213-0.344-0.532-0.614-0.891-0.797
		c-0.338-0.173-0.709-0.276-1.083-0.335c-0.649-0.1-1.31-0.071-1.958,0.019c-1.385,0.201-2.715,0.684-3.968,1.296
		c-0.155,0.01-0.312-0.023-0.467-0.035c0,0,0,0,0,0c0.778-0.425,1.594-0.778,2.43-1.071c0.95-0.328,1.936-0.562,2.939-0.646
		c0.665-0.051,1.34-0.04,1.996,0.093c0.716,0.142,1.421,0.44,1.95,0.954c0.314,0.3,0.553,0.673,0.71,1.077
		c0.159,0.415,0.235,0.859,0.242,1.303c0.018,0.508-0.051,1.016-0.158,1.512c-0.182,0.815-0.48,1.599-0.833,2.354c0,0,0,0,0,0
		c-0.335,0.713-0.724,1.399-1.142,2.067c-0.316,0.505-0.647,1.001-0.994,1.485c-0.229,0.306-0.449,0.619-0.687,0.918
		c-0.227,0.287-0.447,0.58-0.685,0.858c-0.253,0.308-0.506,0.616-0.772,0.914c-0.244,0.278-0.484,0.559-0.738,0.828
		c-0.272,0.297-0.54,0.597-0.824,0.883c-0.304,0.319-0.607,0.639-0.924,0.944c-0.24,0.239-0.48,0.478-0.722,0.715
		c-0.004,0.004-0.009,0.009-0.013,0.013c-0.347,0.324-0.688,0.653-1.036,0.977c-0.312,0.283-0.625,0.565-0.937,0.849
		c-0.261,0.234-0.529,0.46-0.793,0.691c-0.596,0.524-1.212,1.024-1.823,1.53c-0.605,0.479-1.203,0.967-1.821,1.429
		c-0.355,0.267-0.704,0.543-1.065,0.804c-0.585,0.425-1.164,0.858-1.761,1.267c-0.19,0.133-0.379,0.265-0.569,0.398
		c-0.125,0.087-0.25,0.175-0.375,0.262c-0.071,0.047-0.142,0.095-0.213,0.142c-0.282,0.188-0.564,0.377-0.846,0.565
		c-0.649,0.439-1.317,0.85-1.975,1.276c-0.171,0.105-0.343,0.21-0.514,0.314h6.196c0.482-0.355,0.961-0.715,1.438-1.076
		C25.809,46.688,26.109,46.439,26.416,46.198z"/>
	<path fill="#FFFFFF" d="M17.906,30.091c2.745-1.094,5.472-2.233,8.16-3.461c1.094-0.502,2.182-1.018,3.255-1.563
		c0.878-0.449,1.751-0.912,2.591-1.43c0.142-0.089,0.282-0.181,0.422-0.274c0.163-0.108,0.32-0.224,0.475-0.342
		c0.091-0.069,0.185-0.133,0.272-0.207c0.06-0.055,0.121-0.11,0.177-0.17c0.056-0.06,0.108-0.124,0.146-0.197
		c0.033-0.062,0.048-0.152-0.016-0.2c-0.049-0.034-0.105-0.048-0.163-0.053c0,0,0,0,0,0c-0.058-0.005-0.117-0.001-0.173,0.001
		c-0.238,0.023-0.474,0.076-0.701,0.153c0,0,0,0,0,0c0.012,0.007,0.037,0.02,0.049,0.027c0,0,0,0,0,0
		c-0.216,0.133-0.452,0.231-0.683,0.335c-1.094,0.473-2.213,0.888-3.331,1.3c-2.871,1.045-5.771,2.009-8.678,2.949
		c-3.286,1.058-6.585,2.076-9.892,3.067C6.553,31.005,3.28,31.953,0,32.875v3.645c2.799-0.906,5.587-1.846,8.358-2.833
		C11.561,32.542,14.747,31.349,17.906,30.091z"/>
</g>
</svg>
