<?xml version="1.0" encoding="utf-8"?>
<!-- Generator: Adobe Illustrator 17.0.0, SVG Export Plug-In . SVG Version: 6.00 Build 0)  -->
<!DOCTYPE svg PUBLIC "-//W3C//DTD SVG 1.1//EN" "http://www.w3.org/Graphics/SVG/1.1/DTD/svg11.dtd">
<svg version="1.1" id="Layer_1" xmlns="http://www.w3.org/2000/svg" xmlns:xlink="http://www.w3.org/1999/xlink" x="0px" y="0px"
	 width="40px" height="40px" viewBox="0 0 40 40" enable-background="new 0 0 40 40" xml:space="preserve">
<g>
	<path fill="#FFFFFF" d="M14,2l-3.66,4H4c-2.2,0-4,1.8-4,4v24c0,2.2,1.8,4,4,4h32c2.2,0,4-1.8,4-4V10c0-2.2-1.8-4-4-4h-6.34L26,2H14
		z M20,32c-5.52,0-10-4.48-10-10s4.48-10,10-10s10,4.48,10,10S25.52,32,20,32z"/>
	<path fill="#FFFFFF" d="M14.384,16.838h4.072l1.57,6.098l1.56-6.098h4.07v10.02H23.12v-7.642l-1.955,7.643H18.87l-1.95-7.645v7.643
		h-2.536v-10.02V16.838z"/>
</g>
</svg>
