<?xml version="1.0" encoding="utf-8"?>
<!-- Generator: Adobe Illustrator 17.0.0, SVG Export Plug-In . SVG Version: 6.00 Build 0)  -->
<!DOCTYPE svg PUBLIC "-//W3C//DTD SVG 1.1//EN" "http://www.w3.org/Graphics/SVG/1.1/DTD/svg11.dtd">
<svg version="1.1" id="Layer_1" xmlns="http://www.w3.org/2000/svg" xmlns:xlink="http://www.w3.org/1999/xlink" x="0px" y="0px"
	 width="101.56px" height="101.56px" viewBox="0 0 101.56 101.56" enable-background="new 0 0 101.56 101.56" xml:space="preserve">
<g id="Solid">
	<g>
		<path fill="#FFFFFF" d="M38.796,7.639H21.613c-2.636,0-4.793,2.157-4.793,4.793v76.695c0,2.636,2.157,4.793,4.793,4.793h17.183
			c2.636,0,4.793-2.157,4.793-4.793V12.432C43.59,9.796,41.433,7.639,38.796,7.639z"/>
	</g>
	<path fill="#FFFFFF" d="M78.796,7.639H61.613c-2.636,0-4.793,2.157-4.793,4.793v76.695c0,2.636,2.157,4.793,4.793,4.793h17.183
		c2.636,0,4.793-2.157,4.793-4.793V12.432C83.59,9.796,81.433,7.639,78.796,7.639z"/>
</g>
</svg>
