<?xml version="1.0" encoding="utf-8"?>
<!-- Generator: Adobe Illustrator 17.0.0, SVG Export Plug-In . SVG Version: 6.00 Build 0)  -->
<!DOCTYPE svg PUBLIC "-//W3C//DTD SVG 1.1//EN" "http://www.w3.org/Graphics/SVG/1.1/DTD/svg11.dtd">
<svg version="1.1" id="Layer_1" xmlns="http://www.w3.org/2000/svg" xmlns:xlink="http://www.w3.org/1999/xlink" x="0px" y="0px"
	 width="40px" height="40px" viewBox="0 0 40 40" enable-background="new 0 0 40 40" xml:space="preserve">
<path fill="#FFFFFF" d="M3.783,20.208L20.304,0.266c0.111-0.111,0.243-0.174,0.396-0.188s0.285,0.028,0.396,0.125
	c0.181,0.153,0.236,0.341,0.167,0.563L16.82,15.452l11.056,4.422l-16.438,19.9c-0.097,0.111-0.226,0.174-0.386,0.188
	s-0.296-0.028-0.407-0.125c-0.181-0.167-0.236-0.355-0.167-0.563l4.443-14.706L3.783,20.208z M40.136,13.924l-2.274,2.274
	l-5.819-5.822l-5.819,5.819l-2.277-2.277L29.77,8.1l-5.819-5.822L26.23,0l5.815,5.829l5.819-5.819l2.277,2.281L34.319,8.11
	L40.136,13.924z"/>
</svg>
