<?xml version="1.0" encoding="utf-8"?>
<!-- Generator: Adobe Illustrator 17.0.0, SVG Export Plug-In . SVG Version: 6.00 Build 0)  -->
<!DOCTYPE svg PUBLIC "-//W3C//DTD SVG 1.1//EN" "http://www.w3.org/Graphics/SVG/1.1/DTD/svg11.dtd">
<svg version="1.1" id="Layer_1" xmlns="http://www.w3.org/2000/svg" xmlns:xlink="http://www.w3.org/1999/xlink" x="0px" y="0px"
	 width="24px" height="24px" viewBox="0 0 24 24" enable-background="new 0 0 24 24" xml:space="preserve">
<path fill="#FFFFFF" d="M9.568,13.038l1.735,2.08l2.429-3.124l3.124,4.165H7.139 M18.246,16.857V7.135
	c0-0.769-0.624-1.386-1.387-1.386H7.141c-0.767,0-1.389,0.622-1.389,1.389v9.716c0,0.767,0.622,1.389,1.389,1.389h9.718
	c0.764,0,1.389-0.622,1.389-1.389v0.003H18.246z"/>
<path fill="#FFFFFF" d="M3.113,0.659l2.96,3.444H4.141V19.81h11.636l1.845,1.979H4.064c-1.05,0-1.902-0.846-1.902-1.679V4.103
	h-2.165L3.113,0.659z M20.889,23.283l-2.96-3.444h1.931V4.134H8.223l-1.845-1.98h13.557c1.05,0,1.902,0.846,1.902,1.679V19.84h2.165
	l-3.116,3.444L20.889,23.283L20.889,23.283z"/>
</svg>
