<?xml version="1.0" encoding="utf-8"?>
<!-- Generator: Adobe Illustrator 17.0.0, SVG Export Plug-In . SVG Version: 6.00 Build 0)  -->
<!DOCTYPE svg PUBLIC "-//W3C//DTD SVG 1.1//EN" "http://www.w3.org/Graphics/SVG/1.1/DTD/svg11.dtd">
<svg version="1.1" id="Layer_1" xmlns="http://www.w3.org/2000/svg" xmlns:xlink="http://www.w3.org/1999/xlink" x="0px" y="0px"
	 width="24px" height="24px" viewBox="0 0 24 24" enable-background="new 0 0 24 24" xml:space="preserve">
<path fill="#FFFFFF" d="M16.475,16.475c-0.828,0-1.492,0.664-1.492,1.492c0,0.824,0.668,1.492,1.492,1.492
	c0.824,0,1.492-0.668,1.492-1.492C17.967,17.139,17.295,16.475,16.475,16.475 M4.542,4.542v1.492h1.492l2.685,5.661l-1.014,1.827
	c-0.112,0.209-0.179,0.455-0.179,0.716c0,0.824,0.668,1.492,1.492,1.492h8.95v-1.492H9.33c-0.103,0-0.186-0.083-0.186-0.186
	c0-0.037,0.007-0.067,0.022-0.089l0.671-1.216h5.556c0.559,0,1.052-0.313,1.305-0.768l2.67-4.825
	c0.052-0.119,0.089-0.246,0.089-0.373c0-0.412-0.334-0.746-0.746-0.746H7.682L6.981,4.542 M9.017,16.475
	c-0.828,0-1.492,0.664-1.492,1.492c0,0.824,0.668,1.492,1.492,1.492c0.824,0,1.492-0.668,1.492-1.492
	C10.508,17.139,9.837,16.475,9.017,16.475z"/>
</svg>
