<?xml version="1.0" encoding="utf-8"?>
<!-- Generator: Adobe Illustrator 17.0.0, SVG Export Plug-In . SVG Version: 6.00 Build 0)  -->
<!DOCTYPE svg PUBLIC "-//W3C//DTD SVG 1.1//EN" "http://www.w3.org/Graphics/SVG/1.1/DTD/svg11.dtd">
<svg version="1.1" id="Layer_1" xmlns="http://www.w3.org/2000/svg" xmlns:xlink="http://www.w3.org/1999/xlink" x="0px" y="0px"
	 width="45.16px" height="45.16px" viewBox="0 0 45.16 45.16" enable-background="new 0 0 45.16 45.16" xml:space="preserve">
<path fill="#FFFFFF" d="M22.58,11.27c-6.237,0-11.31,5.074-11.31,11.31s5.073,11.313,11.31,11.313c6.236,0,11.31-5.074,11.31-11.312
	s-5.074-11.31-11.31-11.31L22.58,11.27z M34.455,8.52c-1.182,0-2.15,0.982-2.15,2.182s0.967,2.18,2.15,2.18
	c1.182,0,2.15-0.98,2.15-2.18s-0.968-2.18-2.15-2.18V8.52z M22.58,3.564c-1.182,0-2.15,0.98-2.15,2.18s0.967,2.182,2.15,2.182
	s2.15-0.98,2.15-2.18S23.762,3.564,22.58,3.564z M39.372,20.4c-1.182,0-2.15,0.98-2.15,2.18s0.967,2.18,2.15,2.18
	s2.15-0.98,2.15-2.18S40.554,20.4,39.372,20.4z M34.455,32.316c-1.182,0-2.15,0.98-2.15,2.18s0.967,2.182,2.15,2.182
	s2.15-0.98,2.15-2.18S35.637,32.316,34.455,32.316z M22.58,37.233c-1.182,0-2.15,0.98-2.15,2.18s0.967,2.182,2.15,2.182
	s2.15-0.98,2.15-2.18S23.762,37.233,22.58,37.233z M10.747,32.316c-1.182,0-2.15,0.98-2.15,2.18s0.967,2.182,2.15,2.182
	s2.15-0.98,2.15-2.18S11.929,32.316,10.747,32.316z M5.787,20.4c-1.18,0-2.15,0.98-2.15,2.18s0.968,2.18,2.15,2.18
	s2.15-0.98,2.15-2.18S6.971,20.4,5.787,20.4z M10.705,8.483c-1.182,0-2.15,0.98-2.15,2.18s0.967,2.182,2.15,2.182
	s2.15-0.98,2.15-2.18S11.887,8.483,10.705,8.483z"/>
</svg>
