<?xml version="1.0" encoding="utf-8"?>
<!-- Generator: Adobe Illustrator 17.0.0, SVG Export Plug-In . SVG Version: 6.00 Build 0)  -->
<!DOCTYPE svg PUBLIC "-//W3C//DTD SVG 1.1//EN" "http://www.w3.org/Graphics/SVG/1.1/DTD/svg11.dtd">
<svg version="1.1" id="Layer_1" xmlns="http://www.w3.org/2000/svg" xmlns:xlink="http://www.w3.org/1999/xlink" x="0px" y="0px"
	 width="200px" height="200px" viewBox="0 0 200 200" enable-background="new 0 0 200 200" xml:space="preserve">
<linearGradient id="SVGID_1_" gradientUnits="userSpaceOnUse" x1="1217.6987" y1="1804.6987" x2="1454.3013" y2="1941.3013" gradientTransform="matrix(1 0 0 1 -1236 -1773)">
	<stop  offset="0.4184" style="stop-color:#FFFFFF"/>
	<stop  offset="0.622" style="stop-color:#ECECEC"/>
	<stop  offset="1" style="stop-color:#BFBFBF"/>
</linearGradient>
<rect display="none" fill="url(#SVGID_1_)" width="200" height="200"/>
<g>
	<path fill="#FFFFFF" d="M199.221,177.147c0,0.016-0.002,0.032-0.002,0.048h0.002V177.147z"/>
</g>
<g>
	<path fill="#FFFFFF" d="M37.926,138.637C50.788,119.7,95.983,93.619,95.983,93.619C32.268,48.721,30.597,30.022,30.597,30.022
		c-1.076,79.318-0.416,77.291,0.773,88.489C32.571,129.703,37.926,138.637,37.926,138.637z"/>
	<path fill="#FFFFFF" d="M169.946,113.269V30.022c-5.896,29.831-90.575,80.031-90.575,80.031
		c-34.836,22.693-38.586,34.301-38.586,34.301c17.688,32.333,53.237,31.62,53.237,31.62v0.44h12.327l-0.178-0.262
		C169.233,168.468,169.946,113.269,169.946,113.269z"/>
	<path fill="#FFFFFF" d="M100.435,90.065l29.314-21.463c-8.398-20.006-30.015-45.017-30.015-45.017S78.771,47.087,70.366,67.093
		l15.002,11.739L100.435,90.065z"/>
</g>
</svg>
