<?xml version="1.0" encoding="utf-8"?>
<!-- Generator: Adobe Illustrator 17.0.0, SVG Export Plug-In . SVG Version: 6.00 Build 0)  -->
<!DOCTYPE svg PUBLIC "-//W3C//DTD SVG 1.1//EN" "http://www.w3.org/Graphics/SVG/1.1/DTD/svg11.dtd">
<svg version="1.1" id="Layer_1" xmlns="http://www.w3.org/2000/svg" xmlns:xlink="http://www.w3.org/1999/xlink" x="0px" y="0px"
	 width="24px" height="24px" viewBox="0 0 24 24" enable-background="new 0 0 24 24" xml:space="preserve">
<path fill="#FFFFFF" d="M2.49,3.628h3.566L8.433,1.25h7.133l2.378,2.378h3.567c1.314,0,2.38,1.065,2.38,2.378v14.267
	c0,1.313-1.066,2.378-2.38,2.378H2.49c-1.314,0-2.38-1.064-2.38-2.377V6.006C0.11,4.692,1.176,3.628,2.49,3.628 M12,7.194
	c-3.283,0-5.944,2.66-5.944,5.944s2.66,5.945,5.944,5.945s5.944-2.66,5.944-5.944S15.284,7.193,12,7.194 M12,9.571
	c1.97,0,3.567,1.597,3.567,3.567S13.97,16.705,12,16.705S8.433,15.11,8.433,13.14S10.03,9.57,12,9.57V9.571z"/>
</svg>
