<?xml version="1.0" encoding="utf-8"?>
<!-- Generator: Adobe Illustrator 17.0.0, SVG Export Plug-In . SVG Version: 6.00 Build 0)  -->
<!DOCTYPE svg PUBLIC "-//W3C//DTD SVG 1.1//EN" "http://www.w3.org/Graphics/SVG/1.1/DTD/svg11.dtd">
<svg version="1.1" id="Layer_1" xmlns="http://www.w3.org/2000/svg" xmlns:xlink="http://www.w3.org/1999/xlink" x="0px" y="0px"
	 width="408.483px" height="408.483px" viewBox="0 0 408.483 408.483" enable-background="new 0 0 408.483 408.483"
	 xml:space="preserve">
<g>
	<path fill="#FFFFFF" d="M204.671,305.704c-21.403,0-38.816,17.414-38.816,38.82c0,21.405,17.413,38.819,38.816,38.819
		c21.405,0,38.819-17.416,38.819-38.823c0.001-10.355-4.041-20.099-11.379-27.437C224.772,309.745,215.027,305.704,204.671,305.704z
		"/>
	<path fill="#FFFFFF" d="M204.671,165.458c-21.403,0-38.816,17.418-38.816,38.828c0,21.404,17.413,38.816,38.816,38.816
		c21.405,0,38.819-17.416,38.819-38.824C243.491,182.872,226.076,165.458,204.671,165.458z"/>
	<path fill="#FFFFFF" d="M204.671,25.218c-21.403,0-38.816,17.414-38.816,38.819c0,21.405,17.413,38.82,38.816,38.82
		c21.405,0,38.819-17.416,38.819-38.823c0.001-10.355-4.041-20.099-11.38-27.437C224.772,29.259,215.027,25.218,204.671,25.218z"/>
	<path fill="#FFFFFF" d="M64.428,165.461c-21.403,0-38.816,17.414-38.816,38.82c0,21.404,17.414,38.816,38.819,38.816
		c21.403,0,38.816-17.412,38.816-38.816c0-10.357-4.041-20.102-11.38-27.441C84.529,169.502,74.784,165.461,64.428,165.461z"/>
	<path fill="#FFFFFF" d="M372.354,176.841c-7.339-7.338-17.083-11.38-27.44-11.38c-21.405,0-38.819,17.414-38.819,38.82
		c0,21.404,17.416,38.816,38.823,38.816c21.403,0,38.816-17.412,38.816-38.816C383.735,193.925,379.693,184.18,372.354,176.841z"/>
</g>
</svg>
