<?xml version="1.0" encoding="utf-8"?>
<!-- Generator: Adobe Illustrator 17.0.0, SVG Export Plug-In . SVG Version: 6.00 Build 0)  -->
<!DOCTYPE svg PUBLIC "-//W3C//DTD SVG 1.1//EN" "http://www.w3.org/Graphics/SVG/1.1/DTD/svg11.dtd">
<svg version="1.1" id="Layer_1" xmlns="http://www.w3.org/2000/svg" xmlns:xlink="http://www.w3.org/1999/xlink" x="0px" y="0px"
	 width="800px" height="800px" viewBox="0 0 800 800" enable-background="new 0 0 800 800" xml:space="preserve">
<g>
	<path fill="#FFFFFF" enable-background="new    " d="M424.768,797.529c0,0,261.249,0.86,320.752-277.641
		C745.509,519.905,482.522,523.34,424.768,797.529z"/>
	<path fill="#FFFFFF" enable-background="new    " d="M56.48,519.699C115.971,798.2,377.232,797.34,377.232,797.34
		C319.466,523.133,56.48,519.699,56.48,519.699z"/>
	<path fill="#FFFFFF" enable-background="new    " d="M215.506,345.193c38.386-56.504,173.239-134.325,173.239-134.325
		C198.632,76.892,193.655,21.11,193.655,21.11c-3.199,236.669-1.25,230.62,2.311,264.035
		C199.526,318.543,215.506,345.193,215.506,345.193z"/>
	<path fill="#FFFFFF" enable-background="new    " d="M415.778,457.903c188.152-22.911,193.639-188.405,193.639-188.405V21.11
		c-17.596,89.025-270.251,238.796-270.251,238.796C235.235,327.62,224.026,362.25,224.026,362.25
		c52.766,96.473,162.099,95.653,162.099,95.653h0.149V798.08h29.746l-0.302-340.177H415.778z"/>
	<path fill="#FFFFFF" enable-background="new    " d="M402.012,200.283l87.471-64.038C464.427,76.536,399.937,1.92,399.937,1.92
		s-62.553,70.121-87.62,129.813l44.762,35.032L402.012,200.283z"/>
</g>
</svg>
