<?xml version="1.0" encoding="utf-8"?>
<!-- Generator: Adobe Illustrator 17.0.0, SVG Export Plug-In . SVG Version: 6.00 Build 0)  -->
<!DOCTYPE svg PUBLIC "-//W3C//DTD SVG 1.1//EN" "http://www.w3.org/Graphics/SVG/1.1/DTD/svg11.dtd">
<svg version="1.1" id="Layer_1" xmlns="http://www.w3.org/2000/svg" xmlns:xlink="http://www.w3.org/1999/xlink" x="0px" y="0px"
	 width="23.536px" height="25.712px" viewBox="0 0 23.536 25.712" enable-background="new 0 0 23.536 25.712" xml:space="preserve">
<g>
	<path fill="#FFFFFF" d="M1.324,19.357c2.164-3.186,9.768-7.574,9.768-7.574C0.372,4.229,0.091,1.083,0.091,1.083
		c-0.181,13.345-0.07,13.004,0.13,14.888C0.423,17.854,1.324,19.357,1.324,19.357z"/>
	<path fill="#FFFFFF" d="M23.536,15.089V1.083C22.544,6.102,8.297,14.548,8.297,14.548c-5.861,3.818-6.492,5.771-6.492,5.771
		c2.976,5.44,8.957,5.32,8.957,5.32v0.074h2.074l-0.03-0.044C23.416,24.376,23.536,15.089,23.536,15.089z"/>
	<path fill="#FFFFFF" d="M11.841,11.185l4.932-3.611C15.36,4.208,11.723,0,11.723,0S8.196,3.954,6.782,7.32l2.524,1.975
		L11.841,11.185z"/>
</g>
</svg>
