<?xml version="1.0" encoding="utf-8"?>
<!-- Generator: Adobe Illustrator 17.0.0, SVG Export Plug-In . SVG Version: 6.00 Build 0)  -->
<!DOCTYPE svg PUBLIC "-//W3C//DTD SVG 1.1//EN" "http://www.w3.org/Graphics/SVG/1.1/DTD/svg11.dtd">
<svg version="1.1" id="Layer_1" xmlns="http://www.w3.org/2000/svg" xmlns:xlink="http://www.w3.org/1999/xlink" x="0px" y="0px"
	 width="88.761px" height="41.583px" viewBox="0 0 88.761 41.583" enable-background="new 0 0 88.761 41.583" xml:space="preserve">
<g>
	<g>
		<path fill="#FFFFFF" d="M55.719,16.445c-1.338,0-1.338,1.154-1.338,1.844v20.003c0,0.69,0,1.844,1.338,1.844
			c1.338,0,1.338-1.153,1.338-1.843V18.29c0-0.69,0-1.844-1.338-1.844L55.719,16.445z M84.773,36.988
			c-0.144,0-0.284,0.018-0.418,0.056c-0.127,0.035-0.255,0.079-0.381,0.126c-0.092,0.033-0.186,0.066-0.281,0.095
			c-0.661,0.202-1.323,0.356-2.024,0.473c-0.707,0.117-1.389,0.174-2.078,0.174c-1.608,0-3.03-0.205-4.227-0.609
			c-1.185-0.4-2.193-0.979-2.997-1.722c-0.819-0.754-1.431-1.639-1.87-2.707c-0.144-0.35-0.272-0.729-0.381-1.125
			c-0.149-0.548-0.453-1.276-1.345-1.276c-0.413,0-0.8,0.182-1.039,0.483c-0.171,0.22-0.347,0.598-0.211,1.167
			c0.123,0.504,0.272,0.993,0.451,1.459c0.562,1.476,1.377,2.752,2.418,3.792c1.041,1.041,2.32,1.852,3.801,2.408
			c1.47,0.552,3.136,0.832,4.949,0.832c0.772,0,1.49-0.031,2.138-0.092c0.65-0.062,1.297-0.158,1.918-0.286
			c0.566-0.116,1.123-0.267,1.863-0.505l0.114-0.035c0.105-0.03,0.202-0.058,0.328-0.114c0.601-0.272,0.863-1.062,0.584-1.758
			c-0.205-0.513-0.708-0.833-1.314-0.833L84.773,36.988z M88.151,23.698c-0.497-1.584-1.163-2.847-2.035-3.861
			c-0.94-1.094-2.042-1.902-3.368-2.469c-1.33-0.568-2.856-0.857-4.536-0.857c-1.626,0-3.137,0.299-4.492,0.891
			c-1.353,0.589-2.534,1.432-3.51,2.505c-0.888,0.975-1.674,2.362-2.274,4.014c-0.108,0.299-0.213,0.657-0.311,1.063
			c-0.095,0.398-0.033,0.773,0.174,1.056c0.198,0.271,0.505,0.434,0.867,0.46l0.12,0.004c0.657,0,1.16-0.424,1.38-1.16
			c0.088-0.293,0.186-0.566,0.295-0.838c0.441-1.097,1.011-2.041,1.65-2.729c0.747-0.805,1.606-1.426,2.551-1.845
			c1.039-0.461,2.227-0.696,3.53-0.696c1.471,0,2.675,0.214,3.682,0.656c1.015,0.445,1.857,1.046,2.501,1.784
			c0.725,0.835,1.207,1.993,1.485,2.819c0.296,0.884,0.39,1.765,0.422,2.914H75.1c-0.902,0-1.441,0.499-1.441,1.338
			c0,0.838,0.54,1.338,1.441,1.338H87.32c0.064-0.004,0.637-0.041,1.007-0.413c0.376-0.375,0.427-0.849,0.433-0.94
			c0-2.143-0.187-3.697-0.608-5.036L88.151,23.698z M17.299,36.988c-0.144,0-0.284,0.018-0.417,0.055
			c-0.127,0.035-0.253,0.079-0.381,0.125c-0.092,0.033-0.186,0.066-0.283,0.095c-0.659,0.202-1.321,0.355-2.021,0.472
			c-0.708,0.117-1.389,0.174-2.079,0.174c-1.608,0-3.03-0.205-4.227-0.609c-1.185-0.4-2.193-0.979-2.997-1.722
			c-0.82-0.754-1.432-1.64-1.87-2.707c-0.144-0.35-0.272-0.729-0.381-1.125c-0.149-0.548-0.453-1.276-1.345-1.276
			c-0.413,0-0.8,0.181-1.037,0.483c-0.172,0.22-0.348,0.598-0.211,1.167c0.121,0.504,0.272,0.995,0.45,1.459
			c0.562,1.476,1.377,2.751,2.418,3.791c1.042,1.041,2.32,1.852,3.802,2.408c1.47,0.552,3.136,0.832,4.949,0.832
			c0.772,0,1.49-0.032,2.138-0.093c0.652-0.062,1.298-0.158,1.919-0.286c0.566-0.114,1.123-0.266,1.863-0.504l0.114-0.035
			c0.107-0.03,0.204-0.058,0.328-0.114c0.601-0.272,0.863-1.061,0.585-1.758C18.41,37.307,17.905,36.987,17.299,36.988
			L17.299,36.988z M18.642,19.837c-0.94-1.093-2.042-1.901-3.368-2.469c-1.329-0.568-2.856-0.856-4.535-0.856
			c-1.628,0-3.137,0.299-4.493,0.891c-1.353,0.591-2.534,1.432-3.509,2.505c-0.888,0.975-1.675,2.364-2.276,4.016
			c-0.107,0.299-0.211,0.656-0.309,1.063c-0.095,0.397-0.033,0.773,0.174,1.056c0.198,0.271,0.505,0.434,0.866,0.46l0.12,0.004
			c0.665,0,1.156-0.41,1.38-1.157c0.088-0.294,0.186-0.567,0.295-0.839c0.441-1.097,1.011-2.041,1.65-2.729
			c0.747-0.806,1.606-1.427,2.551-1.847c1.039-0.46,2.227-0.694,3.53-0.694c1.471,0,2.675,0.214,3.682,0.656
			c1.016,0.446,1.857,1.046,2.502,1.784c0.726,0.835,1.208,1.993,1.485,2.818c0.297,0.886,0.392,1.766,0.424,2.914H7.625
			c-0.902,0-1.441,0.499-1.441,1.338s0.54,1.338,1.441,1.338h12.221c0.064-0.004,0.637-0.041,1.007-0.413
			c0.375-0.375,0.426-0.849,0.432-0.94c0-2.144-0.187-3.7-0.608-5.038C20.181,22.115,19.515,20.853,18.642,19.837L18.642,19.837z
			 M47.3,37.279h-8.091c-1.429,0-2.584-0.11-3.431-0.327c-0.805-0.205-1.422-0.518-1.835-0.935c-0.413-0.417-0.677-0.94-0.808-1.599
			c-0.141-0.709-0.211-1.573-0.211-2.566V18.053c0-1.134-0.703-1.538-1.36-1.538c-0.657,0-1.36,0.404-1.36,1.538v14.198
			c0,1.324,0.128,2.487,0.382,3.459c0.264,1.011,0.742,1.863,1.419,2.531c0.675,0.663,1.586,1.157,2.707,1.468
			c1.09,0.301,2.478,0.455,4.129,0.455H47.3c0.932,0,1.489-0.539,1.489-1.441C48.788,37.82,48.233,37.279,47.3,37.279z"/>
	</g>
	<g>
		<path fill="#FFFFFF" d="M19.302,2.372c0,0.272-0.044,0.512-0.132,0.72c-0.089,0.209-0.228,0.384-0.417,0.526
			c-0.19,0.143-0.435,0.25-0.734,0.323c-0.299,0.072-0.66,0.109-1.082,0.109h-2.442v2.089h-0.494V0.703h2.936
			c0.422,0,0.783,0.036,1.082,0.109c0.299,0.072,0.544,0.179,0.734,0.318c0.19,0.14,0.329,0.314,0.417,0.523
			C19.258,1.86,19.302,2.101,19.302,2.372z M18.796,2.372c0-0.258-0.043-0.467-0.128-0.625c-0.086-0.158-0.218-0.28-0.397-0.366
			c-0.178-0.086-0.404-0.143-0.677-0.172c-0.273-0.029-0.597-0.043-0.972-0.043h-2.127v2.421h2.127c0.145,0,0.3,0.001,0.465,0.002
			c0.165,0.001,0.328-0.006,0.489-0.024c0.161-0.017,0.315-0.047,0.461-0.091c0.146-0.043,0.276-0.11,0.388-0.199
			c0.112-0.09,0.202-0.207,0.269-0.352C18.762,2.778,18.796,2.594,18.796,2.372z"/>
		<path fill="#FFFFFF" d="M27.157,3.425c0,0.488-0.088,0.909-0.265,1.264c-0.177,0.355-0.419,0.648-0.727,0.879
			c-0.308,0.231-0.672,0.401-1.092,0.512c-0.419,0.111-0.871,0.166-1.356,0.166c-0.487,0-0.942-0.055-1.364-0.166
			s-0.788-0.282-1.1-0.512c-0.311-0.231-0.555-0.523-0.731-0.879c-0.177-0.355-0.265-0.776-0.265-1.264
			c0-0.325,0.041-0.619,0.123-0.884s0.197-0.503,0.344-0.712c0.148-0.21,0.326-0.391,0.536-0.544c0.209-0.153,0.443-0.28,0.7-0.382
			c0.257-0.102,0.533-0.177,0.829-0.226c0.295-0.049,0.605-0.073,0.929-0.073c0.485,0,0.938,0.055,1.356,0.166
			c0.419,0.111,0.783,0.282,1.092,0.513c0.308,0.231,0.551,0.523,0.727,0.878C27.069,2.515,27.157,2.937,27.157,3.425z M26.65,3.425
			c0-0.385-0.063-0.725-0.188-1.021c-0.126-0.295-0.311-0.544-0.557-0.746c-0.246-0.202-0.551-0.355-0.917-0.459
			c-0.366-0.104-0.79-0.156-1.273-0.156s-0.908,0.053-1.277,0.158c-0.368,0.106-0.677,0.259-0.925,0.461
			c-0.248,0.202-0.435,0.451-0.562,0.748c-0.127,0.297-0.19,0.635-0.19,1.015c0,0.385,0.063,0.725,0.19,1.021
			c0.126,0.295,0.314,0.544,0.562,0.746s0.557,0.355,0.925,0.459c0.368,0.104,0.793,0.156,1.277,0.156s0.907-0.052,1.273-0.156
			c0.365-0.105,0.671-0.257,0.917-0.459c0.246-0.202,0.431-0.451,0.557-0.746C26.587,4.15,26.65,3.81,26.65,3.425z"/>
		<path fill="#FFFFFF" d="M33.078,0.703l1.939,5.041l2.01-5.041h0.55l-2.188,5.437h-0.736l-1.907-4.91l-1.903,4.91h-0.736
			l-2.188-5.437h0.55l2.01,5.041l1.935-5.041H33.078z"/>
		<path fill="#FFFFFF" d="M38.79,6.139V0.703h4.53v0.463h-3.992v1.872h3.79v0.451h-3.79v2.188h4.052v0.463H38.79z"/>
		<path fill="#FFFFFF" d="M45.402,3.813v2.326h-0.494V0.703h2.706c0.414,0,0.769,0.033,1.064,0.097
			c0.295,0.065,0.537,0.162,0.726,0.293c0.189,0.131,0.327,0.293,0.414,0.489c0.087,0.195,0.13,0.423,0.13,0.685
			c0,0.406-0.107,0.731-0.32,0.975c-0.214,0.244-0.559,0.411-1.033,0.501l1.857,2.398h-0.622l-1.752-2.343
			c-0.074,0.005-0.149,0.009-0.226,0.012c-0.077,0.002-0.156,0.004-0.237,0.004H45.402z M49.442,2.266
			c0-0.232-0.041-0.42-0.124-0.564c-0.082-0.144-0.215-0.255-0.4-0.335c-0.185-0.079-0.427-0.132-0.727-0.16
			c-0.3-0.028-0.667-0.041-1.102-0.041h-1.688V3.35h1.671c0.436,0,0.805-0.013,1.105-0.037c0.301-0.025,0.546-0.076,0.733-0.154
			c0.188-0.078,0.323-0.187,0.406-0.328C49.4,2.689,49.442,2.5,49.442,2.266z"/>
		<path fill="#FFFFFF" d="M51.657,6.139V0.703h4.531v0.463h-3.993v1.872h3.791v0.451h-3.791v2.188h4.053v0.463H51.657z"/>
		<path fill="#FFFFFF" d="M63.71,3.417c0,0.348-0.036,0.658-0.109,0.928c-0.072,0.27-0.174,0.505-0.306,0.706
			c-0.131,0.201-0.292,0.371-0.481,0.511c-0.189,0.14-0.398,0.252-0.629,0.336c-0.232,0.084-0.482,0.146-0.752,0.184
			c-0.271,0.038-0.555,0.057-0.852,0.057h-2.806V0.703h2.797c0.447,0,0.86,0.044,1.243,0.13c0.382,0.087,0.714,0.235,0.995,0.445
			c0.281,0.21,0.501,0.489,0.661,0.837C63.63,2.463,63.71,2.897,63.71,3.417z M63.204,3.419c0-0.295-0.029-0.557-0.088-0.784
			c-0.058-0.227-0.141-0.425-0.249-0.592c-0.108-0.168-0.24-0.308-0.396-0.422c-0.156-0.113-0.332-0.205-0.527-0.275
			c-0.195-0.07-0.408-0.119-0.637-0.148s-0.474-0.044-0.733-0.044h-2.304v4.535h2.304c0.388,0,0.743-0.035,1.065-0.105
			s0.598-0.191,0.83-0.364c0.231-0.173,0.411-0.405,0.54-0.697C63.138,4.23,63.204,3.862,63.204,3.419z"/>
		<path fill="#FFFFFF" d="M73.587,4.64c0,0.211-0.027,0.394-0.083,0.55c-0.055,0.156-0.133,0.289-0.232,0.402
			c-0.099,0.112-0.218,0.203-0.356,0.273c-0.139,0.07-0.291,0.125-0.457,0.166c-0.166,0.041-0.344,0.07-0.534,0.085
			c-0.19,0.016-0.386,0.024-0.59,0.024h-3.138V0.703h3.067c0.156,0,0.311,0.007,0.467,0.02c0.156,0.013,0.306,0.037,0.449,0.073
			c0.144,0.036,0.277,0.085,0.4,0.148c0.123,0.063,0.23,0.146,0.32,0.25c0.091,0.103,0.162,0.227,0.214,0.372
			c0.052,0.145,0.077,0.317,0.077,0.514c0,0.177-0.021,0.33-0.065,0.459c-0.043,0.129-0.109,0.24-0.198,0.332
			s-0.201,0.168-0.339,0.228c-0.137,0.059-0.298,0.106-0.483,0.14c0.264,0.018,0.489,0.064,0.677,0.135
			c0.187,0.071,0.34,0.166,0.458,0.285c0.119,0.119,0.206,0.26,0.262,0.425C73.559,4.249,73.587,4.434,73.587,4.64z M72.728,2.092
			c0-0.076-0.006-0.152-0.017-0.229c-0.011-0.076-0.034-0.149-0.071-0.218c-0.037-0.07-0.09-0.135-0.161-0.195
			c-0.069-0.06-0.165-0.112-0.286-0.156c-0.122-0.043-0.271-0.077-0.45-0.103c-0.178-0.025-0.392-0.037-0.643-0.037h-2.409v1.892
			h2.409c0.356,0,0.641-0.026,0.855-0.077c0.213-0.051,0.378-0.12,0.492-0.207c0.115-0.087,0.19-0.188,0.226-0.304
			C72.71,2.342,72.728,2.22,72.728,2.092z M73.068,4.63c0-0.205-0.035-0.38-0.106-0.525c-0.072-0.144-0.181-0.263-0.329-0.355
			c-0.148-0.092-0.338-0.16-0.57-0.204c-0.232-0.043-0.508-0.065-0.827-0.065h-2.543v2.208h2.612c0.329,0,0.607-0.019,0.833-0.057
			c0.225-0.038,0.407-0.1,0.546-0.185c0.138-0.086,0.237-0.196,0.297-0.33C73.039,4.981,73.068,4.819,73.068,4.63z"/>
		<path fill="#FFFFFF" d="M77.405,3.837v2.303H76.91V3.837l-2.552-3.134h0.59l2.212,2.723l2.204-2.723h0.594L77.405,3.837z"/>
	</g>
</g>
</svg>
