<?xml version="1.0" encoding="utf-8"?>
<!-- Generator: Adobe Illustrator 17.0.0, SVG Export Plug-In . SVG Version: 6.00 Build 0)  -->
<!DOCTYPE svg PUBLIC "-//W3C//DTD SVG 1.1//EN" "http://www.w3.org/Graphics/SVG/1.1/DTD/svg11.dtd">
<svg version="1.1" id="Layer_1" xmlns="http://www.w3.org/2000/svg" xmlns:xlink="http://www.w3.org/1999/xlink" x="0px" y="0px"
	 width="37.286px" height="37.287px" viewBox="0 0 37.286 37.287" enable-background="new 0 0 37.286 37.287" xml:space="preserve">
<path fill="#FFFFFF" d="M36.683,16.34l-7.567,7.376l1.786,10.417c0.128,0.75-0.182,1.51-0.797,1.957
	c-0.348,0.253-0.762,0.382-1.176,0.382c-0.32,0-0.64-0.076-0.933-0.23l-9.355-4.918l-9.355,4.918
	c-0.674,0.355-1.49,0.295-2.107-0.15c-0.614-0.448-0.923-1.206-0.794-1.957l1.787-10.417l-7.57-7.378
	c-0.546-0.53-0.74-1.326-0.507-2.05c0.236-0.724,0.86-1.25,1.615-1.36l10.46-1.522l4.68-9.478c0.336-0.684,1.03-1.116,1.793-1.116
	c0.763,0,1.456,0.432,1.793,1.115l4.68,9.476l10.46,1.52c0.753,0.11,1.38,0.638,1.612,1.362c0.238,0.723,0.04,1.518-0.504,2.05
	L36.683,16.34z"/>
</svg>
