<?xml version="1.0" encoding="utf-8"?>
<!-- Generator: Adobe Illustrator 17.0.0, SVG Export Plug-In . SVG Version: 6.00 Build 0)  -->
<!DOCTYPE svg PUBLIC "-//W3C//DTD SVG 1.1//EN" "http://www.w3.org/Graphics/SVG/1.1/DTD/svg11.dtd">
<svg version="1.1" id="Layer_1" xmlns="http://www.w3.org/2000/svg" xmlns:xlink="http://www.w3.org/1999/xlink" x="0px" y="0px"
	 width="24px" height="24px" viewBox="0 0 24 24" enable-background="new 0 0 24 24" xml:space="preserve">
<path fill="#FFFFFF" d="M21.75,3.333c-1.203-0.379-2.524-0.542-3.792-0.542c-2.113,0-4.388,0.433-5.958,1.625
	c-1.571-1.192-3.846-1.625-5.958-1.625S1.654,3.225,0.083,4.417v15.871c0,0.271,0.271,0.542,0.542,0.542
	c0.108,0,0.162-0.054,0.271-0.054c1.463-0.704,3.575-1.192,5.146-1.192c2.112,0,4.388,0.433,5.958,1.625
	c1.463-0.921,4.117-1.625,5.958-1.625c1.787,0,3.629,0.325,5.146,1.137c0.108,0.054,0.163,0.054,0.271,0.054
	c0.271,0,0.542-0.271,0.542-0.542V4.417C23.267,3.929,22.562,3.604,21.75,3.333 M21.75,17.958c-1.192-0.379-2.492-0.542-3.792-0.542
	c-1.842,0-4.496,0.704-5.958,1.625V6.583c1.463-0.921,4.117-1.625,5.958-1.625c1.3,0,2.6,0.162,3.792,0.542V17.958z"/>
</svg>
