<?xml version="1.0" encoding="utf-8"?>
<!-- Generator: Adobe Illustrator 17.0.0, SVG Export Plug-In . SVG Version: 6.00 Build 0)  -->
<!DOCTYPE svg PUBLIC "-//W3C//DTD SVG 1.1//EN" "http://www.w3.org/Graphics/SVG/1.1/DTD/svg11.dtd">
<svg version="1.1" id="Layer_1" xmlns="http://www.w3.org/2000/svg" xmlns:xlink="http://www.w3.org/1999/xlink" x="0px" y="0px"
	 width="24px" height="24px" viewBox="0 0 24 24" enable-background="new 0 0 24 24" xml:space="preserve">
<g>
	<path fill="#FFFFFF" d="M19.202,19.2c-1.332,0-2.401,1.068-2.401,2.401c0,1.326,1.075,2.401,2.401,2.401
		c1.326,0,2.401-1.075,2.401-2.401C21.602,20.268,20.521,19.2,19.202,19.2z"/>
	<path fill="#FFFFFF" d="M7.201,19.2c-1.332,0-2.401,1.068-2.401,2.401c0,1.326,1.075,2.401,2.401,2.401
		c1.326,0,2.401-1.075,2.401-2.401C9.6,20.268,8.52,19.2,7.201,19.2z"/>
	<path fill="#FFFFFF" d="M8.52,13.201h8.94c0.9,0,1.693-0.504,2.1-1.236l4.296-7.764C23.94,4.01,24,3.806,24,3.601
		c0-0.663-0.538-1.2-1.2-1.2H5.053L3.925-0.002H0v2.401h2.401l4.32,9.109l-1.632,2.94c-0.18,0.336-0.288,0.732-0.288,1.152
		c0,1.326,1.075,2.401,2.401,2.401h14.402V15.6h-13.9c-0.166,0-0.299-0.134-0.299-0.299c0-0.06,0.011-0.108,0.035-0.143L8.52,13.201
		z M10.783,8.438c0,1.227,0.997,2.224,2.224,2.224s2.224-0.997,2.224-2.224c0-1.227-0.997-2.223-2.224-2.223v1.482l-1.853-1.853
		l1.853-1.853v1.482c1.638,0,2.965,1.327,2.965,2.965c0,1.638-1.327,2.965-2.965,2.965s-2.965-1.327-2.965-2.965H10.783z"/>
</g>
</svg>
