<?xml version="1.0" encoding="utf-8"?>
<!-- Generator: Adobe Illustrator 17.0.0, SVG Export Plug-In . SVG Version: 6.00 Build 0)  -->
<!DOCTYPE svg PUBLIC "-//W3C//DTD SVG 1.1//EN" "http://www.w3.org/Graphics/SVG/1.1/DTD/svg11.dtd">
<svg version="1.1" id="Layer_1" xmlns="http://www.w3.org/2000/svg" xmlns:xlink="http://www.w3.org/1999/xlink" x="0px" y="0px"
	 width="24px" height="24px" viewBox="0 0 24 24" enable-background="new 0 0 24 24" xml:space="preserve">
<path d="M12,0C7.361,0,3.6,3.761,3.6,8.4c0,2.856,1.428,5.364,3.6,6.888V18c0,0.663,0.537,1.2,1.2,1.2h7.2
	c0.663,0,1.2-0.537,1.2-1.2v-2.712c2.172-1.524,3.6-4.032,3.6-6.888C20.4,3.761,16.639,0,12,0 M8.4,22.8c0,0.663,0.537,1.2,1.2,1.2
	h4.8c0.663,0,1.2-0.537,1.2-1.2v-1.2H8.4V22.8z"/>
</svg>
