<?xml version="1.0" encoding="utf-8"?>
<!-- Generator: Adobe Illustrator 17.0.0, SVG Export Plug-In . SVG Version: 6.00 Build 0)  -->
<!DOCTYPE svg PUBLIC "-//W3C//DTD SVG 1.1//EN" "http://www.w3.org/Graphics/SVG/1.1/DTD/svg11.dtd">
<svg version="1.1" id="Layer_1" xmlns="http://www.w3.org/2000/svg" xmlns:xlink="http://www.w3.org/1999/xlink" x="0px" y="0px"
	 width="24px" height="24px" viewBox="0 0 24 24" enable-background="new 0 0 24 24" xml:space="preserve">
<path fill="#FFFFFF" d="M12.003,16.204c-2.32,0-4.201-1.881-4.201-4.201s1.881-4.201,4.201-4.201s4.201,1.881,4.201,4.201
	S14.323,16.204,12.003,16.204 M20.921,13.168c0.048-0.384,0.084-0.768,0.084-1.164c0-0.396-0.036-0.792-0.084-1.2l2.533-1.957
	c0.228-0.18,0.288-0.504,0.144-0.768l-2.401-4.153c-0.144-0.264-0.468-0.372-0.732-0.264l-2.989,1.2
	c-0.624-0.468-1.272-0.876-2.029-1.176l-0.444-3.181C14.955,0.216,14.703,0,14.403,0H9.602c-0.3,0-0.552,0.216-0.6,0.504
	L8.558,3.685c-0.756,0.3-1.404,0.708-2.029,1.176l-2.989-1.2c-0.264-0.108-0.588,0-0.732,0.264L0.407,8.078
	C0.251,8.342,0.323,8.666,0.551,8.846l2.533,1.957C3.036,11.211,3,11.607,3,12.003s0.036,0.78,0.084,1.164L0.551,15.16
	c-0.228,0.18-0.3,0.504-0.144,0.768l2.401,4.153c0.144,0.264,0.468,0.36,0.732,0.264l2.989-1.212
	c0.624,0.48,1.272,0.888,2.029,1.188l0.444,3.181c0.048,0.288,0.3,0.504,0.6,0.504h4.801c0.3,0,0.552-0.216,0.6-0.504l0.444-3.181
	c0.756-0.312,1.404-0.708,2.029-1.188l2.989,1.212c0.264,0.096,0.588,0,0.732-0.264l2.401-4.153
	c0.144-0.264,0.084-0.588-0.144-0.768L20.921,13.168z"/>
</svg>
