<?xml version="1.0" encoding="utf-8"?>
<!-- Generator: Adobe Illustrator 17.0.0, SVG Export Plug-In . SVG Version: 6.00 Build 0)  -->
<!DOCTYPE svg PUBLIC "-//W3C//DTD SVG 1.1//EN" "http://www.w3.org/Graphics/SVG/1.1/DTD/svg11.dtd">
<svg version="1.1" id="Layer_1" xmlns="http://www.w3.org/2000/svg" xmlns:xlink="http://www.w3.org/1999/xlink" x="0px" y="0px"
	 width="40px" height="40px" viewBox="0 0 40 40" enable-background="new 0 0 40 40" xml:space="preserve">
<path fill="#FFFFFF" d="M3.783,20.208L20.304,0.266c0.111-0.111,0.243-0.174,0.396-0.188s0.285,0.028,0.396,0.125
	c0.181,0.153,0.236,0.341,0.167,0.563L16.82,15.452l11.056,4.422l-16.438,19.9c-0.097,0.111-0.226,0.174-0.386,0.188
	s-0.296-0.028-0.407-0.125c-0.181-0.167-0.236-0.355-0.167-0.563l4.443-14.706L3.783,20.208z M35.304,9.768l-1.595,1.595
	l-4.082-4.084l-4.082,4.082l-1.597-1.597l4.084-4.082l-4.082-4.084L25.549,0l4.079,4.089l4.082-4.082l1.597,1.6l-4.084,4.082
	L35.304,9.768z"/>
</svg>
