<?xml version="1.0" encoding="utf-8"?>
<!-- Generator: Adobe Illustrator 17.0.0, SVG Export Plug-In . SVG Version: 6.00 Build 0)  -->
<!DOCTYPE svg PUBLIC "-//W3C//DTD SVG 1.1//EN" "http://www.w3.org/Graphics/SVG/1.1/DTD/svg11.dtd">
<svg version="1.1" id="Layer_1" xmlns="http://www.w3.org/2000/svg" xmlns:xlink="http://www.w3.org/1999/xlink" x="0px" y="0px"
	 width="24px" height="24px" viewBox="0 0 24 24" enable-background="new 0 0 24 24" xml:space="preserve">
<g>
	<path fill="#FFFFFF" d="M18.902,18.9c-1.277,0-2.301,1.024-2.301,2.301c0,1.271,1.03,2.301,2.301,2.301s2.301-1.03,2.301-2.301
		C21.202,19.924,20.166,18.9,18.902,18.9z"/>
	<path fill="#FFFFFF" d="M7.401,18.9c-1.276,0-2.301,1.024-2.301,2.301c0,1.271,1.03,2.301,2.301,2.301s2.301-1.03,2.301-2.301
		C9.7,19.924,8.665,18.9,7.401,18.9z"/>
	<path fill="#FFFFFF" d="M8.665,13.151h8.567c0.863,0,1.622-0.483,2.013-1.185l4.117-7.44C23.443,4.343,23.5,4.147,23.5,3.951
		c0-0.635-0.516-1.15-1.15-1.15H5.342L4.261,0.498H0.5v2.301h2.301l4.14,8.729l-1.564,2.817c-0.172,0.322-0.276,0.702-0.276,1.104
		c0,1.271,1.03,2.301,2.301,2.301h13.802V15.45H7.883c-0.159,0-0.287-0.128-0.287-0.287c0-0.057,0.011-0.103,0.034-0.137
		L8.665,13.151z"/>
</g>
</svg>
