<?xml version="1.0" encoding="utf-8"?>
<!-- Generator: Adobe Illustrator 17.0.0, SVG Export Plug-In . SVG Version: 6.00 Build 0)  -->
<!DOCTYPE svg PUBLIC "-//W3C//DTD SVG 1.1//EN" "http://www.w3.org/Graphics/SVG/1.1/DTD/svg11.dtd">
<svg version="1.1" id="Layer_1" xmlns="http://www.w3.org/2000/svg" xmlns:xlink="http://www.w3.org/1999/xlink" x="0px" y="0px"
	 width="48px" height="48px" viewBox="0 0 48 48" enable-background="new 0 0 48 48" xml:space="preserve">
<path fill="#FFFFFF" d="M36.892,0.215h-3.484l-5.575,15.68h3.31l1.22-3.484h5.574l1.22,3.484h3.31L36.892,0.215z M33.146,10.058
	l2.004-6.359l2.004,6.359H33.146z M6.229,24.356L26.001,0.491c0.133-0.133,0.291-0.208,0.474-0.225
	c0.183-0.017,0.341,0.033,0.474,0.15c0.216,0.183,0.283,0.408,0.2,0.674l-5.317,17.575l13.231,5.292L15.391,47.772
	c-0.116,0.133-0.27,0.208-0.462,0.225s-0.354-0.033-0.487-0.15c-0.216-0.2-0.283-0.424-0.2-0.674l5.317-17.6L6.229,24.356z"/>
</svg>
