<svg xmlns="http://www.w3.org/2000/svg" width="21.003" height="21.003" viewBox="0 0 21.003 21.003"><path fill="#FFF" d="M6.503 3.6L4.003 5l1.4-2.5-1.4-2.5 2.5 1.4 2.5-1.4-1.4 2.5 1.4 2.5-2.5-1.4m12 9.8l2.5-1.4-1.4 2.5 1.4 2.5-2.5-1.4-2.5 1.4 1.4-2.5-1.4-2.5 2.5 1.4m2.5-13.4l-1.4 2.5 1.4 2.5-2.5-1.4-2.5 1.4 1.4-2.5-1.4-2.5 2.5 1.4 2.5-1.4m-8.66 10.78l2.44-2.44-2.12-2.12-2.44 2.44 2.12 2.12m1.03-5.49l2.34 2.34c.39.37.39 1.02 0 1.41L4.043 20.71c-.39.39-1.04.39-1.41 0l-2.34-2.34c-.39-.37-.39-1.02 0-1.41l11.67-11.67c.39-.39 1.04-.39 1.41 0z"/></svg>