<?xml version="1.0" encoding="utf-8"?>
<!-- Generator: Adobe Illustrator 17.0.0, SVG Export Plug-In . SVG Version: 6.00 Build 0)  -->
<!DOCTYPE svg PUBLIC "-//W3C//DTD SVG 1.1//EN" "http://www.w3.org/Graphics/SVG/1.1/DTD/svg11.dtd">
<svg version="1.1" id="Layer_1" xmlns="http://www.w3.org/2000/svg" xmlns:xlink="http://www.w3.org/1999/xlink" x="0px" y="0px"
	 width="40px" height="40px" viewBox="0 0 40 40" enable-background="new 0 0 40 40" xml:space="preserve">
<path fill="#FFFFFF" d="M6.821,25.65l6.369-0.619c0.383,2.138,1.161,3.708,2.333,4.71c1.172,1.003,2.753,1.503,4.743,1.503
	c2.108,0,3.696-0.446,4.765-1.338c1.069-0.892,1.603-1.935,1.603-3.129c0-0.766-0.225-1.418-0.674-1.958
	c-0.45-0.538-1.234-1.006-2.355-1.404c-0.766-0.265-2.513-0.737-5.24-1.415c-3.509-0.87-5.971-1.939-7.385-3.206
	c-1.991-1.783-2.986-3.957-2.986-6.523c0-1.651,0.468-3.195,1.404-4.633c0.936-1.437,2.285-2.532,4.047-3.284
	s3.888-1.127,6.379-1.127c4.069,0,7.131,0.892,9.188,2.676s3.136,4.164,3.24,7.142l-6.546,0.288
	c-0.281-1.665-0.881-2.864-1.803-3.594c-0.921-0.73-2.303-1.095-4.146-1.095c-1.902,0-3.391,0.39-4.467,1.172
	c-0.693,0.501-1.039,1.172-1.039,2.012c0,0.766,0.325,1.423,0.972,1.968c0.826,0.693,2.831,1.415,6.015,2.167
	c3.184,0.752,5.539,1.529,7.065,2.333c1.526,0.804,2.72,1.902,3.582,3.294c0.863,1.392,1.294,3.114,1.294,5.164
	c0,1.858-0.516,3.597-1.548,5.218s-2.491,2.827-4.379,3.616c-1.887,0.788-4.239,1.183-7.054,1.183c-4.098,0-7.246-0.947-9.442-2.842
	C8.559,32.037,7.248,29.277,6.821,25.65z"/>
</svg>
