<?xml version="1.0" encoding="utf-8"?>
<!-- Generator: Adobe Illustrator 17.0.0, SVG Export Plug-In . SVG Version: 6.00 Build 0)  -->
<!DOCTYPE svg PUBLIC "-//W3C//DTD SVG 1.1//EN" "http://www.w3.org/Graphics/SVG/1.1/DTD/svg11.dtd">
<svg version="1.1" id="Layer_1" xmlns="http://www.w3.org/2000/svg" xmlns:xlink="http://www.w3.org/1999/xlink" x="0px" y="0px"
	 width="24px" height="24px" viewBox="0 0 24 24" enable-background="new 0 0 24 24" xml:space="preserve">
<path fill="#FFFFFF" d="M17.931,0H6.069C4.977,0,4.083,0.894,4.083,1.986v19.862c0,1.092,0.894,1.986,1.986,1.986h11.862
	c1.092,0,1.986-0.894,1.986-1.986V1.986C19.917,0.894,19.023,0,17.931,0z M6.341,3.925c0-0.959,0.775-1.741,1.733-1.741
	s1.742,0.784,1.742,1.743c0.009,0.957-0.775,1.741-1.733,1.741l0,0C7.116,5.668,6.341,4.885,6.341,3.925z M12.974,21.816v-1.96
	H9.055v-1.96h3.919v-1.96l2.939,2.939L12.974,21.816z"/>
</svg>
