<?xml version="1.0" encoding="utf-8"?>
<!-- Generator: Adobe Illustrator 17.0.0, SVG Export Plug-In . SVG Version: 6.00 Build 0)  -->
<!DOCTYPE svg PUBLIC "-//W3C//DTD SVG 1.1//EN" "http://www.w3.org/Graphics/SVG/1.1/DTD/svg11.dtd">
<svg version="1.1" id="Layer_1" xmlns="http://www.w3.org/2000/svg" xmlns:xlink="http://www.w3.org/1999/xlink" x="0px" y="0px"
	 width="512px" height="512px" viewBox="0 0 512 512" enable-background="new 0 0 512 512" xml:space="preserve">
<path fill="#FFFFFF" d="M424.5,232.496c0-75.94-75.44-137.5-168.5-137.5s-168.5,61.56-168.5,137.5
	c0,68.88,62.07,125.922,143.054,135.933c2.504,0.4,4.117,1.08,5.375,1.65c4.78,2.603,8.81,6.04,8.57,9.91
	c-0.27,7.21-3.94,16.52-5,24s0.11,13.27,10,13c19.23-1.338,126.9-79.897,144-105h-0.01c19.523-22.45,31.002-49.88,31.002-79.5
	L424.5,232.496z M190,274.996h-33c-4.142,0-7.5-3.357-7.5-7.5v-66c0-4.143,3.358-7.5,7.5-7.5s7.5,3.357,7.5,7.5v58.5H190
	c4.142,0,7.5,3.357,7.5,7.5S194.142,274.996,190,274.996z M223.5,267.496c0,4.143-3.358,7.5-7.5,7.5s-7.5-3.357-7.5-7.5v-66
	c0-4.143,3.358-7.5,7.5-7.5s7.5,3.357,7.5,7.5V267.496z M303.5,267.496c0,4.143-3.357,7.5-7.5,7.5c-2.698,0-4.472-1.932-8.5-7
	l-34-43.598v43.098c0,4.143-3.358,7.5-7.5,7.5s-7.5-3.357-7.5-7.5v-66c0-4.143,3.358-7.5,7.5-7.5c3.52,0,5.33,1.88,9.5,7l33,44
	v-43.5c0-4.143,3.357-7.5,7.5-7.5s7.5,3.357,7.5,7.5V267.496z M358.56,226.996c4.385,0,7.94,3.582,7.94,8s-3.556,8-7.94,8H333.5v17
	H359c4.143,0,7.5,3.357,7.5,7.5s-3.357,7.5-7.5,7.5h-35c-4.143,0-7.5-3.357-7.5-7.5v-66c0-3.973,3.09-7.215,6.997-7.475l0.003-0.02
	h35.06c4.385,0,7.94,3.58,7.94,8s-3.556,8-7.94,8H333.5v17h25.06V226.996z"/>
</svg>
