<?xml version="1.0" encoding="utf-8"?>
<!-- Generator: Adobe Illustrator 17.0.0, SVG Export Plug-In . SVG Version: 6.00 Build 0)  -->
<!DOCTYPE svg PUBLIC "-//W3C//DTD SVG 1.1//EN" "http://www.w3.org/Graphics/SVG/1.1/DTD/svg11.dtd">
<svg version="1.1" id="Layer_1" xmlns="http://www.w3.org/2000/svg" xmlns:xlink="http://www.w3.org/1999/xlink" x="0px" y="0px"
	 width="512px" height="512px" viewBox="0 0 512 512" enable-background="new 0 0 512 512" xml:space="preserve">
<path fill="#FFFFFF" d="M301.994,303.727v-143.18c0-13.126-10.74-23.864-23.863-23.864H134.95c-13.126,0-23.865,10.74-23.865,23.863
	v143.18c0,13.126,10.74,23.864,23.864,23.864h143.18c13.12,0,23.86-10.738,23.86-23.863L301.994,303.727L301.994,303.727z
	 M170.744,256l24.222,32.335l35.437-44.267l47.727,59.66H134.95L170.744,256z M63.36,184.41v167.045
	c0,13.125,10.738,23.863,23.862,23.863h167.045v-23.863H87.222V184.41H63.36z M380.75,227.597v-32.46l-56.805,56.805l56.806,56.806
	v-33.272c40.58,0,68.98,12.984,89.27,41.388c-8.11-40.576-32.46-81.152-89.263-89.267h-0.007L380.75,227.597z"/>
</svg>
