<?xml version="1.0" encoding="utf-8"?>
<!-- Generator: Adobe Illustrator 17.0.0, SVG Export Plug-In . SVG Version: 6.00 Build 0)  -->
<!DOCTYPE svg PUBLIC "-//W3C//DTD SVG 1.1//EN" "http://www.w3.org/Graphics/SVG/1.1/DTD/svg11.dtd">
<svg version="1.1" id="Layer_1" xmlns="http://www.w3.org/2000/svg" xmlns:xlink="http://www.w3.org/1999/xlink" x="0px" y="0px"
	 width="512px" height="512px" viewBox="0 0 512 512" enable-background="new 0 0 512 512" xml:space="preserve">
<path fill="#FFFFFF" d="M205.156,105.864c-69.615-1.05-127.46,50.117-127.46,110.463c0,34.833,16.38,65.052,48.085,87.24
	c0,0-11.62,38.357-11.45,39.126c0.17,0.77,2.698,2.282,3.58,1.788c0.88-0.49,42.007-25.02,42.007-25.02
	c31.52,10.82,49.894,7.227,50.945,7.15c-3.146-9.21-5.207-23.552-2.86-37.072c12.287-70.756,84.715-92.766,124.41-89.005
	c-10.962-51.1-58.574-93.626-127.246-94.66L205.156,105.864z"/>
<path fill="#FFFFFF" d="M434.304,300.295c0-51.698-49.984-91.296-107.97-91.296c-61.4,0-110.37,40.49-110.37,92.18
	c0,51.79,46.58,94.66,110.44,95.01c12.853,0.07,31.998-3.233,44.907-8.627c0,0,30.86,18.715,32.59,18.577
	c1.73-0.14,2.62-1.507,2.68-2.68c0.07-1.174-9.83-30.386-9.83-30.386c26.5-20.755,37.56-43.626,37.56-72.787L434.304,300.295z"/>
<path fill="#60A721" d="M156.77,163.94c-9.132,0-16.534,7.405-16.534,16.54s7.402,16.542,16.534,16.542s16.536-7.405,16.536-16.54
	S165.902,163.94,156.77,163.94z M256.87,163.94c-9.13,0-16.535,7.405-16.535,16.54s7.403,16.542,16.534,16.542
	c9.13,0,16.53-7.405,16.53-16.54s-7.4-16.542-16.537-16.542H256.87z M285.922,251.894c-8.08,0-14.63,6.562-14.63,14.66
	c0,8.094,6.55,14.658,14.63,14.658s14.63-6.562,14.63-14.658C300.552,258.456,294.002,251.894,285.922,251.894z M364.145,251.894
	c-8.08,0-14.63,6.562-14.63,14.66c0,8.094,6.55,14.658,14.63,14.658c8.08,0,14.63-6.562,14.63-14.658
	C378.775,258.456,372.225,251.894,364.145,251.894z"/>
</svg>
